<svg id="レイヤー_1" data-name="レイヤー 1" xmlns="http://www.w3.org/2000/svg" width="28" height="54" viewBox="0 0 28 54"><g id="Page-1"><g id="Liver_7-1-1_配信_開始前案内1_-Copy" data-name="Liver 7-1-1 配信 開始前案内1 -Copy"><g id="camra_back_active" data-name="camra back active"><path id="Stroke-1" d="M27,4a3,3,0,0,0-3-3H4A3,3,0,0,0,1,4V50a3,3,0,0,0,3,3H24a3,3,0,0,0,3-3Z" fill="none" stroke="#6cf"/><path id="Stroke-3" d="M12,6a2,2,0,0,0-2-2H6A2,2,0,0,0,4,6v9a2,2,0,0,0,2,2h4a2,2,0,0,0,2-2Z" fill="none" stroke="#6cf"/><path id="Stroke-5" d="M8,9.25H8A1.25,1.25,0,1,1,9.25,8,1.25,1.25,0,0,1,8,9.25Z" fill="none" stroke="#6cf"/><path id="Stroke-7" d="M8,14.25H8A1.25,1.25,0,1,1,9.25,13,1.25,1.25,0,0,1,8,14.25Z" fill="none" stroke="#6cf"/></g></g></g></svg>