<svg id="レイヤー_1" data-name="レイヤー 1" xmlns="http://www.w3.org/2000/svg" width="45" height="55" viewBox="0 0 45 55"><g id="Page-1"><g id="Liver_7-1-1_配信_開始前案内1_" data-name="Liver 7-1-1 配信 開始前案内1 "><g id="camra_front_active" data-name="camra front active"><path id="Stroke-1" d="M38.43,21.62l-.17-.17c-.86-.91-1.11-2.09-.54-2.62l2.39-2.26a2.23,2.23,0,0,1,3.14.16l.17.17a2.25,2.25,0,0,1,0,3.15L41,22.3C40.45,22.84,39.29,22.53,38.43,21.62Z" fill="none" stroke="#6cf"/><path id="Stroke-3" d="M18.41,55s1.95-2,3-3c8.16.6,11.19-5,12-6" fill="none" stroke="#6cf"/><path id="Stroke-5" d="M39.05,40.34l-.17-.15c-.86-.74-1.18-1.8-.71-2.34l2-2.31a2.05,2.05,0,0,1,2.89-.17l.17.14a2.07,2.07,0,0,1,.25,2.89l-2,2.3C41,41.25,39.91,41.09,39.05,40.34Z" fill="none" stroke="#6cf"/><path id="Stroke-7" d="M19.41,48A15.48,15.48,0,0,0,17.5,33.75a28.7,28.7,0,0,0,1.43-7.16,6.16,6.16,0,0,0-1.29-4.15,1.74,1.74,0,0,0-3,.37C13,28,12.72,29.47,11.71,32.09c-1.13,2.94-.48,7.07-1.05,8.27C10.55,40.6,8.41,44,8.41,44" fill="none" stroke="#6cf"/><path id="Stroke-9" d="M39.06,34.05l-.17-.14c-.88-.76-1.2-1.84-.72-2.39l2-2.35a2.09,2.09,0,0,1,2.95-.2l0,0,.17.14a2.09,2.09,0,0,1,.25,2.94l-2,2.34C41.05,35,39.94,34.81,39.06,34.05Z" fill="none" stroke="#6cf"/><path id="Stroke-11" d="M39.06,27.93l-.17-.15C38,27,37.69,26,38.17,25.39l2-2.35a2.1,2.1,0,0,1,2.94-.17l.17.14A2.09,2.09,0,0,1,43.61,26l0,.05-2,2.34C41.05,28.85,39.94,28.68,39.06,27.93Z" fill="none" stroke="#6cf"/><path id="Stroke-13" d="M39.41,17V4a3,3,0,0,0-3-3h-17a3,3,0,0,0-3,3V22" fill="none" stroke="#6cf"/><path id="Stroke-15" d="M19.41,46h17a3,3,0,0,0,3-3V41" fill="none" stroke="#6cf"/><polyline id="Stroke-17" points="19.41 55 6.41 42 1.41 47 9.41 55" fill="none" stroke="#6cf"/><line id="Stroke-19" x1="6.41" y1="47" x2="7.41" y2="48" fill="none" stroke="#6cf"/><line id="Stroke-21" x1="20.41" y1="40" x2="38.41" y2="40" fill="none" stroke="#6cf"/><line id="Stroke-23" x1="16.41" y1="8" x2="39.41" y2="8" fill="none" stroke="#6cf"/><path id="Stroke-25" d="M30.5,5.86h0a1.25,1.25,0,1,1,1.25-1.25A1.25,1.25,0,0,1,30.5,5.86Z" fill="none" stroke="#6cf"/><line id="Stroke-27" x1="22.75" y1="4.61" x2="26.75" y2="4.61" fill="none" stroke="#6cf"/></g></g></g></svg>