<svg xmlns="http://www.w3.org/2000/svg" width="25.686" height="20.847" viewBox="0 0 25.686 20.847">
  <g id="Group_5" data-name="Group 5" transform="translate(0.271 -0.3)">
    <path id="Stroke_1" data-name="Stroke 1" d="M23.04,3.674a1.637,1.637,0,0,1,1.646,1.617V18.23a1.637,1.637,0,0,1-1.646,1.617H1.645A1.636,1.636,0,0,1,0,18.23V5.291A1.636,1.636,0,0,1,1.645,3.674H6.766L8.024,0h8.853l1.042,3.674Z" transform="translate(0.229 0.8)" fill="none" stroke="#fff" stroke-linecap="round" stroke-linejoin="round" stroke-miterlimit="10" stroke-width="1"/>
    <path id="Stroke_3" data-name="Stroke 3" d="M9.257,4.629A4.629,4.629,0,1,1,4.629,0,4.629,4.629,0,0,1,9.257,4.629Z" transform="translate(7.943 7.223)" fill="none" stroke="#fff" stroke-linecap="round" stroke-linejoin="round" stroke-miterlimit="10" stroke-width="1"/>
  </g>
</svg>
