<?xml version="1.0" encoding="UTF-8"?>
<svg width="28px" height="54px" viewBox="0 0 28 54" version="1.1" xmlns="http://www.w3.org/2000/svg" xmlns:xlink="http://www.w3.org/1999/xlink">
    <!-- Generator: Sketch 61.2 (89653) - https://sketch.com -->
    <title>camra_back</title>
    <desc>Created with Sketch.</desc>
    <g id="Page-1" stroke="none" stroke-width="1" fill="none" fill-rule="evenodd" opacity="0.300000012">
        <g id="Liver_7-1-1_配信（開始前案内1）" transform="translate(-174.000000, -390.000000)" stroke="#FFFFFF">
            <g id="camra_back" transform="translate(175.000000, 391.000000)">
                <path d="M26,3 C26,1.343 24.657,0 23,0 L3,0 C1.343,0 0,1.343 0,3 L0,49 C0,50.657 1.343,52 3,52 L23,52 C24.657,52 26,50.657 26,49 L26,3 Z" id="Stroke-1"></path>
                <path d="M11,5 C11,3.896 10.104,3 9,3 L5,3 C3.896,3 3,3.896 3,5 L3,14 C3,15.104 3.896,16 5,16 L9,16 C10.104,16 11,15.104 11,14 L11,5 Z" id="Stroke-3"></path>
                <path d="M7,8.25 L7,8.25 C6.313,8.25 5.75,7.688 5.75,7 C5.75,6.313 6.313,5.75 7,5.75 C7.687,5.75 8.25,6.313 8.25,7 C8.25,7.688 7.687,8.25 7,8.25 Z" id="Stroke-5"></path>
                <path d="M7,13.25 L7,13.25 C6.313,13.25 5.75,12.688 5.75,12 C5.75,11.313 6.313,10.75 7,10.75 C7.687,10.75 8.25,11.313 8.25,12 C8.25,12.688 7.687,13.25 7,13.25 Z" id="Stroke-7"></path>
            </g>
        </g>
    </g>
</svg>