<?xml version="1.0" encoding="UTF-8"?>
<svg width="45px" height="55px" viewBox="0 0 45 55" version="1.1" xmlns="http://www.w3.org/2000/svg" xmlns:xlink="http://www.w3.org/1999/xlink">
    <!-- Generator: Sketch 61.2 (89653) - https://sketch.com -->
    <title>camra_front</title>
    <desc>Created with Sketch.</desc>
    <g id="Page-1" stroke="none" stroke-width="1" fill="none" fill-rule="evenodd" opacity="0.300000012">
        <g id="Liver_7-1-1_配信（開始前案内1）-Copy" transform="translate(-49.000000, -389.000000)" stroke="#FFFFFF">
            <g id="camra_front" transform="translate(50.000000, 390.000000)">
                <path d="M37.4279,20.624 L37.2599,20.447 C36.3989,19.541 36.1549,18.362 36.7169,17.829 L39.1099,15.574 C39.9749,14.752 41.3869,14.821 42.2479,15.728 L42.4159,15.905 C43.2769,16.811 43.2729,18.226 42.4079,19.047 L40.0149,21.303 C39.4529,21.836 38.2889,21.531 37.4279,20.624 Z" id="Stroke-1"></path>
                <path d="M17.4142,54 C17.4142,54 19.3602,51.995 20.4142,51 C28.5662,51.597 31.6002,45.951 32.4142,45" id="Stroke-3"></path>
                <path d="M38.0495,39.3408 L37.8815,39.1948 C37.0175,38.4498 36.6955,37.3948 37.1665,36.8488 L39.1725,34.5418 C39.8975,33.7008 41.1965,33.6238 42.0605,34.3688 L42.2285,34.5138 C43.0925,35.2588 43.2065,36.5558 42.4815,37.3958 L40.4755,39.7038 C40.0045,40.2488 38.9135,40.0858 38.0495,39.3408 Z" id="Stroke-5"></path>
                <path d="M18.4142,47 C20.5852,40.798 18.4612,35.229 16.4972,32.749 C17.3202,30.271 17.6592,28.502 17.9332,25.589 C18.0912,23.914 17.3812,22.477 16.6402,21.439 C15.8822,20.378 14.0332,20.622 13.6622,21.81 C12.0262,27.043 11.7202,28.467 10.7082,31.095 C9.5772,34.034 10.2262,38.158 9.6642,39.364 C9.5512,39.604 7.4142,43 7.4142,43" id="Stroke-7"></path>
                <path d="M38.0646,33.0537 L37.8936,32.9067 C37.0146,32.1477 36.6876,31.0737 37.1666,30.5187 L39.2076,28.1707 C39.9446,27.3167 41.2666,27.2377 42.1456,27.9957 L42.3166,28.1427 C43.1956,28.9017 43.3116,30.2207 42.5736,31.0757 L40.5326,33.4237 C40.0546,33.9777 38.9436,33.8117 38.0646,33.0537 Z" id="Stroke-9"></path>
                <path d="M38.0641,26.9253 L37.8931,26.7783 C37.0141,26.0193 36.6871,24.9453 37.1661,24.3903 L39.2071,22.0423 C39.9441,21.1883 41.2671,21.1093 42.1451,21.8663 L42.3161,22.0143 C43.1951,22.7723 43.3111,24.0923 42.5731,24.9463 L40.5321,27.2943 C40.0531,27.8493 38.9431,27.6833 38.0641,26.9253 Z" id="Stroke-11"></path>
                <path d="M38.4142,16 L38.4142,3 C38.4142,1.343 37.0712,-7.10542736e-15 35.4142,-7.10542736e-15 L18.4142,-7.10542736e-15 C16.7572,-7.10542736e-15 15.4142,1.342 15.4142,2.999 C15.4142,5.947 15.4142,21 15.4142,21" id="Stroke-13"></path>
                <path d="M18.4142,45 L35.4142,45 C37.0712,45 38.4142,43.657 38.4142,42 L38.4142,40" id="Stroke-15"></path>
                <polyline id="Stroke-17" points="18.4142 54 5.4142 41 0.4142 46 8.4142 54"></polyline>
                <line x1="5.4142" y1="46" x2="6.4142" y2="47" id="Stroke-19"></line>
                <line x1="19.4142" y1="39" x2="37.4142" y2="39" id="Stroke-21"></line>
                <line x1="15.4142" y1="7" x2="38.4142" y2="7" id="Stroke-23"></line>
                <path d="M29.4987,4.8643 L29.4987,4.8643 C28.8117,4.8643 28.2487,4.3023 28.2487,3.6143 C28.2487,2.9273 28.8117,2.3643 29.4987,2.3643 C30.1857,2.3643 30.7487,2.9273 30.7487,3.6143 C30.7487,4.3023 30.1857,4.8643 29.4987,4.8643 Z" id="Stroke-25"></path>
                <line x1="21.7487" y1="3.6143" x2="25.7487" y2="3.6143" id="Stroke-27"></line>
            </g>
        </g>
    </g>
</svg>