<svg xmlns="http://www.w3.org/2000/svg" width="37.571" height="31.818" viewBox="0 0 37.571 31.818">
  <g id="Group_9" data-name="Group 9" transform="translate(-0.262 -0.262)">
    <path id="Stroke_1" data-name="Stroke 1" d="M34.135,0a2.424,2.424,0,0,1,2.437,2.4v19.17a2.424,2.424,0,0,1-2.437,2.4H28.259L27.7,30.818,21.885,23.96H2.438A2.425,2.425,0,0,1,0,21.565V2.4A2.425,2.425,0,0,1,2.438,0Z" transform="translate(0.762 0.762)" fill="none" stroke="#fff" stroke-linecap="round" stroke-linejoin="round" stroke-miterlimit="10" stroke-width="1"/>
    <path id="Stroke_3" data-name="Stroke 3" d="M1.582.791A.791.791,0,1,1,.791,0,.79.79,0,0,1,1.582.791Z" transform="translate(12.775 11.95)" fill="none" stroke="#fff" stroke-linecap="round" stroke-linejoin="round" stroke-miterlimit="10" stroke-width="1"/>
    <path id="Stroke_5" data-name="Stroke 5" d="M1.582.791A.791.791,0,1,1,.791,0,.79.79,0,0,1,1.582.791Z" transform="translate(18.449 11.95)" fill="none" stroke="#fff" stroke-linecap="round" stroke-linejoin="round" stroke-miterlimit="10" stroke-width="1"/>
    <path id="Stroke_7" data-name="Stroke 7" d="M1.582.791A.791.791,0,1,1,.791,0,.79.79,0,0,1,1.582.791Z" transform="translate(23.737 11.95)" fill="none" stroke="#fff" stroke-linecap="round" stroke-linejoin="round" stroke-miterlimit="10" stroke-width="1"/>
  </g>
</svg>
