<?xml version="1.0" encoding="UTF-8"?>
<svg width="32px" height="37px" viewBox="0 0 32 37" version="1.1" xmlns="http://www.w3.org/2000/svg" xmlns:xlink="http://www.w3.org/1999/xlink">
    <!-- Generator: Sketch 61.2 (89653) - https://sketch.com -->
    <title>face</title>
    <desc>Created with Sketch.</desc>
    <g id="Page-1" stroke="none" stroke-width="1" fill="none" fill-rule="evenodd" stroke-linecap="round" stroke-linejoin="round">
        <g id="Liver_7-3-1_メニュー表示" transform="translate(-125.000000, -592.000000)" stroke="#FFFFFF">
            <g id="face" transform="translate(126.000000, 593.000000)">
                <path d="M23.1780188,4.67436592 C23.2667274,4.34721794 23.0187632,4.24535247 22.8254448,4.05978296 C22.2734179,3.5301148 21.7067004,3.02571121 21.0855794,2.57684126 C19.3999561,1.35865291 17.5194807,0.620249327 15.4847543,0.24184574 C14.498548,0.0584556054 13.5043507,-0.0192753363 12.5038574,0.00397130045 C9.2818574,0.0789578475 6.36157937,1.06112825 3.81332825,3.03588161 C2.90816233,3.73731659 2.19922063,4.647487 1.91364215,5.80303857 C1.69715785,6.67882332 1.74857489,7.54742422 2.11705022,8.3776843 C2.23400987,8.64122691 2.23667354,8.87232108 2.15821614,9.14732556 C1.76697848,10.5192 1.39979462,11.8980161 1.10638655,13.2946709 C0.873839462,14.4013883 1.1098574,15.4365901 1.675687,16.3915587 C1.96239552,16.8755408 1.93858386,17.3390206 1.79377668,17.8472987 C1.52740897,18.78233 1.01945381,19.5953166 0.538054709,20.4224287 C0.407292377,20.6470655 0.230440359,20.8450655 0.100969507,21.070348 C-0.0984834081,21.417191 0.00620717489,21.8305453 0.339812556,22.0744735 C0.634027803,22.2896664 0.967956054,22.4264018 1.3046287,22.5619265 C1.8409157,22.7779265 2.01663767,23.2347874 1.78933722,23.7671193 C1.50690673,24.4282762 1.56163318,24.6916574 2.15837758,25.0863659 C2.36517578,25.2232628 2.49214439,25.5570296 2.83656592,25.4387785" id="Stroke-1"></path>
                <path d="M25.7559336,15.2680197 C26.1093148,15.2108717 26.42153,15.4047552 26.7627229,15.4313919 C27.8256108,15.5144502 28.6710457,14.9247283 29.1441309,13.819948 C29.5892072,12.7803874 29.6784807,11.6994996 29.5785525,10.59593 C29.4433507,9.10168789 29.1256466,7.64393004 28.5720054,6.24671031 C28.1678529,5.22692556 27.6229291,4.28236951 26.676678,3.67626188 C25.6957184,3.04779552 24.4443552,3.13932915 23.6189381,3.90679103 C23.4862386,4.03028879 23.3256915,4.12392108 23.1780592,4.23127534" id="Stroke-3"></path>
                <path d="M16.2900726,34.4010592 C15.4125928,32.6498933 14.6649874,30.8354448 13.7729785,29.0942072 C13.2172386,28.0092027 12.8164762,26.8614807 12.2592027,25.7826108 C12.1311848,25.5347274 11.9827453,25.2943507 11.7715076,25.1305749 C11.9027543,24.5119561 11.7627094,23.9380547 11.6921623,23.3650413 C11.6032924,22.6433462 11.5946556,21.9079291 11.2608081,21.2266735 C10.8097587,20.3060099 9.70853004,19.5121534 8.3966287,19.6701982 C7.22582152,19.8112117 6.37731928,20.4324942 5.9763148,21.5912744 C5.59791121,22.68427 5.83239552,23.6207543 6.57241345,24.5007363 C7.10070942,25.1287991 7.71166009,25.6738843 8.25521166,26.285965 C8.50874529,26.5713821 8.72474529,26.8231399 8.84751659,27.1878215 C8.99660179,27.6306377 9.19516682,28.0602161 9.41181256,28.4748619 C9.49567803,28.6352475 9.57365112,28.7987004 9.59399193,28.9644135 C9.62450314,29.2129426 9.70861076,29.3920547 9.92275426,29.5318574 C10.1150233,29.6573731 10.2146287,29.8435076 10.2563596,30.089696 C10.3697677,30.759974 10.7558395,31.3289516 11.0249516,31.9389336 C11.6188709,33.2844942 12.2755076,34.6024493 12.906557,35.9317049" id="Stroke-5"></path>
                <path d="M8.23408789,11.5622717 C8.87183677,11.7188637 9.25363049,12.2164063 9.68450045,12.6494556 C10.3847247,13.3532314 10.7573973,14.2793031 11.3296036,15.071061 C11.7163211,15.6062179 12.0999713,16.1413749 12.7079354,16.4304242 C13.6381238,16.8725946 14.5206081,16.5657067 15.3578906,16.1427471 C15.7010206,15.9694466 16.0114601,15.7115543 16.2916305,15.4307381 C16.9523031,14.7686933 17.7643211,14.6465677 18.6242045,14.8733839 C19.5204915,15.1098054 20.0149668,15.7574825 20.2390386,16.6372224 C20.4752179,17.5652314 20.2011821,18.3905677 19.8038099,19.2200206 C19.414348,20.0330879 18.9688682,20.8075722 18.4649489,21.5515453 C17.9122762,22.3676798 17.1391641,22.6939399 16.1692628,22.5788368" id="Stroke-7"></path>
                <path d="M2.55461973,25.4991632 C2.47777668,25.7220242 2.40182152,25.9402036 2.38737309,26.1835668 C2.36235067,26.6047507 2.65059283,27.0275489 3.15879013,27.0269031 C3.39714888,27.0265803 3.50272735,27.1572619 3.60701435,27.3492888 C3.82753453,27.7552978 3.88605471,28.2103022 3.94764215,28.6434323 C4.06532825,29.4719166 4.9378843,30.0487238 5.57329238,30.1824726 C6.35956143,30.3481049 7.09312197,30.133235 7.82870045,29.9594502 C8.45079013,29.8124637 9.07812646,29.6487686 9.64387534,29.3258179" id="Stroke-9"></path>
                <path d="M24.6683785,9.70939372 C24.6255175,10.4605507 24.9770422,11.1300215 25.1094188,11.8446135 C25.2798942,12.7654386 25.4726475,13.6836807 25.5141363,14.6235552 C25.5152664,14.6503534 25.5117148,14.6775552 25.5145399,14.7040305 C25.6904233,16.3500215 25.4016969,18.3373668 24.7913919,19.8609094 C24.0588,21.6898063 22.7979928,23.0494117 21.122217,24.0465955 C20.9381004,24.1561291 20.7302529,24.2307928 20.6020735,24.4130529 C20.517078,24.5338063 20.4031049,24.5277525 20.2779121,24.535017 C19.807652,24.5622188 19.337957,24.599591 18.8680197,24.6331695" id="Stroke-11"></path>
                <path d="M20.5194673,24.5727202 C20.7973776,25.5772493 20.9680951,26.6068816 21.3159874,27.5969623 C21.8984448,29.2544152 22.7207139,30.7522897 23.8910368,32.07533 C24.4470996,32.7038771 25.0869471,33.2189354 25.7156556,33.7565946" id="Stroke-13"></path>
                <path d="M7.38821704,17.2216413 C7.05856682,17.2218027 6.78154439,17.3793632 6.50266547,17.5249776 C6.12071031,17.7244305 5.72172377,17.8614888 5.29416323,17.9296951 C4.74407354,18.0173543 4.31134709,17.7661614 3.88386726,17.4834888" id="Stroke-15"></path>
                <path d="M11.7384457,25.1366448 C10.7203561,25.596896 9.68321704,26.0175148 8.71743229,26.5867345" id="Stroke-17"></path>
                <path d="M13.2690834,28.3590726 C12.2571283,28.8320771 11.2276574,29.268678 10.24807,29.8091623" id="Stroke-19"></path>
            </g>
        </g>
    </g>
</svg>