<svg xmlns="http://www.w3.org/2000/svg" width="34.01" height="41.04" viewBox="0 0 34.01 41.04"><g id="レイヤー_2" data-name="レイヤー 2"><g id="レイヤー_1-2" data-name="レイヤー 1"><g id="face" opacity="0.3"><path id="Stroke_1" data-name="Stroke 1" d="M25.94,5.64c.1-.36-.18-.48-.39-.68a18.47,18.47,0,0,0-1.91-1.63A15,15,0,0,0,17.5.77,16.39,16.39,0,0,0,14.22.5,15.8,15.8,0,0,0,4.68,3.84a5.46,5.46,0,0,0-2.08,3A4.3,4.3,0,0,0,2.82,9.7a1.19,1.19,0,0,1,.05.85c-.43,1.51-.84,3-1.16,4.55a4.62,4.62,0,0,0,.63,3.4,2,2,0,0,1,.13,1.6,12.94,12.94,0,0,1-1.38,2.82c-.15.25-.34.46-.48.71a.83.83,0,0,0,.26,1.1,5.29,5.29,0,0,0,1.06.54.91.91,0,0,1,.61,1.14,1.42,1.42,0,0,1-.08.18c-.31.73-.25,1,.41,1.45.22.15.36.51.74.38" fill="none" stroke="#fff" stroke-linecap="round" stroke-linejoin="round"/><path id="Stroke_3" data-name="Stroke 3" d="M29.26,17.26a4.68,4.68,0,0,1,1.11.18A2.56,2.56,0,0,0,33,15.67a7.24,7.24,0,0,0,.48-3.54,17.41,17.41,0,0,0-1.1-4.77,5.62,5.62,0,0,0-2.09-2.82,2.75,2.75,0,0,0-3.36.25,4.29,4.29,0,0,1-.48.36" fill="none" stroke="#fff" stroke-linecap="round" stroke-linejoin="round"/><path id="Stroke_5" data-name="Stroke 5" d="M18.53,38.86c-1-1.92-1.79-3.91-2.77-5.82-.61-1.19-1-2.45-1.66-3.64a2.07,2.07,0,0,0-.53-.71,5.75,5.75,0,0,0-.09-1.94A7,7,0,0,0,13,24.4a3.14,3.14,0,0,0-3.15-1.71A3,3,0,0,0,7.21,24.8,3.09,3.09,0,0,0,7.86,28c.58.68,1.25,1.28,1.85,2a2.89,2.89,0,0,1,.65,1A9.74,9.74,0,0,0,11,32.36a1.94,1.94,0,0,1,.2.54.77.77,0,0,0,.36.62.83.83,0,0,1,.36.61,8.82,8.82,0,0,0,.85,2c.65,1.48,1.37,2.92,2.06,4.38" fill="none" stroke="#fff" stroke-linecap="round" stroke-linejoin="round"/><path id="Stroke_7" data-name="Stroke 7" d="M9.77,13.47a3.63,3.63,0,0,1,1.59,1.2,20,20,0,0,1,1.81,2.65,4.25,4.25,0,0,0,1.51,1.5,3.2,3.2,0,0,0,2.91-.32,4.07,4.07,0,0,0,1-.78,2.5,2.5,0,0,1,2.56-.61A2.42,2.42,0,0,1,22.94,19a4,4,0,0,1-.47,2.84A20.94,20.94,0,0,1,21,24.44a2.49,2.49,0,0,1-2.52,1.13" fill="none" stroke="#fff" stroke-linecap="round" stroke-linejoin="round"/><path id="Stroke_9" data-name="Stroke 9" d="M3.3,29a2.49,2.49,0,0,0-.18.75.84.84,0,0,0,.75.93H4a.52.52,0,0,1,.49.35,4.16,4.16,0,0,1,.38,1.42,2.29,2.29,0,0,0,1.79,1.69,5.46,5.46,0,0,0,2.47-.24,7,7,0,0,0,2-.7" fill="none" stroke="#fff" stroke-linecap="round" stroke-linejoin="round"/><path id="Stroke_11" data-name="Stroke 11" d="M28.07,11.44a9.36,9.36,0,0,0,.48,2.34,21.15,21.15,0,0,1,.44,3v.09a12.56,12.56,0,0,1-.79,5.66,9.21,9.21,0,0,1-4,4.59,1.9,1.9,0,0,0-.57.4c-.09.14-.22.13-.35.14l-1.55.11" fill="none" stroke="#fff" stroke-linecap="round" stroke-linejoin="round"/><path id="Stroke_13" data-name="Stroke 13" d="M23.51,28.07c.31,1.1.49,2.24.88,3.32a14.64,14.64,0,0,0,2.82,4.92,19.29,19.29,0,0,0,2,1.84" fill="none" stroke="#fff" stroke-linecap="round" stroke-linejoin="round"/><path id="Stroke_15" data-name="Stroke 15" d="M8.61,19.7a2.16,2.16,0,0,0-1,.33,4.39,4.39,0,0,1-1.32.45A2.17,2.17,0,0,1,4.76,20" fill="none" stroke="#fff" stroke-linecap="round" stroke-linejoin="round"/><path id="Stroke_17" data-name="Stroke 17" d="M13.54,28.53a33.53,33.53,0,0,0-3.31,1.59" fill="none" stroke="#fff" stroke-linecap="round" stroke-linejoin="round"/><path id="Stroke_19" data-name="Stroke 19" d="M15.25,32.12c-1.11.52-2.24,1-3.31,1.6" fill="none" stroke="#fff" stroke-linecap="round" stroke-linejoin="round"/></g></g></g></svg>