<svg xmlns="http://www.w3.org/2000/svg" width="28.132" height="35.56" viewBox="0 0 28.132 35.56">
  <g id="Group_11" data-name="Group 11" transform="translate(-0.219 -0.22)">
    <path id="Stroke_1" data-name="Stroke 1" d="M1.41.721A.69.69,0,1,1,.721.03.689.689,0,0,1,1.41.721Z" transform="translate(8.563 9.53)" fill="none" stroke="#fff" stroke-linecap="round" stroke-linejoin="round" stroke-miterlimit="10" stroke-width="1"/>
    <path id="Stroke_3" data-name="Stroke 3" d="M1.41.721A.69.69,0,1,1,.719.03.689.689,0,0,1,1.41.721Z" transform="translate(18.692 9.53)" fill="none" stroke="#fff" stroke-linecap="round" stroke-linejoin="round" stroke-miterlimit="10" stroke-width="1"/>
    <path id="Stroke_5" data-name="Stroke 5" d="M27.132,24.85a2.743,2.743,0,0,1-2.71,2.759H2.714A2.747,2.747,0,0,1,0,24.85L3.452,2.76A2.748,2.748,0,0,1,6.166,0H20.972a2.744,2.744,0,0,1,2.71,2.76Z" transform="translate(0.719 7.671)" fill="none" stroke="#fff" stroke-linecap="round" stroke-linejoin="round" stroke-miterlimit="10" stroke-width="1"/>
    <path id="Stroke_7" data-name="Stroke 7" d="M.971,6.046a4.279,4.279,0,0,1-.893-3.43A3.2,3.2,0,0,1,5.423.866c.138.12.269.252.423.389A3.785,3.785,0,0,1,7.825.073,3.278,3.278,0,0,1,11.6,4.216a6.412,6.412,0,0,1-1.359,2.475A18.888,18.888,0,0,1,6.132,10.3a.59.59,0,0,1-.526.029A17.366,17.366,0,0,1,.971,6.046Z" transform="translate(8.432 17.133)" fill="none" stroke="#fff" stroke-miterlimit="10" stroke-width="1"/>
    <path id="Stroke_9" data-name="Stroke 9" d="M0,8.682V6.039C0,1.794,2.225,0,4.969,0S9.939,1.794,9.939,6.039V8.682" transform="translate(9.387 0.72)" fill="none" stroke="#fff" stroke-linecap="round" stroke-linejoin="round" stroke-miterlimit="10" stroke-width="1"/>
  </g>
</svg>
