<svg id="レイヤー_1" data-name="レイヤー 1" xmlns="http://www.w3.org/2000/svg" width="44" height="32" viewBox="0 0 44 32"><g id="Page-1"><g id="Liver_7-1-1_配信_開始前案内1_-Copy" data-name="Liver 7-1-1 配信 開始前案内1 -Copy"><g id="sound_active" data-name="sound active"><path id="Stroke-1" d="M13.15,25.26a5.93,5.93,0,0,1,3.22,1.12l5.78,4.53c.47.23.85,0,.85-.51V1.6c0-.51-.38-.74-.85-.51L16.21,7.27a4.87,4.87,0,0,1-3.06,1.32H9.09A8.21,8.21,0,0,0,1,16.92H1a8.21,8.21,0,0,0,8.08,8.34h4.07Z" fill="none" stroke="#6cf"/><path id="Stroke-3" d="M31,11a5.76,5.76,0,0,1,6,5.5A5.76,5.76,0,0,1,31,22" fill="none" stroke="#6cf"/><path id="Stroke-5" d="M30,3a13,13,0,0,1,0,26" fill="none" stroke="#6cf"/></g></g></g></svg>