<?xml version="1.0" encoding="UTF-8"?>
<svg width="31px" height="48px" viewBox="0 0 31 48" version="1.1" xmlns="http://www.w3.org/2000/svg" xmlns:xlink="http://www.w3.org/1999/xlink">
    <!-- Generator: Sketch 61.2 (89653) - https://sketch.com -->
    <title>tate-off</title>
    <desc>Created with Sketch.</desc>
    <g id="Page-1" stroke="none" stroke-width="1" fill="none" fill-rule="evenodd" opacity="0.300000012" stroke-linecap="round" stroke-linejoin="round">
        <g id="Liver_7-1-1_配信（開始前案内1）-Copy" transform="translate(-318.000000, -539.000000)" stroke="#FFFFFF">
            <g id="tate-off" transform="translate(319.000000, 540.000000)">
                <line x1="11" y1="17" x2="19" y2="17" id="Stroke-1"></line>
                <path d="M21.0803633,18.5568526 C21.0571736,18.5568526 21.0353091,18.562962 21.0124507,18.5648711 C21.1744472,16.6446202 20.599343,14.5353607 18.8958949,14.0790672 C18.3277476,13.2737761 17.0963752,13 15.9766447,13 C13.5543163,13 10.9998068,14.1481795 10.9593904,17.0088913 L10.9593904,18.5614346 C10.9458079,18.5610528 10.9335505,18.5568526 10.9196367,18.5568526 C10.4121139,18.5568526 10,19.0314742 10,19.616828 L10,20.222801 C10,20.8081549 10.4121139,21.2827765 10.9196367,21.2827765 C10.9342131,21.2827765 10.9477956,21.2785763 10.9620407,21.2778126 C10.9905309,24.4436111 13.2233664,27 15.9766447,27 C18.7309168,27 20.9647462,24.4405564 20.9909174,21.2720851 C21.0207327,21.2755216 21.0498854,21.2827765 21.0803633,21.2827765 C21.5882174,21.2827765 22,20.8081549 22,20.222801 L22,19.616828 C22,19.0314742 21.5882174,18.5568526 21.0803633,18.5568526 Z" id="Stroke-2"></path>
                <path d="M13,27 L13,28.9550813 L9.19659391,29.9753506 C9.19659391,29.9753506 6,30.8380784 6,34" id="Stroke-4"></path>
                <path d="M19,27 L19,28.9550813 L22.8032527,29.9753506 C22.8032527,29.9753506 26,30.8380784 26,34" id="Stroke-6"></path>
                <path d="M14,23 C14.3204538,24.1717722 15.0932229,25 15.9996933,25 C16.9067771,25 17.6795462,24.1717722 18,23 L14,23 Z" id="Stroke-8"></path>
                <path d="M10,12 C10,13.6569945 8.59814075,15 6.8693224,15 L3.1306776,15 C1.40221272,15 0,13.6569945 0,12 C0,10.3433442 1.40221272,9 3.1306776,9 L6.8693224,9 C8.59814075,9 10,10.3433442 10,12 Z" id="Stroke-10"></path>
                <path d="M5,15 C5,15 5.51139471,15.5736856 6,16" id="Stroke-12"></path>
                <path d="M29,6.98046875 L29,3 C29,1.343 27.657,0 26,0 L6,0 C4.343,0 3,1.343 3,3 C3,4.81518921 3,6.14201213 3,6.98046875 C3,12.0712443 3,16.0292522 3,18.8544922 C3,24.2201606 3,32.2686632 3,43 C3,44.657 4.343,46 6,46 L26,46 C27.657,46 29,44.657 29,43 L29,17" id="Stroke-1" transform="translate(16.000000, 23.000000) scale(-1, 1) translate(-16.000000, -23.000000) "></path>
                <line x1="3" y1="39" x2="29" y2="39" id="Stroke-3"></line>
                <line x1="3" y1="6" x2="29" y2="6" id="Stroke-5"></line>
                <line x1="14" y1="42" x2="18" y2="42" id="Stroke-7"></line>
            </g>
        </g>
    </g>
</svg>