<svg id="レイヤー_1" data-name="レイヤー 1" xmlns="http://www.w3.org/2000/svg" width="31" height="48" viewBox="0 0 31 48"><g id="Page-1"><g id="Liver_7-1-1_配信_開始前案内1_-Copy" data-name="Liver 7-1-1 配信 開始前案内1 -Copy"><g id="tate-on"><line id="Stroke-1" x1="12" y1="18" x2="20" y2="18" fill="none" stroke="#6cf" stroke-linecap="round" stroke-linejoin="round"/><path id="Stroke-2" d="M22.08,19.56H22c.16-1.92-.41-4-2.11-4.48A3.55,3.55,0,0,0,17,14c-2.43,0-5,1.15-5,4v1.55h0a1,1,0,0,0-1,1v.67a1,1,0,0,0,.92,1.06h0C12,25.44,14.22,28,17,28s5-2.56,5-5.73h.09A1,1,0,0,0,23,21.22v-.6A1,1,0,0,0,22.08,19.56Z" fill="none" stroke="#6cf" stroke-linecap="round" stroke-linejoin="round"/><path id="Stroke-4" d="M14,28v2l-3.8,1S7,31.84,7,35" fill="none" stroke="#6cf" stroke-linecap="round" stroke-linejoin="round"/><path id="Stroke-6" d="M20,28v2l3.8,1s3.2.86,3.2,4" fill="none" stroke="#6cf" stroke-linecap="round" stroke-linejoin="round"/><path id="Stroke-8" d="M15,24c.32,1.17,1.09,2,2,2s1.68-.83,2-2Z" fill="none" stroke="#6cf" stroke-linecap="round" stroke-linejoin="round"/><path id="Stroke-10" d="M11,13a3.06,3.06,0,0,1-3.12,3H4.13a3,3,0,0,1,0-6H7.87A3.06,3.06,0,0,1,11,13Z" fill="none" stroke="#6cf" stroke-linecap="round" stroke-linejoin="round"/><path id="Stroke-12" d="M6,16c.32.35.65.68,1,1" fill="none" stroke="#6cf" stroke-linecap="round" stroke-linejoin="round"/><path id="Stroke-1-2" d="M4,8V4A3,3,0,0,1,7,1H27a3,3,0,0,1,3,3V44a3,3,0,0,1-3,3H7a3,3,0,0,1-3-3V18" fill="none" stroke="#6cf" stroke-linecap="round" stroke-linejoin="round"/><line id="Stroke-3" x1="4" y1="40" x2="30" y2="40" fill="none" stroke="#6cf" stroke-linecap="round" stroke-linejoin="round"/><line id="Stroke-5" x1="4" y1="7" x2="30" y2="7" fill="none" stroke="#6cf" stroke-linecap="round" stroke-linejoin="round"/><line id="Stroke-7" x1="15" y1="43" x2="19" y2="43" fill="none" stroke="#6cf" stroke-linecap="round" stroke-linejoin="round"/></g></g></g></svg>