<svg xmlns="http://www.w3.org/2000/svg" width="40.2" height="29.012" viewBox="0 0 40.2 29.012">
  <g id="Group_7" data-name="Group 7" transform="translate(0.5 0.506)">
    <path id="Stroke_1" data-name="Stroke 1" d="M11.339,22.643a5.706,5.706,0,0,1,3.009,1.044l5.391,4.229a.5.5,0,0,0,.794-.482V.562a.5.5,0,0,0-.794-.48L14.192,5.853a4.544,4.544,0,0,1-2.853,1.227H7.549A7.668,7.668,0,0,0,0,14.863a7.668,7.668,0,0,0,7.549,7.78Z" fill="none" stroke="#fff" stroke-linecap="round" stroke-linejoin="round" stroke-miterlimit="10" stroke-width="1"/>
    <path id="Stroke_3" data-name="Stroke 3" d="M0,0A5.379,5.379,0,0,1,5.6,5.133,5.382,5.382,0,0,1,0,10.267" transform="translate(28 9.333)" fill="none" stroke="#fff" stroke-linecap="round" stroke-linejoin="round" stroke-miterlimit="10" stroke-width="1"/>
    <path id="Stroke_5" data-name="Stroke 5" d="M0,0A12.127,12.127,0,0,1,12.133,12.132,12.133,12.133,0,0,1,0,24.267" transform="translate(27.067 1.867)" fill="none" stroke="#fff" stroke-linecap="round" stroke-linejoin="round" stroke-miterlimit="10" stroke-width="1"/>
  </g>
</svg>
