<svg id="レイヤー_1" data-name="レイヤー 1" xmlns="http://www.w3.org/2000/svg" width="48" height="29" viewBox="0 0 48 29"><g id="Page-1"><g id="Liver_7-1-1_配信_開始前案内1_-Copy" data-name="Liver 7-1-1 配信 開始前案内1 -Copy"><g id="yoko-on"><line id="Stroke-1" x1="19" y1="9" x2="27" y2="9" fill="none" stroke="#6cf" stroke-linecap="round" stroke-linejoin="round"/><path id="Stroke-2" d="M29.08,10.56H29c.16-1.92-.41-4-2.11-4.48A3.55,3.55,0,0,0,24,5c-2.43,0-5,1.15-5,4v1.55h0a1,1,0,0,0-1,1v.67a1,1,0,0,0,.92,1.06h0C19,16.44,21.22,19,24,19s5-2.56,5-5.73h.09a1,1,0,0,0,.91-1v-.6A1,1,0,0,0,29.08,10.56Z" fill="none" stroke="#6cf" stroke-linecap="round" stroke-linejoin="round"/><path id="Stroke-4" d="M21,19v2l-3.8,1s-3.2.86-3.2,4" fill="none" stroke="#6cf" stroke-linecap="round" stroke-linejoin="round"/><path id="Stroke-6" d="M27,19v2l3.8,1s3.2.86,3.2,4" fill="none" stroke="#6cf" stroke-linecap="round" stroke-linejoin="round"/><path id="Stroke-8" d="M22,15c.32,1.17,1.09,2,2,2s1.68-.83,2-2Z" fill="none" stroke="#6cf" stroke-linecap="round" stroke-linejoin="round"/><path id="Stroke-10" d="M18,4a3.06,3.06,0,0,1-3.12,3H11.13A3.06,3.06,0,0,1,8,4H8a3.06,3.06,0,0,1,3.12-3h3.75A3.06,3.06,0,0,1,18,4Z" fill="none" stroke="#6cf" stroke-linecap="round" stroke-linejoin="round"/><path id="Stroke-12" d="M13,7c.32.35.65.68,1,1" fill="none" stroke="#6cf" stroke-linecap="round" stroke-linejoin="round"/><path id="Stroke-1-2" d="M4,2A3,3,0,0,0,1,5V25a3,3,0,0,0,3,3H44a3,3,0,0,0,3-3V5a3,3,0,0,0-3-3H21.14" fill="none" stroke="#6cf" stroke-linecap="round"/><line id="Stroke-3" x1="40" y1="28" x2="40" y2="2" fill="none" stroke="#6cf" stroke-linecap="round"/><line id="Stroke-5" x1="7" y1="28" x2="7" y2="8" fill="none" stroke="#6cf" stroke-linecap="round"/><line id="Stroke-7" x1="43" y1="17" x2="43" y2="13" fill="none" stroke="#6cf" stroke-linecap="round"/></g></g></g></svg>