<?xml version="1.0" encoding="UTF-8"?>
<svg width="48px" height="29px" viewBox="0 0 48 29" version="1.1" xmlns="http://www.w3.org/2000/svg" xmlns:xlink="http://www.w3.org/1999/xlink">
    <!-- Generator: Sketch 61.2 (89653) - https://sketch.com -->
    <title>yoko-off</title>
    <desc>Created with Sketch.</desc>
    <g id="Page-1" stroke="none" stroke-width="1" fill="none" fill-rule="evenodd" opacity="0.300000012" stroke-linecap="round">
        <g id="Liver_7-1-1_配信（開始前案内1）-Copy" transform="translate(-246.000000, -391.000000)" stroke="#FFFFFF">
            <g id="yoko-off" transform="translate(247.000000, 392.000000)">
                <line x1="18" y1="8" x2="26" y2="8" id="Stroke-1" stroke-linejoin="round"></line>
                <path d="M28.0803633,9.55685258 C28.0571736,9.55685258 28.0353091,9.56296195 28.0124507,9.56487113 C28.1744472,7.64462021 27.599343,5.5353607 25.8958949,5.07906723 C25.3277476,4.27377608 24.0963752,4 22.9766447,4 C20.5543163,4 17.9998068,5.14817946 17.9593904,8.00889131 L17.9593904,9.56143461 C17.9458079,9.56105278 17.9335505,9.55685258 17.9196367,9.55685258 C17.4121139,9.55685258 17,10.0314742 17,10.616828 L17,11.222801 C17,11.8081549 17.4121139,12.2827765 17.9196367,12.2827765 C17.9342131,12.2827765 17.9477956,12.2785763 17.9620407,12.2778126 C17.9905309,15.4436111 20.2233664,18 22.9766447,18 C25.7309168,18 27.9647462,15.4405564 27.9909174,12.2720851 C28.0207327,12.2755216 28.0498854,12.2827765 28.0803633,12.2827765 C28.5882174,12.2827765 29,11.8081549 29,11.222801 L29,10.616828 C29,10.0314742 28.5882174,9.55685258 28.0803633,9.55685258 Z" id="Stroke-2" stroke-linejoin="round"></path>
                <path d="M20,18 L20,19.9550813 L16.1965939,20.9753506 C16.1965939,20.9753506 13,21.8380784 13,25" id="Stroke-4" stroke-linejoin="round"></path>
                <path d="M26,18 L26,19.9550813 L29.8032527,20.9753506 C29.8032527,20.9753506 33,21.8380784 33,25" id="Stroke-6" stroke-linejoin="round"></path>
                <path d="M21,14 C21.3204538,15.1717722 22.0932229,16 22.9996933,16 C23.9067771,16 24.6795462,15.1717722 25,14 L21,14 Z" id="Stroke-8" stroke-linejoin="round"></path>
                <path d="M17,3 C17,4.65699447 15.5981408,6 13.8693224,6 L10.1306776,6 C8.40221272,6 7,4.65699447 7,3 C7,1.34334425 8.40221272,0 10.1306776,0 L13.8693224,0 C15.5981408,0 17,1.34334425 17,3 Z" id="Stroke-10" stroke-linejoin="round"></path>
                <path d="M12,6 C12,6 12.5113947,6.57368564 13,7" id="Stroke-12" stroke-linejoin="round"></path>
                <path d="M36,-6 C36,-7.657 34.657,-9 33,-9 L13,-9 C11.343,-9 10,-7.657 10,-6 L10,34 C10,35.657 11.343,37 13,37 L33,37 C34.657,37 36,35.657 36,34 C36,23.0498911 36,15.4284718 36,11.1357422" id="Stroke-1" transform="translate(23.000000, 14.000000) rotate(-90.000000) translate(-23.000000, -14.000000) "></path>
                <line x1="26" y1="14" x2="52" y2="14" id="Stroke-3" transform="translate(39.000000, 14.000000) rotate(-90.000000) translate(-39.000000, -14.000000) "></line>
                <line x1="-4" y1="17" x2="16" y2="17" id="Stroke-5" transform="translate(6.000000, 17.000000) rotate(-90.000000) translate(-6.000000, -17.000000) "></line>
                <line x1="40" y1="14" x2="44" y2="14" id="Stroke-7" transform="translate(42.000000, 14.000000) rotate(-90.000000) translate(-42.000000, -14.000000) "></line>
            </g>
        </g>
    </g>
</svg>