<svg xmlns="http://www.w3.org/2000/svg" xmlns:xlink="http://www.w3.org/1999/xlink" width="23.31" height="20" viewBox="0 0 23.31 20"><defs><linearGradient id="名称未設定グラデーション_3" x1="-216.03" y1="745.97" x2="-216.03" y2="744.97" gradientTransform="matrix(23.31, 0, 0, -17.22, 5047.8, 12848.14)" gradientUnits="userSpaceOnUse"><stop offset="0" stop-color="#4cb7e9"/><stop offset="1" stop-color="#0082b9"/></linearGradient></defs><g id="レイヤー_2" data-name="レイヤー 2"><g id="レイヤー_1-2" data-name="レイヤー 1"><g id="グループ_3" data-name="グループ 3"><line id="線_1" data-name="線 1" x1="18.11" y1="4.82" x2="18.11" y2="1" fill="none" stroke="#4ab5e7" stroke-linecap="round" stroke-linejoin="round" stroke-width="2"/><line id="線_2" data-name="線 2" x1="13.47" y1="1" x2="13.47" y2="4.82" fill="none" stroke="#4ab5e7" stroke-linecap="round" stroke-linejoin="round" stroke-width="2"/><line id="線_3" data-name="線 3" x1="8.84" y1="1" x2="8.84" y2="4.82" fill="none" stroke="#4ab5e7" stroke-linecap="round" stroke-linejoin="round" stroke-width="2"/><line id="線_4" data-name="線 4" x1="4.2" y1="4.82" x2="4.2" y2="1" fill="none" stroke="#4ab5e7" stroke-linecap="round" stroke-linejoin="round" stroke-width="2"/></g><path id="中マド_1" data-name="中マド 1" d="M21.13,20H2.18A2.19,2.19,0,0,1,0,17.82V5A2.19,2.19,0,0,1,2.18,2.78h19A2.19,2.19,0,0,1,23.31,5V17.82A2.19,2.19,0,0,1,21.13,20Zm-9.47-6.23h0l.31.17L14,15l-.4-2.32,0-.3.21-.26,1.66-1.6-2.24-.33-.35,0-.13-.28-1-2.1-.94,2.1-.22.28-.28,0-2.31.33,1.56,1.6.31.26,0,.3L9.34,15l1.94-1,.38-.2Z" fill="url(#名称未設定グラデーション_3)"/></g></g></svg>