<svg xmlns="http://www.w3.org/2000/svg" width="24.31" height="20" viewBox="0 0 24.31 20"><g id="レイヤー_2" data-name="レイヤー 2"><g id="レイヤー_1-2" data-name="レイヤー 1"><g id="グループ_1" data-name="グループ 1"><rect id="長方形_8" data-name="長方形 8" x="1" y="2.78" width="22.31" height="16.22" rx="2.18" fill="none" stroke="#999" stroke-linecap="round" stroke-linejoin="round" stroke-width="2"/><line id="線_1" data-name="線 1" x1="19.11" y1="4.82" x2="19.11" y2="1" fill="none" stroke="#999" stroke-linecap="round" stroke-linejoin="round" stroke-width="2"/><line id="線_2" data-name="線 2" x1="14.47" y1="1" x2="14.47" y2="4.82" fill="none" stroke="#999" stroke-linecap="round" stroke-linejoin="round" stroke-width="2"/><line id="線_3" data-name="線 3" x1="9.84" y1="1" x2="9.84" y2="4.82" fill="none" stroke="#999" stroke-linecap="round" stroke-linejoin="round" stroke-width="2"/><line id="線_4" data-name="線 4" x1="5.2" y1="4.82" x2="5.2" y2="1" fill="none" stroke="#999" stroke-linecap="round" stroke-linejoin="round" stroke-width="2"/><path id="パス_1" data-name="パス 1" d="M12.15,7.48l1,2,.13.26.33,0,2.15.31-1.59,1.5-.2.25,0,.28.38,2.18-1.91-1-.3-.16-.36.19-1.86,1,.38-2.18,0-.29-.3-.24-1.49-1.5,2.22-.31.26,0,.21-.26Z" fill="none" stroke="#999" stroke-linecap="round" stroke-linejoin="round" stroke-width="2"/></g></g></g></svg>