<svg xmlns="http://www.w3.org/2000/svg" xmlns:xlink="http://www.w3.org/1999/xlink" width="21.2" height="21.2" viewBox="0 0 21.2 21.2">
  <defs>
    <linearGradient id="linear-gradient" x1="0.5" x2="0.5" y2="1" gradientUnits="objectBoundingBox">
      <stop offset="0" stop-color="#4cb7e9"/>
      <stop offset="1" stop-color="#0082b9"/>
    </linearGradient>
    <clipPath id="clip-path">
      <path id="Mask" d="M9.6,19.2A9.6,9.6,0,1,0,0,9.6,9.6,9.6,0,0,0,9.6,19.2Z" transform="translate(0 0)" fill="url(#linear-gradient)"/>
    </clipPath>
  </defs>
  <g id="menu_04" transform="translate(0.6 0.6)">
    <path id="Stroke_1" data-name="Stroke 1" d="M9.6,19.2A9.6,9.6,0,1,0,0,9.6,9.6,9.6,0,0,0,9.6,19.2Z" transform="translate(0.4 0.4)" stroke="#707070" stroke-linecap="round" stroke-linejoin="round" stroke-miterlimit="10" stroke-width="2" fill="url(#linear-gradient)"/>
    <g id="Stroke_9" data-name="Stroke 9" transform="translate(0.4 0.4)">
      <path id="Mask-2" data-name="Mask" d="M9.6,19.2A9.6,9.6,0,1,0,0,9.6,9.6,9.6,0,0,0,9.6,19.2Z" transform="translate(0 0)" fill="url(#linear-gradient)"/>
      <g id="Stroke_9-2" data-name="Stroke 9" clip-path="url(#clip-path)">
        <path id="Stroke_9-3" data-name="Stroke 9" d="M13.964,7.946V3.47C13.964,1.128,9.338,0,6.982,0S0,1.128,0,3.47V7.946" transform="translate(2.618 12.655)" fill="#262626" stroke="#262626" stroke-linecap="round" stroke-linejoin="round" stroke-miterlimit="10" stroke-width="2"/>
      </g>
    </g>
    <path id="Stroke_3" data-name="Stroke 3" d="M3.044,6.094A3.047,3.047,0,1,0,0,3.047,3.054,3.054,0,0,0,3.044,6.094Z" transform="translate(6.945 5.2)" fill="#262626" stroke="#262626" stroke-linecap="round" stroke-linejoin="round" stroke-miterlimit="10" stroke-width="2"/>
  </g>
</svg>
