<svg xmlns="http://www.w3.org/2000/svg" width="19.76" height="25.041" viewBox="0 0 19.76 25.041">
  <g id="Group_7" data-name="Group 7" transform="translate(0.529 0.52)">
    <path id="Stroke_1" data-name="Stroke 1" d="M2.588,12.573s-.187.384-.416.86L.067,17.82c-.173.364,0,.661.388.661H17.289c.386,0,.56-.3.388-.661l-2.106-4.386a5.033,5.033,0,0,1-.416-1.825V6.282a6.283,6.283,0,0,0-12.566,0v6.291Z" transform="translate(0.48 2.81)" fill="none" stroke="#fff" stroke-linecap="round" stroke-linejoin="round" stroke-miterlimit="10" stroke-width="2"/>
    <path id="Stroke_3" data-name="Stroke 3" d="M4.946,0A2.314,2.314,0,0,1,2.473,2.28,2.316,2.316,0,0,1,0,0" transform="translate(6.879 21.241)" fill="none" stroke="#fff" stroke-linejoin="round" stroke-miterlimit="10" stroke-width="2"/>
    <path id="Stroke_5" data-name="Stroke 5" d="M0,2.555v-.89a1.665,1.665,0,0,1,3.33,0v.891" transform="translate(7.686 0.48)" fill="none" stroke="#fff" stroke-linecap="round" stroke-linejoin="round" stroke-miterlimit="10" stroke-width="2"/>
  </g>
</svg>
