<svg xmlns="http://www.w3.org/2000/svg" width="18.28" height="18.28" viewBox="0 0 18.28 18.28">
  <g id="Group_7" data-name="Group 7" transform="translate(0.14 0.14)">
    <path id="Stroke_1" data-name="Stroke 1" d="M17.28,8.64a8.64,8.64,0,1,0-8.64,8.64A8.641,8.641,0,0,0,17.28,8.64Z" transform="translate(0.36 0.36)" fill="none" stroke="#2d3845" stroke-linecap="round" stroke-linejoin="round" stroke-miterlimit="10" stroke-width="1"/>
    <path id="Stroke_3" data-name="Stroke 3" d="M2.357,7.069A3.3,3.3,0,0,1,3.739,4.416a2.319,2.319,0,0,0,.973-1.976A2.4,2.4,0,0,0,2.357,0,2.327,2.327,0,0,0,0,2.357" transform="translate(6.644 4.243)" fill="none" stroke="#2d3845" stroke-linecap="round" stroke-linejoin="round" stroke-miterlimit="10" stroke-width="1"/>
    <path id="Stroke_5" data-name="Stroke 5" d="M.364.338.356.382" transform="translate(8.636 13.331)" fill="none" stroke="#2d3845" stroke-linecap="round" stroke-linejoin="round" stroke-miterlimit="10" stroke-width="1"/>
  </g>
</svg>
