<?xml version="1.0" encoding="UTF-8"?>
<svg width="16px" height="20px" viewBox="0 0 16 20" version="1.1" xmlns="http://www.w3.org/2000/svg" xmlns:xlink="http://www.w3.org/1999/xlink">
    <!-- Generator: Sketch 61.2 (89653) - https://sketch.com -->
    <title>bell_on</title>
    <desc>Created with Sketch.</desc>
    <g id="Page-1" stroke="none" stroke-width="1" fill="none" fill-rule="evenodd">
        <g id="6-6-1_フォロー中" transform="translate(-245.000000, -96.000000)" fill="#4CB7E9">
            <g id="bell_on" transform="translate(245.000000, 96.000000)">
                <path d="M2.55688,12.81888 C2.55688,12.81648 2.40088,13.13888 2.21048,13.53568 L0.45528,17.19088 C0.31128,17.49408 0.45768,17.74208 0.77848,17.74208 L14.80728,17.74208 C15.12888,17.74208 15.27368,17.49408 15.13048,17.19088 L13.37528,13.53568 C13.18488,13.13888 13.02888,12.45408 13.02888,12.01488 L13.02888,7.57648 C13.02888,4.68528 10.68488,2.34128 7.79288,2.34128 C4.90088,2.34128 2.55688,4.68528 2.55688,7.57648 L2.55688,12.02368 L2.55688,12.81888 Z" id="Stroke-1"></path>
                <path d="M9.85376,17.70056 C9.85376,18.83896 8.93376,19.60056 7.79296,19.60056 C6.65536,19.60056 5.73216,18.83896 5.73216,17.70056" id="Stroke-3"></path>
                <path d="M6.40536,2.52864 L6.40536,1.78704 C6.40536,1.02064 7.02616,0.39984 7.79256,0.39984 C8.55896,0.39984 9.18056,1.02064 9.18056,1.78704 L9.18056,2.52944" id="Stroke-5"></path>
            </g>
        </g>
    </g>
</svg>