<svg xmlns="http://www.w3.org/2000/svg" width="25.999" height="24.227" viewBox="0 0 25.999 24.227">
  <g id="Group_9" data-name="Group 9" transform="translate(0.5 0.499)">
    <path id="Stroke_1" data-name="Stroke 1" d="M1.437,11.133A1.43,1.43,0,0,1,0,9.72V1.412A1.429,1.429,0,0,1,1.437,0H17.431a1.429,1.429,0,0,1,1.437,1.412V9.72a1.431,1.431,0,0,1-1.437,1.413Z" transform="translate(0.5 11.595)" fill="none" stroke="#f5f5f5" stroke-linecap="round" stroke-linejoin="round" stroke-miterlimit="10" stroke-width="2"/>
    <path id="Stroke_3" data-name="Stroke 3" d="M3.246,6.492A3.246,3.246,0,1,1,6.492,3.246,3.248,3.248,0,0,1,3.246,6.492Z" transform="translate(0.553 2.993)" fill="none" stroke="#f5f5f5" stroke-linecap="round" stroke-linejoin="round" stroke-miterlimit="10" stroke-width="2"/>
    <path id="Stroke_5" data-name="Stroke 5" d="M4.492,8.984A4.492,4.492,0,1,1,8.984,4.492,4.5,4.5,0,0,1,4.492,8.984Z" transform="translate(9.277 0.501)" fill="none" stroke="#f5f5f5" stroke-linecap="round" stroke-linejoin="round" stroke-miterlimit="10" stroke-width="2"/>
    <path id="Stroke_7" data-name="Stroke 7" d="M0,5.269,3.849,8.454a.9.9,0,0,0,1.3-.8V.9a.9.9,0,0,0-1.4-.748L0,3.472" transform="translate(19.351 12.734)" fill="none" stroke="#f5f5f5" stroke-linecap="round" stroke-linejoin="round" stroke-miterlimit="10" stroke-width="2"/>
  </g>
</svg>
