<svg xmlns="http://www.w3.org/2000/svg" width="37.297" height="31.567" viewBox="0 0 37.297 31.567">
  <g id="Group_24" data-name="Group 24" transform="translate(0 0)">
    <path id="Fill_1" data-name="Fill 1" d="M31.121,22.249H10.912L7.292,4.145,0,1.62.561,0,8.78,2.845l.6,3.016,24.736.06-3,16.327ZM9.727,7.577l2.591,12.957H29.693l2.371-12.9Z" transform="translate(2.25 0.817)" fill="#fff"/>
    <path id="Fill_2" data-name="Fill 2" d="M1.392,14.824,0,.162,1.707,0,3.1,14.662Z" transform="translate(15.349 7.465)" fill="#fff"/>
    <path id="Fill_3" data-name="Fill 3" d="M.647,14.727,0,.076,1.713,0,2.36,14.651Z" transform="translate(19.969 7.519)" fill="#fff"/>
    <path id="Fill_4" data-name="Fill 4" d="M1.714,14.685,0,14.641.373,0,2.087.044Z" transform="translate(24.296 7.535)" fill="#fff"/>
    <path id="Fill_5" data-name="Fill 5" d="M1.7,14.262,0,14.07,1.591,0l1.7.193Z" transform="translate(28.027 8.043)" fill="#fff"/>
    <path id="Fill_6" data-name="Fill 6" d="M0,1.715H22.5V0H0Z" transform="translate(11.933 11.685)" fill="#fff"/>
    <path id="Fill_7" data-name="Fill 7" d="M0,1.715H20.865V0H0Z" transform="translate(12.785 15.95)" fill="#fff"/>
    <path id="Fill_8" data-name="Fill 8" d="M24.4,5.106H0l.035-.891C.157,1.159,3.622.045,3.769,0l.51,1.637L4.024.818l.258.818A4.4,4.4,0,0,0,1.988,3.391H24.4Z" transform="translate(9.245 21.39)" fill="#fff"/>
    <path id="Fill_10" data-name="Fill 10" d="M0,2.038A2.144,2.144,0,0,0,2.237,4.076,2.144,2.144,0,0,0,4.474,2.038,2.144,2.144,0,0,0,2.237,0,2.144,2.144,0,0,0,0,2.038" transform="translate(11.932 26.633)" fill="#ed3232"/>
    <path id="Fill_12" data-name="Fill 12" d="M3.094,5.791A3,3,0,0,1,0,2.9,3,3,0,0,1,3.094,0,3,3,0,0,1,6.188,2.9,3,3,0,0,1,3.094,5.791Zm0-4.076A1.294,1.294,0,0,0,1.714,2.9,1.294,1.294,0,0,0,3.094,4.076,1.293,1.293,0,0,0,4.474,2.9,1.293,1.293,0,0,0,3.094,1.715Z" transform="translate(11.075 25.776)" fill="#fff"/>
    <path id="Fill_14" data-name="Fill 14" d="M0,2.038A2.144,2.144,0,0,0,2.237,4.076,2.144,2.144,0,0,0,4.474,2.038,2.144,2.144,0,0,0,2.237,0,2.144,2.144,0,0,0,0,2.038" transform="translate(28.383 26.633)" fill="#ed3232"/>
    <path id="Fill_16" data-name="Fill 16" d="M3.094,5.791A3,3,0,0,1,0,2.9,3,3,0,0,1,3.094,0,3,3,0,0,1,6.188,2.9,3,3,0,0,1,3.094,5.791Zm0-4.076A1.293,1.293,0,0,0,1.715,2.9a1.293,1.293,0,0,0,1.38,1.181A1.293,1.293,0,0,0,4.474,2.9,1.293,1.293,0,0,0,3.094,1.715Z" transform="translate(27.526 25.776)" fill="#fff"/>
    <path id="Fill_18" data-name="Fill 18" d="M5.714,1.4A1.412,1.412,0,0,1,6.726,3.106a1.413,1.413,0,0,1-1.846.727L1.072,2.528A1.411,1.411,0,0,1,.06.822,1.412,1.412,0,0,1,1.905.095Z" transform="translate(0 0)" fill="#ed3232"/>
    <path id="Fill_21" data-name="Fill 21" d="M25.672.984a.984.984,0,0,1-.984.984H.4L0,0H24.688a.984.984,0,0,1,.984.984" transform="translate(11.625 6.608)" fill="#ed3232"/>
  </g>
</svg>
