<svg id="Group" xmlns="http://www.w3.org/2000/svg" width="32" height="26.965" viewBox="0 0 32 26.965">
  <path id="Stroke_1" data-name="Stroke 1" d="M29.868,0A2.121,2.121,0,0,1,32,2.1V18.869a2.121,2.121,0,0,1-2.132,2.1H24.727l-.485,6-5.092-6H2.133A2.122,2.122,0,0,1,0,18.869V2.1A2.122,2.122,0,0,1,2.133,0Z" transform="translate(0 0)" fill="#5df1ff"/>
  <path id="Stroke_3" data-name="Stroke 3" d="M1.384.692A.692.692,0,1,1,.692,0,.691.691,0,0,1,1.384.692Z" transform="translate(10.511 9.79)" fill="none" stroke="#394757" stroke-linecap="round" stroke-linejoin="round" stroke-miterlimit="10" stroke-width="1"/>
  <path id="Stroke_5" data-name="Stroke 5" d="M1.384.692A.692.692,0,1,1,.692,0,.691.691,0,0,1,1.384.692Z" transform="translate(15.476 9.79)" fill="none" stroke="#394757" stroke-linecap="round" stroke-linejoin="round" stroke-miterlimit="10" stroke-width="1"/>
  <path id="Stroke_7" data-name="Stroke 7" d="M1.384.692A.692.692,0,1,1,.692,0,.691.691,0,0,1,1.384.692Z" transform="translate(20.104 9.79)" fill="none" stroke="#394757" stroke-linecap="round" stroke-linejoin="round" stroke-miterlimit="10" stroke-width="1"/>
</svg>
