<svg xmlns="http://www.w3.org/2000/svg" xmlns:xlink="http://www.w3.org/1999/xlink" width="312.129" height="28" viewBox="0 0 312.129 28">
  <defs>
    <clipPath id="clip-path">
      <path id="パス_507" data-name="パス 507" d="M881.771,108.24V110.6h2.594a1.874,1.874,0,0,0,.31-.03,1.184,1.184,0,0,0,0-2.3,1.913,1.913,0,0,0-.31-.03Z" transform="translate(-881.771 -108.24)" fill="none"/>
    </clipPath>
    <linearGradient id="linear-gradient" x1="-40.219" y1="55.004" x2="-40.173" y2="55.004" gradientUnits="objectBoundingBox">
      <stop offset="0" stop-color="#585858"/>
      <stop offset="0.104" stop-color="#606060"/>
      <stop offset="0.702" stop-color="#909090"/>
      <stop offset="1" stop-color="#a3a3a3"/>
    </linearGradient>
    <clipPath id="clip-path-2">
      <path id="パス_508" data-name="パス 508" d="M873.816,28.818a4.482,4.482,0,0,0-4.483,4.482v4.655h6.343c.147,0,.327.01.439.016,1.435.072,2.493.809,2.493,2.089a2.127,2.127,0,0,1-2.04,2.058v.052c1.455.1,2.568.9,2.568,2.162,0,1.364-1.222,2.242-2.852,2.242h-6.952v9.138h6.574a4.482,4.482,0,0,0,4.482-4.482V28.818Z" transform="translate(-869.333 -28.818)" fill="none"/>
    </clipPath>
    <linearGradient id="linear-gradient-2" x1="-13.685" y1="5.356" x2="-13.669" y2="5.356" xlink:href="#linear-gradient"/>
    <clipPath id="clip-path-3">
      <path id="パス_509" data-name="パス 509" d="M881.771,88.28v2.182h2.352a1.926,1.926,0,0,0,.256-.02,1.087,1.087,0,0,0,0-2.142,1.94,1.94,0,0,0-.256-.02Z" transform="translate(-881.771 -88.28)" fill="none"/>
    </clipPath>
    <linearGradient id="linear-gradient-3" x1="-43.738" y1="61.202" x2="-43.687" y2="61.202" xlink:href="#linear-gradient"/>
    <clipPath id="clip-path-4">
      <path id="パス_510" data-name="パス 510" d="M733.033,28.818a4.482,4.482,0,0,0-4.482,4.482V44.369a8.933,8.933,0,0,0,3.878,1.007,2.162,2.162,0,0,0,2.4-2.219v-5.2h3.855v5.2c0,2.034-1.249,3.665-5.533,3.665a19.27,19.27,0,0,1-4.6-.555v9.446h6.574a4.483,4.483,0,0,0,4.483-4.482V28.818Z" transform="translate(-728.551 -28.818)" fill="none"/>
    </clipPath>
    <linearGradient id="linear-gradient-4" x1="-11.444" y1="5.355" x2="-11.428" y2="5.355" gradientUnits="objectBoundingBox">
      <stop offset="0" stop-color="#0d0d0d"/>
      <stop offset="0.219" stop-color="#222"/>
      <stop offset="0.74" stop-color="#525252"/>
      <stop offset="1" stop-color="#656565"/>
    </linearGradient>
    <clipPath id="clip-path-5">
      <path id="パス_511" data-name="パス 511" d="M803.423,28.818a4.482,4.482,0,0,0-4.482,4.482v5.868c1.136-.974,3.1-1.582,6.291-1.439a20.35,20.35,0,0,1,3.519.534v1.9a8.753,8.753,0,0,0-3.394-.991c-2.422-.183-3.88,1-3.88,3.1s1.458,3.278,3.88,3.094a8.857,8.857,0,0,0,3.394-.99v1.9a20.364,20.364,0,0,1-3.519.535c-3.191.144-5.155-.465-6.291-1.439v10.35h6.575A4.483,4.483,0,0,0,810,51.23V28.818Z" transform="translate(-798.941 -28.818)" fill="none"/>
    </clipPath>
    <linearGradient id="linear-gradient-5" x1="-12.56" y1="5.356" x2="-12.545" y2="5.356" gradientUnits="objectBoundingBox">
      <stop offset="0"/>
      <stop offset="0.124" stop-color="#0a0a0a"/>
      <stop offset="0.709" stop-color="#3a3a3a"/>
      <stop offset="1" stop-color="#4d4d4d"/>
    </linearGradient>
    <clipPath id="clip-path-6">
      <path id="パス_555" data-name="パス 555" d="M224.493,76.448l-4.5,11.381-1.821-9.677a2.016,2.016,0,0,0-1.995-1.7h-7.361l-.1.485a18.083,18.083,0,0,1,4.268,1.423,1.83,1.83,0,0,1,1.028,1.468l3.449,13.346h4.572l7.009-16.722Zm6.4,0L227.315,93.17h4.326l3.577-16.722Zm24.8,4.518,1.311,6.279h-3.588Zm-.634-4.518a1.968,1.968,0,0,0-1.841,1.226l-6.491,15.5h4.541l.9-2.5h5.549l.523,2.5h4l-3.492-16.722ZM236.4,81.67c-.028,2.408,2.148,3.75,3.788,4.551,1.685.819,2.25,1.345,2.243,2.078-.012,1.123-1.344,1.617-2.589,1.637a9.044,9.044,0,0,1-4.443-1.057l-.783,3.665a13.1,13.1,0,0,0,4.81.888c4.545,0,7.517-2.244,7.531-5.721.019-4.413-6.1-4.657-6.06-6.628.014-.6.585-1.237,1.835-1.4a8.165,8.165,0,0,1,4.265.748l.76-3.546a11.629,11.629,0,0,0-4.047-.741c-4.275,0-7.285,2.273-7.309,5.528" transform="translate(-208.711 -76.142)" fill="none"/>
    </clipPath>
    <linearGradient id="linear-gradient-6" x1="-1.076" y1="12.277" x2="-1.071" y2="12.277" gradientUnits="objectBoundingBox">
      <stop offset="0"/>
      <stop offset="1" stop-color="#3a3a3a"/>
    </linearGradient>
    <clipPath id="clip-path-7">
      <path id="パス_627" data-name="パス 627" d="M1171.447,412.609a3.136,3.136,0,1,0,3.139-3.025,3.084,3.084,0,0,0-3.139,3.025" transform="translate(-1171.447 -409.584)" fill="none"/>
    </clipPath>
    <radialGradient id="radial-gradient" cx="0.5" cy="0.5" r="0.506" gradientTransform="matrix(0.978, 0, 0, -1, -0.829, 29.896)" gradientUnits="objectBoundingBox">
      <stop offset="0" stop-color="#f6f6f6"/>
      <stop offset="0.006" stop-color="#f6f6f6"/>
      <stop offset="0.177" stop-color="#ededed"/>
      <stop offset="0.458" stop-color="#d4d4d4"/>
      <stop offset="0.809" stop-color="#adadad"/>
      <stop offset="1" stop-color="#959595"/>
    </radialGradient>
  </defs>
  <g id="グループ_92" data-name="グループ 92" transform="translate(-264 -1818)">
    <g id="グループ_75" data-name="グループ 75" transform="translate(332.197 1818.96)">
      <g id="グループ_73" data-name="グループ 73" transform="translate(1.796 22.835)">
        <path id="パス_504" data-name="パス 504" d="M348.3,341.642v-1.786a1.059,1.059,0,0,0-1.119-1.131,1.1,1.1,0,0,0-1,.506,1.046,1.046,0,0,0-.941-.506.941.941,0,0,0-.834.422V338.8h-.619v2.845h.625v-1.577a.666.666,0,0,1,.7-.756c.411,0,.619.268.619.75v1.583h.625v-1.577a.671.671,0,0,1,.7-.756c.423,0,.625.268.625.75v1.583Zm9.251-2.845h-1.012v-.863h-.625v.863h-.578v.565h.578v1.3c0,.661.256,1.054.988,1.054a1.453,1.453,0,0,0,.774-.22l-.179-.53a1.145,1.145,0,0,1-.547.16c-.31,0-.411-.19-.411-.476v-1.286h1.012Zm5.281-.071a.84.84,0,0,0-.75.417V338.8h-.613v2.845h.619v-1.6c0-.47.2-.732.607-.732a1.008,1.008,0,0,1,.387.071l.191-.583a1.323,1.323,0,0,0-.441-.077Zm-7.983.3a2.131,2.131,0,0,0-1.161-.3c-.72,0-1.185.345-1.185.911,0,.464.345.75.982.84l.292.042c.339.048.5.137.5.3,0,.22-.226.345-.649.345a1.517,1.517,0,0,1-.946-.3l-.292.482a2.052,2.052,0,0,0,1.232.369c.822,0,1.3-.387,1.3-.928,0-.5-.375-.762-.994-.851l-.292-.042c-.268-.036-.482-.089-.482-.28,0-.208.2-.333.542-.333a1.835,1.835,0,0,1,.887.244Zm16.585-.3a.84.84,0,0,0-.75.417V338.8h-.613v2.845h.619v-1.6c0-.47.2-.732.607-.732a1.008,1.008,0,0,1,.387.071l.191-.583a1.323,1.323,0,0,0-.441-.077Zm-7.977,1.494a1.437,1.437,0,0,0,1.518,1.494,1.49,1.49,0,0,0,1.024-.339l-.3-.5a1.251,1.251,0,0,1-.744.256.912.912,0,0,1,0-1.822,1.251,1.251,0,0,1,.744.256l.3-.5a1.491,1.491,0,0,0-1.024-.339,1.437,1.437,0,0,0-1.518,1.494Zm5.8,0V338.8h-.619v.345a1.079,1.079,0,0,0-.9-.417,1.5,1.5,0,0,0,0,2.988,1.079,1.079,0,0,0,.9-.417v.345h.619Zm-2.3,0a.862.862,0,1,1,.863.911.854.854,0,0,1-.863-.911Zm-7.471-1.494a1.5,1.5,0,0,0,.042,2.988,1.73,1.73,0,0,0,1.167-.4l-.3-.458a1.357,1.357,0,0,1-.828.3.79.79,0,0,1-.851-.7h2.113c.006-.077.012-.155.012-.238a1.364,1.364,0,0,0-1.351-1.494Zm-.012.553a.707.707,0,0,1,.72.691h-1.476a.733.733,0,0,1,.756-.691Zm15.532.941v-2.566h-.619v1.488a1.079,1.079,0,0,0-.9-.417,1.5,1.5,0,0,0,0,2.988,1.08,1.08,0,0,0,.9-.417v.345H375Zm-2.3,0a.862.862,0,1,1,.863.911.854.854,0,0,1-.863-.911Zm-20.907,0V338.8h-.619v.345a1.079,1.079,0,0,0-.9-.417,1.5,1.5,0,0,0,0,2.988,1.079,1.079,0,0,0,.9-.417v.345h.619Zm-2.3,0a.862.862,0,1,1,.863.911A.854.854,0,0,1,349.483,340.219Z" transform="translate(-343.786 -337.653)"/>
      </g>
      <g id="グループ_74" data-name="グループ 74" transform="translate(0 0)">
        <rect id="長方形_41" data-name="長方形 41" width="9.377" height="16.852" transform="translate(12.651 2.291)" fill="#858585"/>
        <path id="パス_505" data-name="パス 505" d="M351,271.666a10.7,10.7,0,0,1,4.093-8.426,10.717,10.717,0,1,0,0,16.852A10.7,10.7,0,0,1,351,271.666Z" transform="translate(-337.754 -260.949)" fill="#494949"/>
        <path id="パス_506" data-name="パス 506" d="M413.339,271.666A10.717,10.717,0,0,1,396,280.092a10.719,10.719,0,0,0,0-16.852,10.717,10.717,0,0,1,17.339,8.426Z" transform="translate(-378.66 -260.949)" fill="#aaa"/>
      </g>
    </g>
    <g id="グループ_86" data-name="グループ 86" transform="translate(488.762 1818.961)">
      <g id="グループ_77" data-name="グループ 77" transform="translate(26.994 13.992)">
        <g id="グループ_76" data-name="グループ 76" transform="translate(0 0)" clip-path="url(#clip-path)">
          <rect id="長方形_42" data-name="長方形 42" width="3.817" height="2.364" transform="translate(0 0)" fill="url(#linear-gradient)"/>
        </g>
      </g>
      <g id="グループ_79" data-name="グループ 79" transform="translate(24.803 0)">
        <g id="グループ_78" data-name="グループ 78" transform="translate(0 0)" clip-path="url(#clip-path-2)">
          <rect id="長方形_43" data-name="長方形 43" width="11.057" height="26.895" transform="translate(0 0)" fill="url(#linear-gradient-2)"/>
        </g>
      </g>
      <g id="グループ_81" data-name="グループ 81" transform="translate(26.994 10.476)">
        <g id="グループ_80" data-name="グループ 80" transform="translate(0 0)" clip-path="url(#clip-path-3)">
          <rect id="長方形_44" data-name="長方形 44" width="3.51" height="2.182" transform="translate(0 0)" fill="url(#linear-gradient-3)"/>
        </g>
      </g>
      <g id="グループ_83" data-name="グループ 83" transform="translate(0 0)">
        <g id="グループ_82" data-name="グループ 82" transform="translate(0 0)" clip-path="url(#clip-path-4)">
          <rect id="長方形_45" data-name="長方形 45" width="11.057" height="26.895" transform="translate(0 0)" fill="url(#linear-gradient-4)"/>
        </g>
      </g>
      <g id="グループ_85" data-name="グループ 85" transform="translate(12.401 0)">
        <g id="グループ_84" data-name="グループ 84" transform="translate(0 0)" clip-path="url(#clip-path-5)">
          <rect id="長方形_46" data-name="長方形 46" width="11.057" height="26.895" transform="translate(0 0)" fill="url(#linear-gradient-5)"/>
        </g>
      </g>
    </g>
    <g id="グループ_88" data-name="グループ 88" transform="translate(433.795 1818)">
      <path id="パス_516" data-name="パス 516" d="M1239.361,55.336c4.433.02,8.481-3.616,8.481-8.04a8.283,8.283,0,0,0-8.481-8.18h-3.816a8,8,0,0,0-8.18,8.18,8.127,8.127,0,0,0,8.18,8.04Z" transform="translate(-1217.567 -39.116)" fill="#3c3c3c"/>
      <path id="パス_517" data-name="パス 517" d="M1239.721,53.747V44.963a4.7,4.7,0,0,1,0,8.785m-6.389-4.393a4.715,4.715,0,0,1,3.021-4.392v8.783a4.712,4.712,0,0,1-3.021-4.391m4.706-7.424a7.425,7.425,0,1,0,7.424,7.424,7.425,7.425,0,0,0-7.424-7.424" transform="translate(-1220.042 -41.259)" fill="#fff"/>
      <path id="パス_518" data-name="パス 518" d="M1188.02,114.755c0,.657.469.734.887.734a2.377,2.377,0,0,0,2.448-2.662,2.562,2.562,0,0,0-2.67-2.746c-.35,0-.511.025-.665.034Zm-.836-4c0-.768-.4-.716-.784-.725v-.222c.333.016.673.016,1.007.016.358,0,.844-.016,1.476-.016a3.108,3.108,0,0,1,3.412,2.986c0,.845-.495,2.968-3.516,2.968-.434,0-.835-.016-1.236-.016-.384,0-.76.008-1.143.016v-.221c.512-.052.759-.069.784-.649Z" transform="translate(-1186.37 -92.952)"/>
      <path id="パス_519" data-name="パス 519" d="M1213.286,110.246a.418.418,0,0,1,0-.836.418.418,0,0,1,.418.412.425.425,0,0,1-.418.425m-.913,4.992h.162c.239,0,.409,0,.409-.284v-2.312c0-.375-.128-.427-.443-.6v-.136c.4-.121.878-.281.913-.308a.3.3,0,0,1,.153-.044c.042,0,.059.052.059.121v3.275c0,.284.188.284.427.284h.144v.221c-.29,0-.589-.016-.895-.016s-.615.008-.93.016Z" transform="translate(-1206.15 -92.649)"/>
      <path id="パス_520" data-name="パス 520" d="M1221.628,119.561c0-.315-.094-.4-.494-.562v-.162a11.459,11.459,0,0,0,1.125-.411c.026,0,.051.018.051.086v.555a2.506,2.506,0,0,1,1.477-.641c.724,0,.98.53.98,1.2v2.2c0,.284.188.284.427.284h.154v.221c-.3,0-.6-.016-.9-.016s-.615.008-.922.016V122.1h.154c.239,0,.409,0,.409-.284v-2.208c0-.487-.3-.726-.785-.726a2.255,2.255,0,0,0-.99.411v2.523c0,.284.188.284.427.284h.153v.221c-.3,0-.6-.016-.9-.016s-.614.008-.921.016V122.1h.154c.239,0,.409,0,.409-.284Z" transform="translate(-1212.77 -99.514)"/>
      <path id="パス_521" data-name="パス 521" d="M1241.076,119.7c.213,0,.238-.111.238-.215a.723.723,0,0,0-.742-.783c-.52,0-.879.382-.98,1Zm-1.511.272a2.133,2.133,0,0,0,0,.495,1.425,1.425,0,0,0,1.253,1.476,1.635,1.635,0,0,0,1.152-.571l.119.119a2,2,0,0,1-1.577.964,1.713,1.713,0,0,1-1.629-1.86c0-1.672,1.125-2.168,1.722-2.168a1.355,1.355,0,0,1,1.442,1.341.942.942,0,0,1-.008.153l-.076.051Z" transform="translate(-1226.339 -99.514)"/>
      <path id="パス_522" data-name="パス 522" d="M1252.979,122.1h.231c.238,0,.409,0,.409-.284v-2.4c0-.265-.316-.317-.443-.385v-.127c.623-.265.964-.487,1.042-.487.05,0,.075.026.075.112v.768h.018c.213-.333.572-.88,1.092-.88a.466.466,0,0,1,.486.453.414.414,0,0,1-.4.435c-.265,0-.265-.206-.564-.206a.722.722,0,0,0-.622.709v2c0,.284.171.284.409.284h.477v.221c-.469-.008-.826-.016-1.194-.016-.35,0-.709.008-1.016.016Z" transform="translate(-1237.074 -99.514)"/>
      <path id="パス_523" data-name="パス 523" d="M1266.261,121.141a1.125,1.125,0,0,0,1.076,1.041.6.6,0,0,0,.69-.6c0-1.008-1.859-.682-1.859-2.055a1.173,1.173,0,0,1,1.323-1.093,2.225,2.225,0,0,1,.971.249l.06.868h-.2a.874.874,0,0,0-.93-.843.6.6,0,0,0-.665.562c0,1,1.978.691,1.978,2.032,0,.562-.452,1.16-1.468,1.16a2.252,2.252,0,0,1-1.04-.289l-.094-.982Z" transform="translate(-1247.072 -99.517)"/>
      <path id="パス_524" data-name="パス 524" d="M1292.3,110.939h-.213a1.622,1.622,0,0,0-1.825-1.4,2.431,2.431,0,0,0-2.406,2.7,2.779,2.779,0,0,0,2.542,2.959,1.735,1.735,0,0,0,1.715-1.475l.2.051-.2,1.246a4.783,4.783,0,0,1-1.886.453,3.036,3.036,0,0,1-3.258-3.208,3.137,3.137,0,0,1,3.233-3,6.143,6.143,0,0,1,2.013.453Z" transform="translate(-1262.958 -92.54)"/>
      <path id="パス_525" data-name="パス 525" d="M1310.615,113.74h.162c.239,0,.409,0,.409-.284v-4.75c0-.555-.127-.571-.452-.666V107.9a5.345,5.345,0,0,0,.879-.367.912.912,0,0,1,.187-.094c.052,0,.069.052.069.121v5.893c0,.284.188.284.426.284h.144v.221c-.289,0-.588-.016-.895-.016s-.614.008-.93.016Z" transform="translate(-1280.967 -91.151)"/>
      <path id="パス_526" data-name="パス 526" d="M1321.922,122.268c0,.155.094.163.238.163.1,0,.23-.008.341-.008v.18a8.583,8.583,0,0,0-1.229.264l-.043-.026v-.69a2.308,2.308,0,0,1-1.511.716.92.92,0,0,1-.938-1.014v-2.185c0-.222-.033-.435-.511-.477v-.163c.308-.009.989-.059,1.1-.059.1,0,.1.059.1.248v2.2c0,.258,0,.99.742.99a1.9,1.9,0,0,0,1.032-.519v-2.3c0-.171-.409-.265-.715-.35v-.152c.767-.052,1.244-.12,1.33-.12.068,0,.068.059.068.154Z" transform="translate(-1286.797 -99.928)"/>
      <path id="パス_527" data-name="パス 527" d="M1337.078,113a.918.918,0,0,0,.878.87c.913,0,1.3-.9,1.3-1.656a1.628,1.628,0,0,0-1.364-1.689,1.311,1.311,0,0,0-.811.4Zm0-2.321a2.164,2.164,0,0,1,1.271-.614,1.662,1.662,0,0,1,1.587,1.792,2.155,2.155,0,0,1-2.04,2.236,2.517,2.517,0,0,1-1.185-.3l-.255.2-.179-.093a9.943,9.943,0,0,0,.12-1.519v-3.668c0-.555-.129-.571-.453-.666V107.9a5.285,5.285,0,0,0,.879-.367.918.918,0,0,1,.188-.094c.051,0,.068.052.068.121Z" transform="translate(-1300.255 -91.151)"/>
      <path id="パス_528" data-name="パス 528" d="M1186.359,145.677h.065c.167,0,.344-.022.344-.264v-2.432c0-.241-.176-.265-.344-.265h-.065v-.139c.18,0,.459.019.688.019s.51-.019.728-.019v.139h-.065c-.166,0-.344.023-.344.265v2.432c0,.242.177.264.344.264h.065v.14c-.222,0-.5-.018-.733-.018s-.5.018-.683.018Z" transform="translate(-1186.339 -117.907)"/>
      <path id="パス_529" data-name="パス 529" d="M1187.69,145.729v-.1h-.044c-.166,0-.364-.029-.365-.285v-2.432c0-.256.2-.285.365-.285h.044v-.1c-.214,0-.483.019-.708.019s-.487-.018-.667-.019v.1h.045c.165,0,.362.029.362.285v2.432c0,.256-.2.285-.362.285h-.045v.1c.18,0,.442-.019.662-.019s.495.018.714.019m.02.04c-.225,0-.5-.019-.734-.019s-.5.019-.682.019h-.02v-.18h.085c.168,0,.322-.018.323-.244v-2.432c0-.228-.155-.241-.323-.244h-.085v-.181h.02c.182,0,.461.02.688.02s.509-.02.728-.02h.021v.181h-.086c-.168,0-.323.017-.324.244v2.432c0,.226.155.241.324.244h.086v.18Z" transform="translate(-1186.274 -117.84)"/>
      <path id="パス_530" data-name="パス 530" d="M1196.048,144.9l.01-.009v-1.74a.384.384,0,0,0-.4-.437h-.1v-.139c.218,0,.432.019.65.019.19,0,.381-.019.571-.019v.139h-.069c-.2,0-.414.038-.414.591v2.111a3.115,3.115,0,0,0,.027.469h-.176l-2.39-2.664v1.911c0,.4.078.543.436.543h.079v.14c-.2,0-.4-.018-.6-.018s-.422.018-.631.018v-.14h.065c.321,0,.418-.217.418-.589v-1.956a.416.416,0,0,0-.422-.417h-.06v-.139c.176,0,.358.019.533.019.14,0,.275-.019.413-.019Z" transform="translate(-1191.423 -117.907)"/>
      <path id="パス_531" data-name="パス 531" d="M1195.97,144.826v0l0,0Zm.011.009.015-.013Zm.092.963h.154a3.087,3.087,0,0,1-.025-.447v-2.111c0-.558.234-.611.433-.611h.049v-.1c-.183,0-.366.019-.551.019-.213,0-.419-.018-.629-.019v.1h.082a.406.406,0,0,1,.424.457L1196,144.84l-.009.01-.016.014-2.064-2.334c-.137,0-.271.019-.413.019-.171,0-.344-.018-.513-.019v.1h.041a.437.437,0,0,1,.442.439v1.954c0,.372-.1.609-.438.611h-.045v.1c.2,0,.409-.019.611-.019s.386.017.578.019v-.1h-.059c-.365,0-.455-.161-.456-.565V143.1Zm.176.042-.191-.007-2.355-2.626v1.86c.005.4.067.52.416.523h.1v.18h-.021c-.2,0-.4-.019-.6-.019s-.421.019-.632.019h-.021v-.18h.086c.307,0,.395-.2.4-.569v-1.954a.4.4,0,0,0-.4-.4h-.081v-.181h.021c.178,0,.359.02.533.02.138,0,.272-.02.429-.011l2.04,2.3v-1.707c0-.37-.249-.413-.384-.416h-.123v-.181h.021c.22,0,.433.02.65.02.189,0,.379-.02.571-.02h.02v.181h-.09c-.191.005-.388.021-.394.57v2.111a3.014,3.014,0,0,0,.028.465l0,.024Z" transform="translate(-1191.356 -117.84)"/>
      <path id="パス_532" data-name="パス 532" d="M1209.8,142.348c-.349,0-.363.084-.432.422h-.14c.019-.131.041-.26.056-.394a2.745,2.745,0,0,0,.028-.4h.111c.037.14.154.135.279.135h2.394c.125,0,.241,0,.251-.145l.111.02c-.018.124-.037.25-.05.375s-.009.252-.009.376l-.14.051c-.01-.172-.033-.445-.343-.445h-.762v2.469c0,.358.163.4.385.4h.088v.14c-.181,0-.506-.018-.756-.018-.279,0-.6.018-.786.018v-.14h.089c.256,0,.385-.022.385-.389v-2.478Z" transform="translate(-1203.755 -117.445)"/>
      <path id="パス_533" data-name="パス 533" d="M1211.556,145.3c-.183,0-.508-.018-.757-.018-.279,0-.6.018-.785.018h-.02v-.18h.108c.256-.006.358-.01.364-.369v-2.459h-.74v-.041h.781v2.5c0,.373-.151.41-.405.411h-.069v.1c.183,0,.5-.019.766-.019.241,0,.552.017.735.019v-.1h-.068c-.224,0-.405-.056-.405-.421v-2.49h.782c.311,0,.352.266.362.438l.1-.037c0-.121,0-.243.009-.364s.03-.237.047-.357l-.071-.012c-.021.136-.152.143-.268.142h-2.418c-.109,0-.228-.006-.27-.136h-.077a2.791,2.791,0,0,1-.028.377c-.014.128-.035.25-.052.373h.1c.061-.324.1-.429.448-.424v.041c-.344.006-.336.064-.412.407l0,.016h-.179l0-.024c.019-.13.042-.26.056-.4a2.612,2.612,0,0,0,.028-.391v-.02h.147l0,.014c.031.118.117.118.235.119h2.418c.129,0,.223,0,.231-.124l0-.022.021,0,.131.02,0,.02c-.019.126-.036.251-.05.375s-.009.25-.009.374v.014l-.014.005-.164.06v-.026c-.013-.175-.031-.427-.324-.427h-.742v2.449c0,.351.144.376.365.379h.109v.18Z" transform="translate(-1203.682 -117.373)"/>
      <path id="パス_534" data-name="パス 534" d="M1223.4,145.677h.066c.166,0,.343-.022.343-.264v-2.432c0-.241-.177-.265-.343-.265h-.066v-.139c.283,0,.766.019,1.156.019s.873-.019,1.188-.019c-.008.2,0,.506.01.711l-.14.036c-.022-.3-.078-.543-.566-.543h-.645V144h.552c.278,0,.339-.158.367-.409h.139c-.009.182-.014.363-.014.544s0,.352.014.528l-.139.028c-.028-.28-.041-.459-.362-.459h-.557v1.08c0,.3.268.3.566.3.557,0,.8-.038.942-.567l.13.032c-.06.248-.115.492-.157.739-.3,0-.831-.018-1.248-.018s-.971.018-1.236.018Z" transform="translate(-1214.547 -117.907)"/>
      <path id="パス_535" data-name="パス 535" d="M1225.8,145.729c.041-.235.093-.469.151-.7l-.092-.023c-.139.519-.408.566-.956.562-.292,0-.585,0-.586-.323v-1.1h.577c.324,0,.358.193.38.456l.1-.02c-.009-.172-.014-.343-.014-.513s0-.35.014-.524h-.1c-.026.242-.1.412-.385.408h-.572v-1.255h.665c.483,0,.563.246.584.537l.1-.027c-.008-.13-.014-.3-.014-.454,0-.08,0-.154,0-.22-.315,0-.786.019-1.168.019s-.851-.018-1.134-.019v.1h.045c.165,0,.362.029.364.285v2.432c0,.256-.2.284-.364.286h-.045v.1c.27,0,.806-.019,1.214-.019s.931.018,1.231.019m.018.04c-.3,0-.832-.02-1.249-.02s-.97.02-1.234.02h-.02v-.18h.085c.168,0,.321-.018.322-.244v-2.432c0-.226-.154-.241-.322-.244h-.085v-.181h.02c.283,0,.766.02,1.155.02s.872-.02,1.188-.02h.021v.022c0,.07,0,.152,0,.24,0,.16,0,.336.014.469v.016l-.016.005-.163.043v-.024c-.028-.3-.068-.521-.546-.525h-.625v1.176h.533c.268,0,.315-.139.348-.39v-.02h.178v.023c-.009.181-.015.361-.015.543s.005.35.015.526v.018l-.016,0-.161.032v-.022c-.033-.283-.034-.44-.343-.443h-.537v1.061c0,.283.244.282.546.283.559,0,.783-.031.922-.552l.005-.018.019,0L1226,145l0,.019c-.061.246-.116.491-.158.737l0,.017Z" transform="translate(-1214.484 -117.84)"/>
      <path id="パス_536" data-name="パス 536" d="M1236.376,144.145h.227c.464,0,.714-.175.714-.723a.634.634,0,0,0-.677-.678,2.276,2.276,0,0,0-.264.019Zm-.594-1.075c0-.339-.185-.354-.329-.354h-.084v-.139c.149,0,.436.019.72.019s.5-.019.747-.019c.584,0,1.105.158,1.105.817a.875.875,0,0,1-.646.816l.794,1.188a.512.512,0,0,0,.45.278v.14c-.154,0-.3-.018-.454-.018s-.294.018-.437.018a12.825,12.825,0,0,1-.965-1.505h-.307v.994c0,.357.167.371.38.371h.084v.14c-.266,0-.534-.018-.8-.018-.223,0-.442.018-.674.018v-.14h.084c.172,0,.329-.078.329-.25Z" transform="translate(-1223.662 -117.907)"/>
      <path id="パス_537" data-name="パス 537" d="M1236.537,144.058c.46,0,.691-.164.7-.7a.614.614,0,0,0-.658-.658,1.933,1.933,0,0,0-.244.017v1.344Zm-.227.039h-.02v-1.421h.017a2.127,2.127,0,0,1,.267-.018.655.655,0,0,1,.7.7c0,.555-.266.742-.735.742Zm0,.128h.317l.006.01a14.372,14.372,0,0,0,.949,1.494c.142,0,.29-.019.435-.019s.292.017.436.019v-.1a.531.531,0,0,1-.447-.285l-.808-1.208.023-.01a.855.855,0,0,0,.632-.8c0-.645-.5-.794-1.084-.8-.244,0-.467.019-.747.019s-.548-.018-.7-.019v.1h.064c.144,0,.349.023.349.373v2.358c0,.186-.174.271-.349.271h-.064v.1c.224,0,.435-.019.653-.019.26,0,.522.018.778.019v-.1h-.064c-.212,0-.4-.026-.4-.393v-1.014Zm2.163,1.545c-.156,0-.3-.019-.456-.019s-.29.019-.451.011a13.036,13.036,0,0,1-.961-1.5h-.275v.972c.005.349.145.346.36.351h.1v.18h-.02c-.265,0-.535-.019-.8-.019-.221,0-.44.019-.673.019h-.02v-.18h.1c.167,0,.308-.074.308-.23V143c0-.33-.165-.327-.308-.333h-.1v-.181h.02c.151,0,.437.02.72.02s.5-.02.747-.02c.586,0,1.124.164,1.126.839a.889.889,0,0,1-.635.826l.779,1.168a.5.5,0,0,0,.437.269l.017,0v.177Z" transform="translate(-1223.597 -117.84)"/>
      <path id="パス_538" data-name="パス 538" d="M1252.258,144.9l.009-.009v-1.74a.383.383,0,0,0-.4-.437h-.1v-.139c.218,0,.432.019.65.019.191,0,.38-.019.572-.019v.139h-.07c-.2,0-.413.038-.413.591v2.111a3.082,3.082,0,0,0,.028.469h-.176l-2.39-2.664v1.911c0,.4.078.543.435.543h.079v.14c-.2,0-.4-.018-.6-.018s-.424.018-.632.018v-.14h.064c.32,0,.418-.217.418-.589v-1.956a.417.417,0,0,0-.423-.417h-.06v-.139c.176,0,.358.019.534.019.138,0,.273-.019.413-.019Z" transform="translate(-1234.231 -117.907)"/>
      <path id="パス_539" data-name="パス 539" d="M1252.18,144.826v0l0,0Zm.011.009.015-.013Zm.094.963h.152a3.164,3.164,0,0,1-.025-.447v-2.111c0-.558.235-.609.434-.611h.049v-.1c-.182,0-.366.019-.55.019-.213,0-.42-.018-.63-.019v.1h.082a.406.406,0,0,1,.424.457l-.006,1.754-.009.01-.014.015-2.065-2.335c-.138,0-.273.019-.413.019-.172,0-.345-.018-.515-.019v.1h.041a.436.436,0,0,1,.442.437v1.955c0,.372-.1.61-.438.611h-.045v.1c.2,0,.408-.019.611-.019s.388.017.579.019v-.1h-.059c-.365,0-.456-.16-.457-.565V143.1Zm.175.042-.19-.007-2.356-2.626v1.86c.006.4.067.52.417.523h.1v.18h-.02c-.2,0-.4-.02-.6-.02s-.422.02-.631.02h-.021v-.18h.085c.307,0,.395-.2.4-.57v-1.955a.4.4,0,0,0-.4-.4h-.081v-.181h.021c.177,0,.359.02.534.02.136,0,.271-.02.427-.014l2.04,2.3v-1.707c0-.37-.249-.414-.383-.416h-.122v-.181h.02c.219,0,.433.02.65.02.189,0,.379-.02.571-.02h.021v.181h-.089c-.191.005-.389.021-.393.57v2.111a2.947,2.947,0,0,0,.027.465l0,.024Z" transform="translate(-1234.164 -117.84)"/>
      <path id="パス_540" data-name="パス 540" d="M1266.278,142.724h-.01l-.431,1.313h.867Zm-.677,2.057a1.809,1.809,0,0,0-.1.361c0,.14.2.162.348.162h.052v.14c-.187-.011-.376-.018-.563-.018-.167,0-.333.007-.5.018v-.14h.028a.421.421,0,0,0,.4-.3l.743-2.131a3.834,3.834,0,0,0,.172-.576,2.4,2.4,0,0,0,.422-.2.121.121,0,0,1,.037-.01.03.03,0,0,1,.032.015c.014.037.028.079.042.116l.854,2.428c.056.161.111.333.17.473a.3.3,0,0,0,.307.185h.028v.14c-.209-.011-.418-.018-.64-.018s-.461.007-.7.018v-.14h.052c.106,0,.288-.017.288-.134a1.49,1.49,0,0,0-.094-.335l-.181-.538h-1.053Z" transform="translate(-1246.102 -117.534)"/>
      <path id="パス_541" data-name="パス 541" d="M1266.194,142.668l.011,0Zm-.393,1.287h.813l-.4-1.243Zm-.056.04.444-1.353h.025v.02h0v-.02h.014l.441,1.353Zm.949,1.366c.23-.008.455-.017.677-.017s.418.009.62.017v-.1h-.007a.315.315,0,0,1-.325-.2c-.061-.14-.117-.312-.172-.475l-.854-2.427c-.014-.038-.028-.08-.04-.112,0-.005,0-.005,0-.005h-.012a.156.156,0,0,0-.027.005,1.723,1.723,0,0,1-.414.186,3.714,3.714,0,0,1-.173.58l-.742,2.13a.443.443,0,0,1-.423.316h-.008v.1c.159-.008.32-.017.481-.017.179,0,.363.009.54.017v-.1h-.03c-.152,0-.363-.019-.368-.182a1.835,1.835,0,0,1,.1-.368l.02.006-.02-.007.153-.495h1.083l.185.55a1.42,1.42,0,0,1,.1.342c-.008.142-.2.152-.308.155h-.031Zm1.315.041c-.208-.01-.418-.02-.639-.02s-.459.01-.7.02h-.022v-.181h.072c.107,0,.267-.024.267-.113a1.5,1.5,0,0,0-.092-.328l-.177-.526H1265.7l-.144.469a1.92,1.92,0,0,0-.1.357c0,.113.175.141.329.141h.071v.181h-.021c-.186-.01-.375-.02-.561-.02-.166,0-.333.01-.5.02h-.021v-.181h.048a.4.4,0,0,0,.384-.288l.744-2.13a5.591,5.591,0,0,0,.184-.589,2.3,2.3,0,0,0,.421-.2.122.122,0,0,1,.045-.01.059.059,0,0,1,.051.027c.013.039.028.08.042.116l.854,2.43c.055.161.111.333.171.471a.272.272,0,0,0,.288.173h.047v.181Z" transform="translate(-1246.038 -117.472)"/>
      <path id="パス_542" data-name="パス 542" d="M1277.455,142.348c-.348,0-.362.084-.433.422h-.139c.018-.131.042-.26.056-.394a2.8,2.8,0,0,0,.028-.4h.112c.036.14.153.135.278.135h2.4c.125,0,.241,0,.25-.145l.111.02c-.017.124-.036.25-.05.375s-.01.252-.01.376l-.139.051c-.008-.172-.031-.445-.343-.445h-.761v2.469c0,.358.163.4.385.4h.089v.14c-.181,0-.505-.018-.757-.018-.278,0-.6.018-.785.018v-.14h.089c.255,0,.385-.022.385-.389v-2.478Z" transform="translate(-1255.278 -117.445)"/>
      <path id="パス_543" data-name="パス 543" d="M1279.209,145.3c-.182,0-.508-.018-.757-.018-.278,0-.6.018-.783.018h-.021v-.18h.108c.256-.006.359-.01.365-.369v-2.459h-.74v-.041h.781v2.5c0,.373-.151.409-.406.41h-.068v.1c.184,0,.5-.019.765-.019.243,0,.553.017.737.019v-.1h-.068c-.224,0-.405-.055-.405-.42v-2.49h.781c.312,0,.352.266.361.438l.1-.037c0-.121,0-.243.01-.364s.03-.237.047-.357l-.07-.012c-.021.136-.152.144-.268.142h-2.419c-.109,0-.228-.006-.271-.136h-.075a2.77,2.77,0,0,1-.028.377c-.013.128-.036.251-.053.373h.1c.061-.324.1-.429.449-.424v.041c-.345.006-.337.064-.413.407l0,.016h-.179l0-.024c.019-.13.042-.26.056-.394a2.679,2.679,0,0,0,.027-.393v-.02h.147l0,.014c.032.118.117.118.236.119h2.419c.129,0,.222,0,.231-.124v-.023l.021,0,.132.02,0,.02c-.019.126-.036.251-.05.375s-.01.25-.01.374v.014l-.013.005-.164.06v-.026c-.012-.175-.031-.427-.324-.427h-.742v2.449c.005.351.144.376.365.379h.108v.18Z" transform="translate(-1255.203 -117.373)"/>
      <path id="パス_544" data-name="パス 544" d="M1291.151,145.677h.065c.167,0,.343-.022.343-.264v-2.432c0-.241-.175-.265-.343-.265h-.065v-.139c.181,0,.459.019.686.019s.512-.019.73-.019v.139h-.065c-.168,0-.345.023-.345.265v2.432c0,.242.177.264.345.264h.065v.14c-.223,0-.5-.018-.734-.018s-.5.018-.682.018Z" transform="translate(-1266.144 -117.907)"/>
      <path id="パス_545" data-name="パス 545" d="M1292.482,145.729v-.1h-.044c-.166,0-.363-.029-.363-.285v-2.432c0-.256.2-.285.363-.285h.044v-.1c-.214,0-.483.019-.708.019s-.487-.018-.667-.019v.1h.045c.165,0,.363.029.364.285v2.432c0,.256-.2.285-.364.285h-.045v.1c.179,0,.442-.019.662-.019s.494.017.712.019m.021.04c-.224,0-.5-.02-.734-.02s-.5.02-.682.02h-.02v-.18h.085c.167,0,.322-.018.323-.244v-2.432c0-.226-.156-.241-.323-.244h-.085v-.181h.02c.181,0,.46.02.687.02s.509-.02.729-.02h.019v.181h-.085c-.17,0-.322.018-.324.244v2.432c0,.226.154.242.324.244h.085v.18Z" transform="translate(-1266.08 -117.84)"/>
      <path id="パス_546" data-name="パス 546" d="M1299.452,145.463c.9,0,1.058-.795,1.058-1.472s-.365-1.5-1.137-1.5c-.811,0-1.053.724-1.053,1.345,0,.831.381,1.626,1.132,1.626m-.07-3.174a1.627,1.627,0,0,1,1.778,1.6,1.7,1.7,0,0,1-1.754,1.778,1.64,1.64,0,0,1-1.736-1.666,1.687,1.687,0,0,1,1.712-1.712" transform="translate(-1271.109 -117.688)"/>
      <path id="パス_547" data-name="パス 547" d="M1298.234,143.77c0-.625.245-1.366,1.074-1.366.788,0,1.156.839,1.157,1.519s-.161,1.491-1.078,1.491v-.04c.883,0,1.035-.774,1.037-1.451s-.362-1.477-1.116-1.479c-.8,0-1.032.708-1.034,1.326,0,.827.377,1.6,1.113,1.6v.04c-.771,0-1.152-.808-1.153-1.644m-.65.164a1.712,1.712,0,0,1,1.733-1.734v.041a1.669,1.669,0,0,0-1.693,1.693,1.62,1.62,0,0,0,1.718,1.645,1.681,1.681,0,0,0,1.734-1.756,1.608,1.608,0,0,0-1.759-1.581V142.2a1.651,1.651,0,0,1,1.8,1.622,1.726,1.726,0,0,1-1.774,1.8,1.665,1.665,0,0,1-1.757-1.687" transform="translate(-1271.043 -117.62)"/>
      <path id="パス_548" data-name="パス 548" d="M1315.8,144.9l.01-.009v-1.74a.384.384,0,0,0-.4-.437h-.1v-.139c.218,0,.432.019.649.019.191,0,.381-.019.572-.019v.139h-.07c-.194,0-.413.038-.413.591v2.111a2.93,2.93,0,0,0,.028.469h-.177l-2.391-2.664v1.911c0,.4.08.543.436.543h.079v.14c-.2,0-.4-.018-.6-.018s-.422.018-.631.018v-.14h.065c.321,0,.417-.217.417-.589v-1.956a.416.416,0,0,0-.422-.417h-.06v-.139c.176,0,.358.019.534.019.139,0,.273-.019.413-.019Z" transform="translate(-1282.625 -117.907)"/>
      <path id="パス_549" data-name="パス 549" d="M1315.731,144.826v0l0,0Zm.01.009.015-.013Zm.093.963h.152a3.214,3.214,0,0,1-.024-.447v-2.111c0-.559.234-.609.433-.611h.051v-.1c-.184,0-.367.019-.553.019-.211,0-.419-.018-.629-.019v.1h.081a.407.407,0,0,1,.424.457l-.005,1.754-.009.01-.015.015-2.066-2.335c-.137,0-.272.019-.413.019-.171,0-.345-.018-.514-.019v.1h.041a.437.437,0,0,1,.443.437v1.956c0,.372-.1.609-.438.611h-.046v.1c.2,0,.408-.019.612-.019s.387.017.579.019v-.1h-.06c-.365,0-.455-.16-.455-.565V143.1Zm.177.042-.192-.007-2.355-2.626v1.86c.006.4.067.518.416.522h.1v.18h-.02c-.2,0-.4-.019-.6-.019s-.421.019-.632.019h-.019v-.18h.085c.306,0,.394-.2.4-.568v-1.956a.4.4,0,0,0-.4-.4h-.08v-.181h.019c.178,0,.359.02.535.02.138,0,.272-.02.429-.011l2.04,2.3v-1.707c0-.37-.249-.413-.384-.416h-.122v-.181h.021c.219,0,.432.02.649.02.19,0,.379-.02.572-.02h.02v.181h-.09c-.191.005-.389.023-.392.57v2.111a3.068,3.068,0,0,0,.026.465l0,.024Z" transform="translate(-1282.562 -117.84)"/>
      <path id="パス_550" data-name="パス 550" d="M1329.828,142.724h-.01l-.432,1.313h.869Zm-.678,2.057a1.92,1.92,0,0,0-.1.361c0,.14.2.162.348.162h.052v.14c-.186-.011-.376-.018-.562-.018-.167,0-.334.007-.5.018v-.14h.027a.418.418,0,0,0,.4-.3l.745-2.131a3.844,3.844,0,0,0,.171-.576,2.422,2.422,0,0,0,.423-.2.107.107,0,0,1,.037-.01.029.029,0,0,1,.031.015c.014.037.028.079.042.116l.854,2.428c.056.161.112.333.172.473a.294.294,0,0,0,.307.185h.028v.14c-.208-.011-.418-.018-.641-.018s-.459.007-.7.018v-.14h.051c.106,0,.288-.017.288-.134a1.527,1.527,0,0,0-.093-.335l-.181-.538H1329.3Z" transform="translate(-1294.499 -117.534)"/>
      <path id="パス_551" data-name="パス 551" d="M1329.746,142.67l.009,0Zm-.395,1.287h.812l-.4-1.244Zm-.055.04.445-1.353h.024v.02h0v-.02h.014l.439,1.353Zm.948,1.366c.23-.009.456-.018.677-.018s.418.009.62.017v-.1h-.008a.317.317,0,0,1-.325-.2c-.061-.14-.116-.312-.172-.475l-.854-2.427c-.014-.038-.029-.08-.04-.112,0-.005,0-.005,0-.005h-.012a.072.072,0,0,0-.026.007,1.778,1.778,0,0,1-.414.185,3.97,3.97,0,0,1-.173.58l-.743,2.13a.44.44,0,0,1-.422.316h-.007v.1c.16-.008.319-.017.481-.017.18,0,.363.009.542.017v-.1h-.031c-.151,0-.363-.018-.369-.183a1.877,1.877,0,0,1,.1-.367l.018.006-.018-.007.153-.495h1.082l.187.55a1.464,1.464,0,0,1,.093.342c-.006.142-.2.152-.307.155h-.032Zm1.316.041c-.209-.008-.417-.019-.638-.019s-.459.011-.7.019h-.022v-.18h.072c.108,0,.268-.025.268-.114a1.462,1.462,0,0,0-.093-.328l-.176-.526h-1.025l-.143.469a1.979,1.979,0,0,0-.1.356c0,.114.174.142.328.142h.071v.18h-.021c-.185-.008-.375-.019-.56-.019-.167,0-.333.011-.5.019h-.02v-.18h.047a.4.4,0,0,0,.386-.289l.742-2.13a5.732,5.732,0,0,0,.184-.587,2.5,2.5,0,0,0,.423-.2.113.113,0,0,1,.044-.01.053.053,0,0,1,.05.027c.014.037.028.079.042.115l.854,2.43c.056.161.111.333.172.471a.272.272,0,0,0,.287.173h.048v.18Z" transform="translate(-1294.436 -117.474)"/>
      <path id="パス_552" data-name="パス 552" d="M1343.658,145.362c0,.185.129.241.278.261a3.49,3.49,0,0,0,.613-.009.667.667,0,0,0,.445-.252,1.05,1.05,0,0,0,.144-.334h.135c-.051.264-.116.525-.172.79-.407,0-.817-.018-1.225-.018s-.817.018-1.226.018v-.14h.064c.167,0,.349-.022.349-.311v-2.385c0-.241-.182-.265-.349-.265h-.064v-.139c.246,0,.487.019.733.019s.469-.019.706-.019v.139h-.116c-.177,0-.315.006-.315.252Z" transform="translate(-1305.364 -117.907)"/>
      <path id="パス_553" data-name="パス 553" d="M1345.018,145.729c.054-.252.115-.5.164-.749h-.1a1.054,1.054,0,0,1-.143.326.689.689,0,0,1-.46.259c-.122.012-.242.018-.356.018-.09,0-.177,0-.261-.01-.151-.016-.3-.082-.3-.28V142.9c0-.258.163-.271.337-.271H1344v-.1c-.229,0-.454.019-.685.019s-.475-.018-.713-.019v.1h.045c.166,0,.368.029.368.285V145.3c0,.3-.2.332-.368.332h-.045v.1c.4,0,.8-.019,1.206-.019s.806.018,1.208.019m.017.04c-.41,0-.818-.019-1.225-.019s-.817.019-1.227.019h-.019v-.18h.085c.167,0,.327-.016.329-.292v-2.385c0-.226-.161-.241-.329-.244h-.085v-.181h.019c.247,0,.489.02.734.02s.467-.02.706-.02h.019v.181h-.135c-.181.005-.293,0-.3.231v2.395c0,.173.115.219.26.241.082.005.168.009.257.009.114,0,.231-.006.352-.018a.646.646,0,0,0,.432-.244,1.029,1.029,0,0,0,.14-.327l0-.015h.174l0,.025c-.052.265-.116.524-.173.789l0,.016Z" transform="translate(-1305.298 -117.84)"/>
      <path id="パス_554" data-name="パス 554" d="M1351.773,142.513h.058c.063,0,.092-.047.092-.124s-.045-.1-.1-.1h-.054Zm-.165.258v-.024c.06-.008.071-.006.071-.043v-.362c0-.051,0-.069-.069-.067v-.025h.25c.086,0,.165.041.165.131a.153.153,0,0,1-.115.146l.08.113a.536.536,0,0,0,.108.115v.015h-.1c-.046,0-.086-.1-.176-.225h-.054v.163c0,.031.011.029.071.038v.024Zm.243.139a.4.4,0,1,0-.387-.4.394.394,0,0,0,.387.4m0-.887a.489.489,0,1,1-.489.49.481.481,0,0,1,.489-.49" transform="translate(-1311.998 -117.486)"/>
    </g>
    <g id="グループ_90" data-name="グループ 90" transform="translate(264 1823.763)">
      <g id="グループ_89" data-name="グループ 89" transform="translate(0 0)" clip-path="url(#clip-path-6)">
        <rect id="長方形_47" data-name="長方形 47" width="53.535" height="17.289" transform="translate(0 0)" fill="url(#linear-gradient-6)"/>
      </g>
    </g>
    <g id="グループ_91" data-name="グループ 91" transform="translate(380.508 1827.399)">
      <path id="パス_556" data-name="パス 556" d="M4.99-12.194H7.63l-1.3-3.16m18.83.3v1.46h4.23v1.61H25.16v1.61H29.9l2.17-2.35-2.12-2.32H25.16Zm5.23,1.96.32.36-.32.35Z" transform="translate(-0.01 17.734)"/>
      <path id="パス_557" data-name="パス 557" d="M40-8.614l-.82-.83-3.24-3.3,3.17-3.29.89-.92v-.77H35.37l-.3.31-1.72,1.82-1.6-1.8-.3-.34H18.32l-.26.6-1.46,3.37-1.56-3.38-.27-.58H10.06v3.73L8.7-17.124l-.26-.6H4.3l-.26.61L.62-9.134.01-7.744H4.25l.25-.62.46-1.13H7.63l.46,1.13.27.62h5.57v-2.57l.89,1.98.27.59h2.94l.27-.59.89-1.98v2.57H31.33l.3-.32,1.7-1.82,1.62,1.81.3.33H40Zm-17.89-.13H20.17v-6.25l-2.8,6.25H15.73l-2.8-6.25v6.25H9.03L8.32-10.5H4.3l-.71,1.76H1.53l3.42-7.98H7.78l3.28,7.53v-7.53h3.07l2.5,5.42,2.35-5.42h3.13Zm13.56,0-2.35-2.62-2.44,2.62H23.29v-7.98H31l2.32,2.62,2.47-2.62h2.59l-3.85,3.99,3.94,3.99Z" transform="translate(-0.01 17.734)"/>
    </g>
    <g id="グループ_149" data-name="グループ 149" transform="translate(533.906 1818.961)">
      <path id="パス_625" data-name="パス 625" d="M1079.058,376.258l42.222,0v26.894h-42.221Z" transform="translate(-1079.058 -376.255)" fill="#fff"/>
      <g id="グループ_151" data-name="グループ 151" transform="translate(2.766 6.881)">
        <path id="パス_626" data-name="パス 626" d="M1157.875,449.206s-11.535,8.139-32.663,11.784h32.663Z" transform="translate(-1118.418 -440.977)" fill="#959595"/>
        <g id="グループ_150" data-name="グループ 150" transform="translate(16.37 0.022)">
          <g id="グループ_149-2" data-name="グループ 149" clip-path="url(#clip-path-7)">
            <rect id="長方形_420" data-name="長方形 420" width="6.27" height="6.129" transform="translate(0 0)" fill="url(#radial-gradient)"/>
          </g>
        </g>
        <path id="パス_628" data-name="パス 628" d="M1094.1,410.117h-1.688V416h1.679a3.07,3.07,0,0,0,2.1-.679,2.96,2.96,0,0,0,1.068-2.261,2.924,2.924,0,0,0-3.16-2.946m1.342,4.421a2.175,2.175,0,0,1-1.573.469h-.308v-3.893h.308a2.13,2.13,0,0,1,1.573.476,1.976,1.976,0,0,1,.634,1.464,2.014,2.014,0,0,1-.634,1.483" transform="translate(-1092.413 -409.984)" fill="#0d0d0d"/>
        <rect id="長方形_421" data-name="長方形 421" width="1.147" height="5.886" transform="translate(5.377 0.133)" fill="#0d0d0d"/>
        <path id="パス_629" data-name="パス 629" d="M1128.378,412c-.689-.255-.892-.424-.892-.74,0-.371.361-.653.856-.653a1.194,1.194,0,0,1,.928.475l.6-.784a2.572,2.572,0,0,0-1.731-.654,1.729,1.729,0,0,0-1.835,1.685c0,.813.37,1.227,1.448,1.616a4.413,4.413,0,0,1,.794.336.7.7,0,0,1,.345.608.839.839,0,0,1-.893.83,1.359,1.359,0,0,1-1.253-.785l-.74.716a2.289,2.289,0,0,0,2.039,1.121,1.9,1.9,0,0,0,2.03-1.934c0-.936-.387-1.36-1.694-1.837" transform="translate(-1119.046 -409.608)" fill="#0d0d0d"/>
        <path id="パス_630" data-name="パス 630" d="M1147.393,412.555a3.049,3.049,0,0,0,3.108,3.073,3.168,3.168,0,0,0,1.439-.344v-1.351a1.837,1.837,0,0,1-1.387.644,1.924,1.924,0,0,1-1.977-2.031,1.957,1.957,0,0,1,1.925-2.021,1.922,1.922,0,0,1,1.439.662v-1.351a2.934,2.934,0,0,0-1.413-.36,3.1,3.1,0,0,0-3.134,3.079" transform="translate(-1136.005 -409.476)" fill="#0d0d0d"/>
        <path id="パス_631" data-name="パス 631" d="M1203.446,414.071l-1.571-3.954h-1.254l2.5,6.037h.617l2.543-6.037h-1.244Z" transform="translate(-1178.207 -409.984)" fill="#0d0d0d"/>
        <path id="パス_632" data-name="パス 632" d="M1230.461,416h3.257v-1h-2.109v-1.59h2.029v-1h-2.029v-1.306h2.109v-1h-3.257Z" transform="translate(-1201.867 -409.985)" fill="#0d0d0d"/>
        <path id="パス_633" data-name="パス 633" d="M1253.63,411.854c0-1.1-.758-1.737-2.083-1.737h-1.7V416h1.149v-2.366h.15l1.588,2.366h1.412l-1.855-2.48a1.566,1.566,0,0,0,1.342-1.669m-2.3.972h-.334v-1.784h.352c.717,0,1.1.3,1.1.874,0,.591-.388.91-1.123.91" transform="translate(-1217.235 -409.984)" fill="#0d0d0d"/>
        <path id="パス_634" data-name="パス 634" d="M1270.648,411.624c0-.1-.069-.159-.2-.159h-.167v.518h.123v-.2l.145.2h.154l-.172-.214a.142.142,0,0,0,.113-.145m-.216.071h-.023v-.135h.024c.061,0,.092.022.092.066s-.032.069-.093.069" transform="translate(-1233.443 -411.053)" fill="#1b1b1b"/>
        <path id="パス_635" data-name="パス 635" d="M1269.479,410.524a.453.453,0,1,0,.447.453.452.452,0,0,0-.447-.453m0,.825a.371.371,0,1,1,.356-.371.366.366,0,0,1-.356.371" transform="translate(-1232.444 -410.307)" fill="#1b1b1b"/>
        <path id="パス_636" data-name="パス 636" d="M1142.1,446.005l1.536,1.609v-1.525h.22v2.057l-1.536-1.605v1.517h-.22Z" transform="translate(-1131.804 -438.439)" fill="#1b1b1b"/>
        <path id="パス_637" data-name="パス 637" d="M1142,445.808v2.074h.26v-1.487l1.535,1.606v-2.13h-.26v1.495l-1.536-1.61Zm.041.051,1.536,1.609v-1.557h.178V447.9l-1.535-1.607v1.548h-.179Z" transform="translate(-1131.726 -438.241)" fill="#1b1b1b"/>
        <path id="パス_638" data-name="パス 638" d="M1155.706,446.411h1.021v.2h-.8v.586h.778v.2h-.778v.773h.8v.2h-1.021Z" transform="translate(-1142.596 -438.761)" fill="#1b1b1b"/>
        <path id="パス_639" data-name="パス 639" d="M1156.646,446.311H1155.6v2.011h1.062v-.245h-.8v-.733h.778V447.1h-.778v-.544h.8v-.246Zm-.02.04v.163h-.8v.627h.778v.162h-.778v.814h.8v.163h-.98v-1.929Z" transform="translate(-1142.516 -438.681)" fill="#1b1b1b"/>
        <path id="パス_640" data-name="パス 640" d="M1165.455,448.381h-.22v-1.766h-.475v-.2h1.175v.2h-.48Z" transform="translate(-1149.775 -438.761)" fill="#1b1b1b"/>
        <path id="パス_641" data-name="パス 641" d="M1165.852,446.311h-1.2v.246h.476v1.765h.26v-1.765h.481v-.246Zm-.021.04v.163h-.481v1.766h-.179v-1.766h-.475v-.163Z" transform="translate(-1149.691 -438.681)" fill="#1b1b1b"/>
        <path id="パス_642" data-name="パス 642" d="M1174.634,447.494l.638-1.579.637,1.579.517-1.476h.239l-.756,2.071-.637-1.586-.638,1.586-.754-2.071h.237Z" transform="translate(-1157.005 -438.367)" fill="#1b1b1b"/>
        <path id="パス_643" data-name="パス 643" d="M1175.139,445.7l-.618,1.528-.5-1.438h-.281l.784,2.15s.6-1.5.638-1.589c.036.09.638,1.589.638,1.589l.784-2.15h-.282l-.5,1.438c-.039-.094-.636-1.575-.636-1.575Zm-.6,1.593.619-1.53.638,1.581s.521-1.487.531-1.515h.194c-.018.052-.692,1.9-.727,1.994l-.636-1.584-.637,1.584c-.034-.1-.706-1.942-.726-1.994h.193l.531,1.515Z" transform="translate(-1156.891 -438.16)" fill="#1b1b1b"/>
        <path id="パス_644" data-name="パス 644" d="M1193.158,447.269a1.026,1.026,0,1,1-1.026-1.021,1.022,1.022,0,0,1,1.026,1.021m-1.834,0a.807.807,0,1,0,.808-.816.814.814,0,0,0-.808.816" transform="translate(-1170.663 -438.631)" fill="#1b1b1b"/>
        <path id="パス_645" data-name="パス 645" d="M1191,447.189a1.047,1.047,0,1,0,1.047-1.041,1.044,1.044,0,0,0-1.047,1.041m.04,0a1.007,1.007,0,1,1,1.007,1,1,1,0,0,1-1.007-1" transform="translate(-1170.583 -438.552)" fill="#1b1b1b"/>
        <path id="パス_646" data-name="パス 646" d="M1192.062,447.967a.827.827,0,1,0,.828-.835.832.832,0,0,0-.828.835m.041,0a.786.786,0,1,1,.787.795.792.792,0,0,1-.787-.795" transform="translate(-1171.422 -439.332)" fill="#1b1b1b"/>
        <path id="パス_647" data-name="パス 647" d="M1205.829,448.38h-.219v-1.969h.285c.373,0,.72.1.72.543a.513.513,0,0,1-.493.543l.627.883h-.269l-.594-.865h-.056Zm0-1.058h.068c.248,0,.5-.047.5-.353,0-.323-.238-.355-.5-.355h-.066Z" transform="translate(-1182.163 -438.761)" fill="#1b1b1b"/>
        <path id="パス_648" data-name="パス 648" d="M1205.531,446.311h-.021v2.011h.26v-.865h.034c0,.015.579.856.579.856l.286.009h.04s-.6-.846-.633-.892a.531.531,0,0,0,.479-.555c0-.38-.242-.564-.741-.564Zm.285.04c.477,0,.7.167.7.524a.5.5,0,0,1-.475.523l-.036,0,.626.879h-.23c0-.015-.579-.856-.579-.856l-.071-.009h-.021v.865h-.178v-1.929Z" transform="translate(-1182.085 -438.681)" fill="#1b1b1b"/>
        <path id="パス_649" data-name="パス 649" d="M1206.588,447.293h-.021v.749h.089c.242,0,.52-.042.52-.373,0-.347-.27-.376-.522-.376Zm.066.043c.253,0,.48.024.48.333,0,.292-.241.331-.478.331h-.047v-.665Z" transform="translate(-1182.922 -439.46)" fill="#1b1b1b"/>
        <path id="パス_650" data-name="パス 650" d="M1216.652,446.411h.295l-.924.918.955,1.052h-.3l-.807-.9-.055.053v.85h-.22v-1.969h.22v.843Z" transform="translate(-1190.079 -438.761)" fill="#1b1b1b"/>
        <path id="パス_651" data-name="パス 651" d="M1216.872,446.311h-.3s-.747.749-.81.815v-.815h-.26v2.011h.26v-.867a.172.172,0,0,0,.032-.028l.794.888.318.007h.047s-.949-1.044-.976-1.072l.946-.939Zm-.05.04c-.066.066-.9.9-.9.9l.938,1.032h-.257c0-.011-.793-.9-.793-.9l-.014-.017-.07.07s-.006.8-.006.843h-.178v-1.929h.178v.874l.867-.874Z" transform="translate(-1190.004 -438.681)" fill="#1b1b1b"/>
      </g>
    </g>
  </g>
</svg>
