<svg xmlns="http://www.w3.org/2000/svg" width="45.22" height="31" viewBox="0 0 45.22 31">
  <g id="Group_17" data-name="Group 17" transform="translate(0 0)">
    <path id="Stroke_1" data-name="Stroke 1" d="M0,.5H8.377" transform="translate(3.641 5.98)" fill="none" stroke="#2d3845" stroke-linecap="round" stroke-linejoin="round" stroke-miterlimit="10" stroke-width="1"/>
    <path id="Stroke_2" data-name="Stroke 2" d="M0,.5H8.377" transform="translate(0.5 13.349)" fill="none" stroke="#2d3845" stroke-linecap="round" stroke-linejoin="round" stroke-miterlimit="10" stroke-width="1"/>
    <path id="Stroke_4" data-name="Stroke 4" d="M8.911.5H0" transform="translate(15.149 25.635)" fill="none" stroke="#2d3845" stroke-linecap="round" stroke-linejoin="round" stroke-miterlimit="10" stroke-width="1"/>
    <path id="Stroke_5" data-name="Stroke 5" d="M6.97.5H0" transform="translate(20.137 25.635)" fill="none" stroke="#2d3845" stroke-linecap="round" stroke-linejoin="round" stroke-miterlimit="10" stroke-width="1"/>
    <g id="Group_16" data-name="Group 16" transform="translate(2)">
      <path id="Stroke_6" data-name="Stroke 6" d="M0,4.545A4.545,4.545,0,1,1,4.544,9.088,4.544,4.544,0,0,1,0,4.545Z" transform="translate(25.107 21.412)" fill="none" stroke="#2d3845" stroke-linecap="round" stroke-linejoin="round" stroke-miterlimit="10" stroke-width="1"/>
      <path id="Stroke_8" data-name="Stroke 8" d="M0,4.545A4.545,4.545,0,1,1,4.544,9.088,4.544,4.544,0,0,1,0,4.545Z" transform="translate(3.981 21.412)" fill="none" stroke="#2d3845" stroke-linecap="round" stroke-linejoin="round" stroke-miterlimit="10" stroke-width="1"/>
      <path id="Stroke_10" data-name="Stroke 10" d="M0,0H17.739A1.976,1.976,0,0,1,19.7,1.99l-1.814,9.547H33.656a2.188,2.188,0,0,1,2.038,2.917L32.187,24.618a1.313,1.313,0,0,1-1.236.891H27.463" transform="translate(6.889 0.5)" fill="none" stroke="#2d3845" stroke-linecap="round" stroke-linejoin="round" stroke-miterlimit="10" stroke-width="1"/>
      <path id="Stroke_12" data-name="Stroke 12" d="M3.138,5.876H1.911A1.939,1.939,0,0,1,.525,5.293a1.968,1.968,0,0,1-.46-1.862L.927,0" transform="translate(0.609 20.259)" fill="none" stroke="#2d3845" stroke-linecap="round" stroke-linejoin="round" stroke-miterlimit="10" stroke-width="1"/>
      <path id="Stroke_14" data-name="Stroke 14" d="M0,0H4.646A3.742,3.742,0,0,1,7.833,2.121l4.6,7.019" transform="translate(26.588 2.791)" fill="none" stroke="#2d3845" stroke-linecap="round" stroke-linejoin="round" stroke-miterlimit="10" stroke-width="1"/>
    </g>
  </g>
</svg>
