<svg id="Group_30" data-name="Group 30" xmlns="http://www.w3.org/2000/svg" xmlns:xlink="http://www.w3.org/1999/xlink" width="43.141" height="31.926" viewBox="0 0 43.141 31.926">
  <defs>
    <clipPath id="clip-path">
      <path id="Clip_6" data-name="Clip 6" d="M0,31.926H43.141V0H0Z" fill="none"/>
    </clipPath>
  </defs>
  <path id="Fill_1" data-name="Fill 1" d="M21.619,4.107C20.286,1.584,11.714,0,11.714,0S3.143,1.584,1.81,4.107C.824,7.61,0,12.06,0,12.06H23.429a38.929,38.929,0,0,0-1.81-7.952" transform="translate(17.333 19.867)" fill="#f1c9a5"/>
  <path id="Fill_3" data-name="Fill 3" d="M0,0S8.571,1.584,9.9,4.107a38.929,38.929,0,0,1,1.81,7.952H0Z" transform="translate(29.047 19.867)" fill="#e4b692"/>
  <path id="Clip_6-2" data-name="Clip 6" d="M0,31.926H43.141V0H0Z" fill="none"/>
  <g id="Group_30-2" data-name="Group 30" clip-path="url(#clip-path)">
    <path id="Fill_5" data-name="Fill 5" d="M0,7.81H4.667V0H0Z" transform="translate(26.714 14.736)" fill="#f1c9a5"/>
    <path id="Fill_7" data-name="Fill 7" d="M0,7.81H2.333V0H0Z" transform="translate(29.047 14.736)" fill="#e4b692"/>
    <path id="Fill_8" data-name="Fill 8" d="M0,3.619c.42,1.2,2.113,1.9,3.357,1.9A4.2,4.2,0,0,0,4.667,5.3V0H0Z" transform="translate(26.714 14.736)" fill="#ddac8c"/>
    <path id="Fill_9" data-name="Fill 9" d="M12,7.652C12,2.774,9.314,0,6,0S0,2.774,0,7.652s2.686,8.833,6,8.833,6-3.955,6-8.833" transform="translate(23.047 2.155)" fill="#f1c9a5"/>
    <path id="Fill_10" data-name="Fill 10" d="M1.666,5.135C.578,5.014-.156,3.769.028,2.355S1.24-.111,2.328.009,4.149,1.375,3.965,2.79s-1.211,2.465-2.3,2.345" transform="translate(32.468 8.054)" fill="#e4b692"/>
    <path id="Fill_11" data-name="Fill 11" d="M.028,2.79C-.156,1.375.578.13,1.664.009s2.119.93,2.3,2.345S3.414,5.014,2.327,5.135.211,4.205.028,2.79" transform="translate(21.676 8.054)" fill="#f1c9a5"/>
    <path id="Fill_12" data-name="Fill 12" d="M6,7.652C6,2.774,3.314,0,0,0V16.486c3.314,0,6-3.955,6-8.833" transform="translate(29.047 2.155)" fill="#e4b692"/>
    <path id="Fill_13" data-name="Fill 13" d="M5.956,16.51S3.368,14.4,3.943,11.622s2.013-3.258,2.013-4.5c2.4,2.875,4.5,4.887,8.338,3.833,1.15.671-.287,4.122-2.013,5.943C17.169,14.21,22.823,4.338,11.035.5S-4.108,15.935,5.956,16.51" transform="translate(20.253 0)" fill="#0f303f"/>
    <path id="Fill_14" data-name="Fill 14" d="M6.292,2.215A6.294,6.294,0,0,1,12.486,7.4,6.292,6.292,0,1,0,0,6.293,6.315,6.315,0,0,0,.1,7.4,6.293,6.293,0,0,1,6.292,2.215" transform="translate(22.755 2.964)" fill="#f3641e"/>
    <path id="Fill_15" data-name="Fill 15" d="M0,.647A10.844,10.844,0,0,0,4.577,2.035,18.932,18.932,0,0,0,9.961.892L9.541.771C8.587.46,7.638.2,6.827,0A4.678,4.678,0,0,1,2.244.021C1.563.191.79.4,0,.647" transform="translate(24.47 20.366)" fill="#fa582a"/>
    <path id="Fill_16" data-name="Fill 16" d="M21.619,2.212A6.5,6.5,0,0,0,18.394,0a6.946,6.946,0,0,1-6.68,5.049A6.946,6.946,0,0,1,5.035,0,6.5,6.5,0,0,0,1.81,2.212C.824,5.715,0,10.165,0,10.165H23.429a38.929,38.929,0,0,0-1.81-7.952" transform="translate(17.333 21.762)" fill="#1594a3"/>
    <path id="Fill_17" data-name="Fill 17" d="M11.359,2.177c-1.286-.458-3.333.542-4.679.413-1.47-.141-2.266.858-3.17.677-1.738-.348-1.9.281-1.9.281s-.42-.853,1.318-.575A3.8,3.8,0,0,0,6.4,1.886C7,1.076,9,1.267,9,1.267L7.955.052a2.211,2.211,0,0,0-2.429.976c-.6,1.024-1.143,1.143-2.813.953A3.24,3.24,0,0,0,0,3.089l3.157.919a5.209,5.209,0,0,0,1.318.161c.667-.017,1.364-.7,2.759-.6,1.494.113,2.851-.613,4.609.044Z" transform="translate(31.298 17.277)" fill="#fa582a"/>
    <path id="Fill_18" data-name="Fill 18" d="M21.619,4.107C20.286,1.584,11.714,0,11.714,0S3.143,1.584,1.81,4.107C.824,7.61,0,12.06,0,12.06H23.429a38.908,38.908,0,0,0-1.81-7.952" transform="translate(0 19.867)" fill="#f1c9a5"/>
    <path id="Fill_19" data-name="Fill 19" d="M0,0S8.571,1.584,9.9,4.107a38.908,38.908,0,0,1,1.81,7.952H0Z" transform="translate(11.714 19.867)" fill="#e4b692"/>
    <path id="Fill_20" data-name="Fill 20" d="M0,7.81H4.667V0H0Z" transform="translate(9.381 14.736)" fill="#f1c9a5"/>
    <path id="Fill_21" data-name="Fill 21" d="M0,7.81H2.334V0H0Z" transform="translate(11.714 14.736)" fill="#e4b692"/>
    <path id="Fill_22" data-name="Fill 22" d="M0,3.619c.42,1.2,2.113,1.9,3.357,1.9A4.2,4.2,0,0,0,4.667,5.3V0H0Z" transform="translate(9.381 14.736)" fill="#ddac8c"/>
    <path id="Fill_23" data-name="Fill 23" d="M21.619,3.33C20.84,1.857,17.6.7,15.029,0a3.322,3.322,0,0,1-3.315,3.131A3.322,3.322,0,0,1,8.4,0C5.833.7,2.589,1.857,1.81,3.33.824,6.833,0,11.283,0,11.283H23.429a38.908,38.908,0,0,0-1.81-7.952" transform="translate(0 20.644)" fill="#fff"/>
    <path id="Fill_24" data-name="Fill 24" d="M12,7.652C12,2.774,9.314,0,6,0S0,2.774,0,7.652C0,9.7.625,14.221,1.693,15.143a9.5,9.5,0,0,0,4.3,1.766h.025a9.491,9.491,0,0,0,4.3-1.766C11.417,13.971,12,9.528,12,7.652" transform="translate(5.714 2.155)" fill="#f1c9a5"/>
    <path id="Fill_25" data-name="Fill 25" d="M0,16.909H.013a9.488,9.488,0,0,0,4.3-1.767C5.417,13.971,6,9.528,6,7.653,6,2.774,3.314,0,0,0V16.909Z" transform="translate(11.714 2.155)" fill="#e4b692"/>
    <path id="Fill_26" data-name="Fill 26" d="M1.666,4.832A2.156,2.156,0,0,1,.028,2.216,2.331,2.331,0,0,1,2.328.009,2.155,2.155,0,0,1,3.965,2.625a2.332,2.332,0,0,1-2.3,2.207" transform="translate(15.135 8.359)" fill="#e4b692"/>
    <path id="Fill_27" data-name="Fill 27" d="M.028,2.625A2.155,2.155,0,0,1,1.664.009a2.332,2.332,0,0,1,2.3,2.207A2.157,2.157,0,0,1,2.327,4.832a2.332,2.332,0,0,1-2.3-2.207" transform="translate(4.343 8.359)" fill="#f1c9a5"/>
    <path id="Fill_28" data-name="Fill 28" d="M.514,4A7.935,7.935,0,0,0,0,7.1,1.518,1.518,0,0,1,.962,8.188c0-2.156.293-4.59,2.075-4.759,1.607-.152,1.484.549,3.376.549V0a6.9,6.9,0,0,0-5.9,4" transform="translate(5.302 1.52)" fill="#262421"/>
    <path id="Fill_29" data-name="Fill 29" d="M5.9,4A6.692,6.692,0,0,0,0,0V3.978c1.892,0,1.77-.7,3.376-.549,1.782.169,2.074,2.6,2.074,4.759a1.59,1.59,0,0,1,.956-1.117A9.216,9.216,0,0,0,5.9,4" transform="translate(11.714 1.52)" fill="#262421"/>
  </g>
</svg>
