<svg xmlns="http://www.w3.org/2000/svg" width="31.209" height="35.774" viewBox="0 0 31.209 35.774">
  <g id="Group_27" data-name="Group 27" transform="translate(0 -0.118)">
    <path id="Fill_1" data-name="Fill 1" d="M0,24.277l28.655.078L29.13.078.475,0Z" transform="translate(0.825 11.537)" fill="#ff6e9e"/>
    <path id="Fill_2" data-name="Fill 2" d="M4.028.011l7.148,8.044L7.148,8.044,0,0Z" transform="translate(5.013 11.547)" fill="#9c0b2b"/>
    <path id="Fill_3" data-name="Fill 3" d="M.086,0H.107L7.255,8.044,3.227,8.033,0,4.4Z" transform="translate(1.214 11.537)" fill="#9c0b2b"/>
    <path id="Fill_4" data-name="Fill 4" d="M4.028.011l7.148,8.044L7.148,8.044,0,0Z" transform="translate(12.734 11.568)" fill="#9c0b2b"/>
    <path id="Fill_5" data-name="Fill 5" d="M4.028.011,9.382,6.035l.079-4.056L7.721.021H7.293L9.5.026,9.342,8.05,7.148,8.044,0,0Z" transform="translate(20.456 11.589)" fill="#9c0b2b"/>
    <path id="Fill_6" data-name="Fill 6" d="M0,4.056,14.093,19.914l3.693.01L3.306,3.631l-3.3-.009L.079,0h0Z" transform="translate(1.134 15.939)" fill="#ffe3e9"/>
    <path id="Fill_7" data-name="Fill 7" d="M.071,0,3.3,3.631,0,3.622Z" transform="translate(1.143 15.939)" fill="#cf234a"/>
    <path id="Fill_8" data-name="Fill 8" d="M14.479,16.294l3.693.01L3.693.01,0,0Z" transform="translate(8.469 19.581)" fill="#ffe3e9"/>
    <path id="Fill_9" data-name="Fill 9" d="M0,.1,3.693.122h0L0,.1Z" transform="translate(1.321 11.483)" fill="#fa1145"/>
    <path id="Fill_10" data-name="Fill 10" d="M3.693.01l7.148,8.044-3.693-.01L0,0Z" transform="translate(1.321 11.537)" fill="#cf234a"/>
    <path id="Fill_11" data-name="Fill 11" d="M5.84,2.426,5.76,6.482,0,0,3.693.01Z" transform="translate(23.911 19.623)" fill="#ffe3e9"/>
    <path id="Fill_12" data-name="Fill 12" d="M3.693.122,0,.1Z" transform="translate(16.763 11.525)" fill="#fa1145"/>
    <path id="Fill_13" data-name="Fill 13" d="M3.693.01l7.148,8.044-3.693-.01L0,0Z" transform="translate(16.763 11.579)" fill="#cf234a"/>
    <path id="Fill_14" data-name="Fill 14" d="M3.265.121,0,.1Z" transform="translate(24.484 11.546)" fill="#fa1145"/>
    <path id="Fill_15" data-name="Fill 15" d="M5.432,1.968,5.353,6.024,0,0,3.265.009h.428Z" transform="translate(24.484 11.6)" fill="#cf234a"/>
    <path id="Fill_16" data-name="Fill 16" d="M0,2.914l2.653.007L.057,0Z" transform="translate(0.825 32.9)" fill="#ffe3e9"/>
    <path id="Fill_17" data-name="Fill 17" d="M13.395,10.928l-.079,4.056L0,0,3.693.01Z" transform="translate(16.19 19.602)" fill="#ffe3e9"/>
    <path id="Fill_18" data-name="Fill 18" d="M3.693.122,0,.1Z" transform="translate(9.042 11.504)" fill="#fa1145"/>
    <path id="Fill_19" data-name="Fill 19" d="M3.693.01l7.148,8.044-3.693-.01L0,0Z" transform="translate(9.042 11.558)" fill="#cf234a"/>
    <path id="Fill_20" data-name="Fill 20" d="M0,4.056l6.538,7.357,3.693.01L.079,0Z" transform="translate(0.968 24.42)" fill="#ffe3e9"/>
    <path id="Fill_21" data-name="Fill 21" d="M0,8.915,31.035,9,31.209.085.174,0Z" transform="translate(0 8.242)" fill="#ff6e9e"/>
    <g id="Group_26" data-name="Group 26" transform="translate(4.974 0.011)">
      <path id="Fill_22" data-name="Fill 22" d="M12.734,17.124h0L8.41,17.113,8.5,8.121a12.712,12.712,0,0,1-5.449-1.3A6.216,6.216,0,0,1,.562,4.566a3.108,3.108,0,0,1-.23-3.16A3.038,3.038,0,0,1,3.1,0,5.3,5.3,0,0,1,4.365.162,8.791,8.791,0,0,1,10.6,5.673,9.21,9.21,0,0,1,17.052.2,5.389,5.389,0,0,1,18.3.042a2.948,2.948,0,0,1,2.717,1.387,3.112,3.112,0,0,1-.335,3.192c-.765,1.2-2.8,3.259-7.857,3.5l-.093,9Zm4.525-14.7-.1,0c-2.5.121-4.178,2.285-4.631,2.945-.324.471-.423.844-.295,1.107a.859.859,0,0,0,.663.374,13.209,13.209,0,0,0,5.4-2.27,1.226,1.226,0,0,0,.4-1.348A1.486,1.486,0,0,0,17.259,2.428ZM4.06,2.392A1.528,1.528,0,0,0,2.6,3.217a1.208,1.208,0,0,0,.359,1.328,12.741,12.741,0,0,0,5.307,2.3.882.882,0,0,0,.681-.378c.133-.263.047-.633-.255-1.1C8.263,4.7,6.673,2.529,4.175,2.395Q4.117,2.392,4.06,2.392Z" transform="translate(0.04 0.108)" fill="#08c"/>
      <path id="Fill_24" data-name="Fill 24" d="M12.549,4.123c4.68-.224,6.931-2.043,7.857-3.5a4.651,4.651,0,0,0,.308-.569A24,24,0,0,1,16.388,1.6a15.252,15.252,0,0,1-3.773,1.253s-.661-.042-.713-.558a19.691,19.691,0,0,1-2.153-.007c-.286-.017-.632-.059-1.021-.121.022.629-.74.673-.74.673A14.067,14.067,0,0,1,3.045.855C1.892.544.817.238,0,0A4.48,4.48,0,0,0,.284.567C1.166,2.052,3.4,3.92,8.225,4.122v.026l4.324.049Z" transform="translate(0.318 4.106)" fill="#069"/>
    </g>
  </g>
</svg>
