<svg id="Group_3" data-name="Group 3" xmlns="http://www.w3.org/2000/svg" xmlns:xlink="http://www.w3.org/1999/xlink" width="22" height="20" viewBox="0 0 22 20">
  <defs>
    <clipPath id="clip-path">
      <path id="Clip_2" data-name="Clip 2" d="M0,0H22V20H0Z" fill="none"/>
    </clipPath>
  </defs>
  <path id="Clip_2-2" data-name="Clip 2" d="M0,0H22V20H0Z" fill="none"/>
  <g id="Group_3-2" data-name="Group 3" clip-path="url(#clip-path)">
    <path id="Fill_1" data-name="Fill 1" d="M4.637,20A3.547,3.547,0,0,1,2.16,18.839l-.115-.112c-.812-.787-4.173-3.532.012-7.335C3.777,9.829,5.9,7.564,8.25,5.278c1.266-1.229,2.584-2.507,3.894-3.794,2.366-2.323,4.1-1.792,6.78.717,3.17,2.965,3.75,5.882,2.379,7.436-1.82,2.06-8.707,8.83-9,9.115a1,1,0,0,1-1.4,0,.959.959,0,0,1,0-1.372c.071-.069,7.129-7,8.9-9.016.407-.46.47-2.217-2.248-4.759C16,2.141,15.531.9,13.541,2.855c-1.313,1.29-2.634,2.572-3.9,3.8-2.344,2.277-4.515,4.468-6.149,6.071C.9,15.275,2.58,16.522,3.432,17.349l.125.12c.726.712,1.319.9,2.379-.139.3-.291.909-.875,1.68-1.613,2.138-2.04,6.115-5.837,6.918-6.825.255-.313.626-1.07.272-1.376-.489-.421-1.389.429-1.651.7-2.787,2.874-6.428,6.317-6.464,6.353a1,1,0,0,1-1.4-.027.958.958,0,0,1,.026-1.372c.036-.034,3.646-3.449,6.4-6.291,1.787-1.845,3.436-1.634,4.38-.822,1.151.988.881,2.931-.029,4.049-.812,1-3.944,4.006-7.083,7-.762.729-1.369,1.308-1.661,1.595A3.9,3.9,0,0,1,4.637,20" fill="#fff"/>
  </g>
</svg>
