<svg xmlns="http://www.w3.org/2000/svg" width="25.204" height="16.724" viewBox="0 0 25.204 16.724">
  <g id="Group_7" data-name="Group 7" transform="translate(0.203 0)">
    <path id="Stroke_1" data-name="Stroke 1" d="M22.4,0A1.592,1.592,0,0,1,24,1.572V14.153a1.591,1.591,0,0,1-1.6,1.571H1.6A1.59,1.59,0,0,1,0,14.153V1.572A1.59,1.59,0,0,1,1.6,0Z" transform="translate(0.501 0.5)" fill="none" stroke="#fff" stroke-linecap="round" stroke-miterlimit="10" stroke-width="1"/>
    <path id="Stroke_3" data-name="Stroke 3" d="M.953.5A.454.454,0,1,1,.5.046.454.454,0,0,1,.953.5Z" transform="translate(18.75 4.23)" fill="none" stroke="#fff" stroke-linecap="round" stroke-miterlimit="10" stroke-width="1"/>
    <path id="Stroke_5" data-name="Stroke 5" d="M0,8.743,7.136,0,13,5.738l3.431-3.463,7.23,7.168" transform="translate(0.5 6.163)" fill="none" stroke="#fff" stroke-linecap="round" stroke-miterlimit="10" stroke-width="1"/>
  </g>
</svg>
