<svg id="Group_3" data-name="Group 3" xmlns="http://www.w3.org/2000/svg" xmlns:xlink="http://www.w3.org/1999/xlink" width="20.667" height="20" viewBox="0 0 20.667 20">
  <defs>
    <clipPath id="clip-path">
      <path id="Clip_2" data-name="Clip 2" d="M0,0H20.667V20H0Z" fill="none"/>
    </clipPath>
  </defs>
  <path id="Clip_2-2" data-name="Clip 2" d="M0,0H20.667V20H0Z" fill="none"/>
  <g id="Group_3-2" data-name="Group 3" clip-path="url(#clip-path)">
    <path id="Fill_1" data-name="Fill 1" d="M9.764,20a.342.342,0,0,1-.277-.108.774.774,0,0,1-.053-.585l0-.022c.025-.149.135-.824.147-.893v-.006a2.081,2.081,0,0,0-.033-.949C9.438,17.15,9,17,8.644,16.92,3.635,16.248,0,12.713,0,8.517,0,3.821,4.635,0,10.333,0S20.667,3.821,20.667,8.517a7.674,7.674,0,0,1-2.215,5.24,33.025,33.025,0,0,1-8.119,6.094A1.545,1.545,0,0,1,9.764,20Zm4.86-13.96a.548.548,0,0,0-.544.55V10.76a.548.548,0,0,0,.544.55h2.052a.55.55,0,0,0,0-1.1H15.165V9.226h1.511a.55.55,0,0,0,0-1.1H15.165V7.14h1.511a.55.55,0,0,0,0-1.1ZM10.275,8.181l0,0,2.1,2.907a.544.544,0,0,0,.434.22.535.535,0,0,0,.172-.028.548.548,0,0,0,.371-.522V6.59a.542.542,0,1,0-1.084,0V9.17L10.166,6.259a.54.54,0,0,0-.432-.22.53.53,0,0,0-.173.028.55.55,0,0,0-.372.522V10.76a.543.543,0,1,0,1.085,0V8.181ZM7.87,6.04a.546.546,0,0,0-.541.55V10.76a.541.541,0,1,0,1.082,0V6.59A.546.546,0,0,0,7.87,6.04Zm-3.636,0a.546.546,0,0,0-.541.55V10.76a.546.546,0,0,0,.541.55H6.289a.55.55,0,0,0,0-1.1H4.778V6.59A.548.548,0,0,0,4.234,6.04Z" fill="#fff"/>
  </g>
</svg>
