<svg id="Group_3" data-name="Group 3" xmlns="http://www.w3.org/2000/svg" xmlns:xlink="http://www.w3.org/1999/xlink" width="21.913" height="18" viewBox="0 0 21.913 18">
  <defs>
    <clipPath id="clip-path">
      <path id="Clip_2" data-name="Clip 2" d="M0,0H21.913V18H0Z" fill="none"/>
    </clipPath>
  </defs>
  <path id="Clip_2-2" data-name="Clip 2" d="M0,0H21.913V18H0Z" fill="none"/>
  <g id="Group_3-2" data-name="Group 3" clip-path="url(#clip-path)">
    <path id="Fill_1" data-name="Fill 1" d="M21.913,2.13a8.887,8.887,0,0,1-2.582.716A4.544,4.544,0,0,0,21.307.332a8.941,8.941,0,0,1-2.855,1.1A4.467,4.467,0,0,0,15.171,0a4.52,4.52,0,0,0-4.5,4.544,4.588,4.588,0,0,0,.117,1.035A12.718,12.718,0,0,1,1.526.832,4.583,4.583,0,0,0,2.917,6.9,4.446,4.446,0,0,1,.881,6.33c0,.019,0,.038,0,.057a4.535,4.535,0,0,0,3.607,4.456,4.461,4.461,0,0,1-2.031.078,4.507,4.507,0,0,0,4.2,3.156,8.958,8.958,0,0,1-5.583,1.945A9.115,9.115,0,0,1,0,15.958,12.63,12.63,0,0,0,6.892,18c8.269,0,12.791-6.924,12.791-12.929,0-.2,0-.393-.013-.588A9.179,9.179,0,0,0,21.913,2.13" fill="#fff"/>
  </g>
</svg>
