<svg xmlns="http://www.w3.org/2000/svg" width="10.89" height="10.49" viewBox="0 0 10.89 10.49"><g id="レイヤー_2" data-name="レイヤー 2"><g id="レイヤー_1-2" data-name="レイヤー 1"><g id="グループ_569" data-name="グループ 569"><path id="パス_1564" data-name="パス 1564" d="M4.67,1A.86.86,0,0,1,5.82.59a.89.89,0,0,1,.4.39l.86,1.74a.87.87,0,0,0,.65.48l1.92.27a.87.87,0,0,1,.73,1,.8.8,0,0,1-.25.5L8.74,6.31a.83.83,0,0,0-.25.76L8.82,9a.87.87,0,0,1-1.26.91L5.85,9a.87.87,0,0,0-.8,0l-1.72.9a.86.86,0,0,1-1.17-.36A.87.87,0,0,1,2.07,9L2.4,7.07a.83.83,0,0,0-.25-.76L.76,5a.86.86,0,0,1,0-1.22.83.83,0,0,1,.49-.25L3.16,3.2a.88.88,0,0,0,.65-.47Z" fill="none" stroke="#fff"/></g></g></g></svg>