<svg xmlns="http://www.w3.org/2000/svg" width="39.604" height="26.158" viewBox="0 0 39.604 26.158">
  <g id="Group_7_Copy" data-name="Group 7 Copy" transform="translate(-0.097 -0.3)">
    <path id="Stroke_1" data-name="Stroke 1" d="M35.84,0A2.547,2.547,0,0,1,38.4,2.515v20.13a2.546,2.546,0,0,1-2.56,2.514H2.558A2.543,2.543,0,0,1,0,22.645V2.515A2.545,2.545,0,0,1,2.558,0Z" transform="translate(0.801 0.8)" fill="none" stroke="#fff" stroke-linecap="round" stroke-miterlimit="10" stroke-width="1"/>
    <path id="Stroke_3" data-name="Stroke 3" d="M1.526.8A.726.726,0,1,1,.8.074.726.726,0,0,1,1.526.8Z" transform="translate(30 6.768)" fill="none" stroke="#fff" stroke-linecap="round" stroke-miterlimit="10" stroke-width="1"/>
    <path id="Stroke_5" data-name="Stroke 5" d="M0,13.989,11.418,0,20.8,9.181,26.29,3.64,37.858,15.109" transform="translate(0.801 9.86)" fill="none" stroke="#fff" stroke-linecap="round" stroke-miterlimit="10" stroke-width="1"/>
  </g>
</svg>
