<svg xmlns="http://www.w3.org/2000/svg" width="20.42" height="20.42" viewBox="0 0 20.42 20.42"><g id="レイヤー_2" data-name="レイヤー 2"><g id="レイヤー_1-2" data-name="レイヤー 1"><g id="グループ_856" data-name="グループ 856"><g id="楕円形_54" data-name="楕円形 54"><circle cx="10.21" cy="10.21" r="10.21" fill="#ffe66b"/><circle cx="10.21" cy="10.21" r="9.71" fill="none" stroke="#fedc6b"/></g><g id="グループ_569" data-name="グループ 569"><path id="パス_1564" data-name="パス 1564" d="M9.5,6a.81.81,0,0,1,1.07-.37.76.76,0,0,1,.36.37l.8,1.62a.83.83,0,0,0,.6.44l1.79.26a.79.79,0,0,1,.44,1.36l-1.29,1.26a.81.81,0,0,0-.23.71l.3,1.77a.8.8,0,0,1-.65.93.83.83,0,0,1-.51-.08l-1.6-.84a.83.83,0,0,0-.75,0l-1.6.84a.8.8,0,0,1-1.08-.33.85.85,0,0,1-.08-.52l.3-1.77a.81.81,0,0,0-.23-.71L5.87,9.63a.8.8,0,0,1,.44-1.37L8.1,8a.81.81,0,0,0,.6-.43Z" fill="#fff"/></g></g></g></g></svg>