<svg xmlns="http://www.w3.org/2000/svg" width="17" height="11" viewBox="0 0 17 11"><g id="レイヤー_2" data-name="レイヤー 2"><g id="レイヤー_1-2" data-name="レイヤー 1"><g id="グループ_1196" data-name="グループ 1196"><path id="パス_1742" data-name="パス 1742" d="M2.13,4.49H.3a.29.29,0,0,0-.3.3H0v5.74a.3.3,0,0,0,.3.3H2.13a.3.3,0,0,0,.3-.3h0V4.78A.29.29,0,0,0,2.13,4.49Z" fill="#fff"/><path id="パス_1743" data-name="パス 1743" d="M15.58,3.48H8.86a.6.6,0,0,1-.6-.6.48.48,0,0,1,0-.2L9,.8A.6.6,0,0,0,8.61,0a.63.63,0,0,0-.19,0H8.33a1.83,1.83,0,0,0-1.5.79L3.67,5.07V9.46L6.5,10.55a4.9,4.9,0,0,0,.55.13L9.56,11a1.81,1.81,0,0,0,1.71-1.23L12.52,6a.3.3,0,0,1,.29-.21h3A1,1,0,0,0,17,4.92a1.5,1.5,0,0,0,0-.3C17,4,16.21,3.48,15.58,3.48Z" fill="#fff"/></g></g></g></svg>