<svg xmlns="http://www.w3.org/2000/svg" width="81.3" height="31.93" viewBox="0 0 81.3 31.93"><g id="レイヤー_1" data-name="レイヤー 1"><g id="グループ_1439" data-name="グループ 1439"><g id="グループ_1419-4" data-name="グループ 1419-4"><g id="グループ_1415-4" data-name="グループ 1415-4"><g id="ico01-4"><path id="Rectangle-10" d="M4.54,6.63H21.21a4.16,4.16,0,0,1,4.16,4.16V27.46a4.17,4.17,0,0,1-4.16,4.17H4.54A4.17,4.17,0,0,1,.37,27.46V10.79A4.17,4.17,0,0,1,4.54,6.63Z" fill="#999"/><path d="M21.21,32H4.54A4.54,4.54,0,0,1,0,27.46V10.79A4.55,4.55,0,0,1,4.54,6.25H21.21a4.55,4.55,0,0,1,4.54,4.54V27.46A4.54,4.54,0,0,1,21.21,32ZM4.54,7A3.79,3.79,0,0,0,.75,10.79V27.46a3.79,3.79,0,0,0,3.79,3.79H21.21A3.79,3.79,0,0,0,25,27.46V10.79A3.79,3.79,0,0,0,21.21,7Z" fill="#fff"/><g id="Group_4-4" data-name="Group 4-4"><path id="Fill_1-10" data-name="Fill 1-10" d="M15.09,14l-2.22,2.72L10.64,14H7.31L4.78,16.56v4.63L12.87,27,21,21.19V16.56L18.42,14Z" fill="#707070"/><path id="Fill_1-11" data-name="Fill 1-11" d="M15.09,12.68,12.87,15.4l-2.23-2.72H7.31L4.78,15.21v4.63l8.09,5.8L21,19.84V15.21l-2.54-2.53Z" fill="#fff"/></g></g></g></g><g id="グループ_1421-4" data-name="グループ 1421-4"><g id="グループ_1416-4" data-name="グループ 1416-4"><g id="ico02-4"><g id="グループ_1413-4" data-name="グループ 1413-4"><path id="Rectangle-11" d="M32.32,6.63H49a4.16,4.16,0,0,1,4.16,4.16V27.46A4.17,4.17,0,0,1,49,31.63H32.32a4.17,4.17,0,0,1-4.17-4.17V10.79A4.17,4.17,0,0,1,32.32,6.63Z" fill="#999"/><path d="M49,32H32.32a4.54,4.54,0,0,1-4.54-4.54V10.79a4.54,4.54,0,0,1,4.54-4.54H49a4.55,4.55,0,0,1,4.54,4.54V27.46A4.54,4.54,0,0,1,49,32ZM32.32,7a3.79,3.79,0,0,0-3.79,3.79V27.46a3.79,3.79,0,0,0,3.79,3.79H49a3.79,3.79,0,0,0,3.79-3.79V10.79A3.79,3.79,0,0,0,49,7Z" fill="#fff"/><g id="Group_27-4" data-name="Group 27-4"><path id="Fill_1-12" data-name="Fill 1-12" d="M47.37,27.39l-13.63,0-.23-11.54,13.63,0Z" fill="#707070"/><path id="Fill_2-4" data-name="Fill 2-4" d="M43.46,15.85l-3.4,3.82H42l3.41-3.83Z" fill="#394757"/><path id="Fill_3-4" data-name="Fill 3-4" d="M47.14,15.84h0l-3.4,3.83h1.92l1.53-1.73Z" fill="#394757"/><path id="Fill_4-4" data-name="Fill 4-4" d="M39.79,15.86l-3.4,3.82H38.3l3.4-3.83Z" fill="#394757"/><path id="Fill_5-4" data-name="Fill 5-4" d="M36.11,15.87l-2.54,2.86,0-1.93.83-.93h-.85l.07,3.82h1.05L38,15.86Z" fill="#394757"/><path id="Fill_6-4" data-name="Fill 6-4" d="M47.22,19.86l-6.7,7.55H38.77l6.89-7.76h1.56l0-1.72h0Z" fill="#fff"/><path id="Fill_7-4" data-name="Fill 7-4" d="M47.18,17.93l-1.53,1.73h1.57Z" fill="#e2e2e2"/><path id="Fill_8-4" data-name="Fill 8-4" d="M36.84,27.42H35.09L42,19.67h1.76Z" fill="#fff"/><path id="Fill_10-4" data-name="Fill 10-4" d="M45.38,15.84,42,19.67h1.75l3.4-3.83Z" fill="#e2e2e2"/><path id="Fill_11-4" data-name="Fill 11-4" d="M33.61,20.84l0,1.93,2.73-3.08H34.63Z" fill="#fff"/><path id="Fill_13-4" data-name="Fill 13-4" d="M38,15.86l-3.4,3.83h1.76l3.4-3.83Z" fill="#e2e2e2"/><path id="Fill_15-4" data-name="Fill 15-4" d="M33.53,16.81l0,1.92,2.54-2.86H34.36Z" fill="#cf234a"/><path id="Fill_16-4" data-name="Fill 16-4" d="M47.37,27.39H46.11L47.34,26Z" fill="#fff"/><path id="Fill_17-4" data-name="Fill 17-4" d="M33.69,24.88l0,1.92,6.34-7.12H38.3Z" fill="#fff"/><path id="Fill_19-4" data-name="Fill 19-4" d="M41.7,15.85l-3.4,3.83h1.76l3.4-3.83Z" fill="#e2e2e2"/><path id="Fill_20-4" data-name="Fill 20-4" d="M47.3,23.9l-3.11,3.5H42.43L47.26,22Z" fill="#fff" opacity="0.9" style="isolation:isolate"/><path id="Fill_21-4" data-name="Fill 21-4" d="M47.76,18.51l-14.66,0L33,14.31l14.67,0Z" fill="#fff"/><path id="Fill_22-4" data-name="Fill 22-4" d="M39.32,18.55h2l0-4.28a6,6,0,0,0,2.59-.62,2.93,2.93,0,0,0,1.19-1.07,1.49,1.49,0,0,0,.11-1.5,1.44,1.44,0,0,0-1.32-.67,2.46,2.46,0,0,0-.6.07,4.19,4.19,0,0,0-3,2.63,4.37,4.37,0,0,0-3.07-2.61,2.32,2.32,0,0,0-.59-.07,1.38,1.38,0,0,0-1.29.66,1.47,1.47,0,0,0,.15,1.52,3.12,3.12,0,0,0,1.2,1.05,6.2,6.2,0,0,0,2.54.61l0,4.28Zm-2.16-7h.05a3.1,3.1,0,0,1,2.2,1.4c.16.23.2.4.14.53a.42.42,0,0,1-.31.18,6.32,6.32,0,0,1-2.56-1.08.59.59,0,0,1-.2-.64A.7.7,0,0,1,37.16,11.56Zm6.28,0a.71.71,0,0,1,.7.39.56.56,0,0,1-.17.63,6,6,0,0,1-2.53,1.09.38.38,0,0,1-.32-.18c-.06-.12,0-.3.12-.52a3,3,0,0,1,2.15-1.41Z" fill="#707070"/><path id="Fill_24-4" data-name="Fill 24-4" d="M39.27,14.27c-2.22-.11-3.3-1-3.73-1.66a1.51,1.51,0,0,1-.15-.28,10.77,10.77,0,0,0,2.06.74,7.12,7.12,0,0,0,1.79.6s.32,0,.34-.26a8.68,8.68,0,0,0,1,0l.49-.06c0,.3.35.32.35.32a6.74,6.74,0,0,0,2.36-.95l1.44-.41c0,.09-.08.18-.13.27-.42.71-1.48,1.59-3.78,1.69h0l-2.06,0Z" fill="#394757"/></g></g></g></g></g><g id="グループ_1420-4" data-name="グループ 1420-4"><g id="グループ_1417-4" data-name="グループ 1417-4"><path id="Rectangle-12" d="M60.1,6.63H76.76a4.17,4.17,0,0,1,4.17,4.16V27.46a4.17,4.17,0,0,1-4.17,4.17H60.1a4.17,4.17,0,0,1-4.17-4.17V10.79A4.17,4.17,0,0,1,60.1,6.63Z" fill="#999"/><path d="M76.76,32H60.1a4.55,4.55,0,0,1-4.55-4.54V10.79A4.55,4.55,0,0,1,60.1,6.25H76.76a4.54,4.54,0,0,1,4.54,4.54V27.46A4.54,4.54,0,0,1,76.76,32ZM60.1,7a3.8,3.8,0,0,0-3.8,3.79V27.46a3.8,3.8,0,0,0,3.8,3.79H76.76a3.79,3.79,0,0,0,3.79-3.79V10.79A3.79,3.79,0,0,0,76.76,7Z" fill="#fff"/><g id="グループ_1388-4" data-name="グループ 1388-4"><g id="Group-4"><path id="Stroke_1-4" data-name="Stroke 1-4" d="M75.68,12.7a1.07,1.07,0,0,1,1.07,1v8.37a1.06,1.06,0,0,1-1.07,1H73.12l-.24,3-2.54-3H61.85a1,1,0,0,1-1.06-1V13.74a1.06,1.06,0,0,1,1.06-1Z" fill="#f7feff"/><path id="Stroke_3-4" data-name="Stroke 3-4" d="M66.72,17.92a.34.34,0,0,1-.34.35.35.35,0,1,1,0-.69h0A.34.34,0,0,1,66.72,17.92Z" fill="#394757"/><path d="M66.38,18.52a.6.6,0,1,1,0-1.19.6.6,0,0,1,0,1.19Zm0-.69a.09.09,0,0,0-.1.09c0,.11.19.11.19,0A.09.09,0,0,0,66.38,17.83Z" fill="#394757"/><path id="Stroke_5-4" data-name="Stroke 5-4" d="M69.2,17.92a.35.35,0,0,1-.35.35.35.35,0,0,1,0-.69h0A.35.35,0,0,1,69.2,17.92Z" fill="#394757"/><path d="M68.85,18.52a.6.6,0,0,1,0-1.19.6.6,0,1,1,0,1.19Zm0-.69a.09.09,0,0,0-.09.09c0,.11.19.11.19,0A.1.1,0,0,0,68.85,17.83Z" fill="#394757"/><path id="Stroke_7-4" data-name="Stroke 7-4" d="M71.5,17.92a.34.34,0,0,1-.34.35.35.35,0,1,1,0-.69h0A.34.34,0,0,1,71.5,17.92Z" fill="#384657"/><path d="M71.16,18.52a.6.6,0,1,1,0-1.19.6.6,0,0,1,0,1.19Zm0-.69a.1.1,0,0,0-.1.09c0,.11.19.11.19,0A.09.09,0,0,0,71.16,17.83Z" fill="#394757"/></g></g></g></g></g></g></svg>