<svg xmlns="http://www.w3.org/2000/svg" width="37" height="29.944" viewBox="0 0 37 29.944">
  <g id="Group_5" data-name="Group 5" transform="translate(-0.251 -0.25)">
    <path id="Stroke_1" data-name="Stroke 1" d="M33.6,5.358A2.388,2.388,0,0,1,36,7.716v18.87a2.388,2.388,0,0,1-2.4,2.358H2.4A2.387,2.387,0,0,1,0,26.586V7.716A2.387,2.387,0,0,1,2.4,5.358H9.867L11.7,0h12.91l1.52,5.358Z" transform="translate(0.751 0.75)" fill="none" stroke="#fff" stroke-linecap="round" stroke-linejoin="round" stroke-miterlimit="10" stroke-width="1"/>
    <path id="Stroke_3" data-name="Stroke 3" d="M13.5,6.75A6.75,6.75,0,1,1,6.75,0,6.751,6.751,0,0,1,13.5,6.75Z" transform="translate(12 10.117)" fill="none" stroke="#fff" stroke-linecap="round" stroke-linejoin="round" stroke-miterlimit="10" stroke-width="1"/>
  </g>
</svg>
