<svg xmlns="http://www.w3.org/2000/svg" width="18.01" height="16.65" viewBox="0 0 18.01 16.65"><g id="レイヤー_2" data-name="レイヤー 2"><g id="レイヤー_1-2" data-name="レイヤー 1"><g id="グループ_1259" data-name="グループ 1259"><path id="パス_1747" data-name="パス 1747" d="M4.84,4.39h0l.22-.21.07-.06A7,7,0,0,1,6,3.51l0,0,.54-.29.07,0a6.36,6.36,0,0,1,.95-.35h0a4.7,4.7,0,0,1,.63-.13H8.3a5.54,5.54,0,0,1,.6-.06H9A6.28,6.28,0,0,1,10,2.67,5.91,5.91,0,0,1,11.24,3l.17.06-.52.55-.27.27h0l5,1.26-1-3.33L14.23.13h0l-.9.93a8.74,8.74,0,0,0-9,.37l0,0L4,1.66l-.1.07-.25.2L3.55,2l-.2.18L3,2.53H3Z" fill="#fff"/><path id="パス_1748" data-name="パス 1748" d="M4.11,9.77a8.6,8.6,0,0,1-.19-.88l.74.18.37.1H5l-1-3.32L3.61,4.19h0L1.21,6.66,0,7.9H0l1.26.31A8.75,8.75,0,0,0,7.7,16.42l.68-2.52A6.1,6.1,0,0,1,4.11,9.77Z" fill="#fff"/><path id="パス_1749" data-name="パス 1749" d="M17.72,5.77a0,0,0,0,0,0,0h0L15,6.45h0a6.07,6.07,0,0,1-1.82,6L13,11.72l-.11-.38h0l-2.51,2.71L9.07,15.41h0l5.42,1.23-.41-1.33a8.82,8.82,0,0,0,3.65-9.55Z" fill="#fff"/></g></g></g></svg>