<svg xmlns="http://www.w3.org/2000/svg" width="33" height="33" viewBox="0 0 33 33"><g id="レイヤー_2" data-name="レイヤー 2"><g id="レイヤー_1-2" data-name="レイヤー 1"><circle id="Oval_3" data-name="Oval 3" cx="16.5" cy="16.5" r="16" fill="#4cb7e9" stroke="#fff" stroke-miterlimit="10"/><g id="グループ_569" data-name="グループ 569"><path id="パス_1564" data-name="パス 1564" d="M14.93,8.8a1.44,1.44,0,0,1,1.93-.65,1.46,1.46,0,0,1,.65.65l1.43,2.9a1.44,1.44,0,0,0,1.08.78l3.19.46a1.44,1.44,0,0,1,1.22,1.63,1.39,1.39,0,0,1-.42.82L21.7,17.65a1.44,1.44,0,0,0-.42,1.27l.55,3.18a1.44,1.44,0,0,1-1.17,1.66,1.51,1.51,0,0,1-.91-.14l-2.86-1.5a1.44,1.44,0,0,0-1.34,0l-2.85,1.5a1.45,1.45,0,0,1-2.09-1.52l.55-3.18a1.46,1.46,0,0,0-.41-1.27L8.43,15.39a1.45,1.45,0,0,1,0-2,1.51,1.51,0,0,1,.82-.42l3.2-.46a1.46,1.46,0,0,0,1.08-.78Z" fill="none" stroke="#fff" stroke-width="1.25"/></g></g></g></svg>