<svg xmlns="http://www.w3.org/2000/svg" width="16.85" height="14.56" viewBox="0 0 16.85 14.56"><g id="レイヤー_2" data-name="レイヤー 2"><g id="レイヤー_1-2" data-name="レイヤー 1"><g id="グループ_1066" data-name="グループ 1066"><path id="パス_1582" data-name="パス 1582" d="M2,2.7a1,1,0,0,0-1-1,1,1,0,0,0-1,1,1,1,0,0,0,1,1H1A1,1,0,0,0,2,2.7Z" fill="#2d3845"/><circle id="楕円形_65" data-name="楕円形 65" cx="15.84" cy="2.69" r="1.01" fill="#2d3845"/><path id="パス_1583" data-name="パス 1583" d="M8.43,2a1,1,0,1,0-1-1h0A1,1,0,0,0,8.43,2Z" fill="#2d3845"/><path id="パス_1584" data-name="パス 1584" d="M8.43,2.92,5.23,7.14,1.64,4.6l.88,6.8.13,1.06.28,2.1h11l.27-2.1.14-1.06.88-6.8L11.62,7.14Z" fill="#2d3845"/></g></g></g></svg>