<svg xmlns="http://www.w3.org/2000/svg" xmlns:xlink="http://www.w3.org/1999/xlink" width="204.094" height="51.236" viewBox="0 0 204.094 51.236">
  <defs>
    <clipPath id="clip-path">
      <path id="Clip_6" data-name="Clip 6" d="M11.29,0,2.027,5.5,0,15.921l8.106-4.7L.579,49.934H10.711L20.409,0Z" transform="translate(0.526 0.415)" fill="none"/>
    </clipPath>
    <linearGradient id="linear-gradient" x1="0.5" y1="1" x2="0.5" gradientUnits="objectBoundingBox">
      <stop offset="0" stop-color="#0084be"/>
      <stop offset="1" stop-color="#00b8ee"/>
    </linearGradient>
    <clipPath id="clip-path-2">
      <path id="Clip_9" data-name="Clip 9" d="M36.458,1.859c-.125.088-.263.191-.414.3h0c-1.345.988-3.378,2.483-5.584,2.483h0a4.441,4.441,0,0,1-2.129-.526h0a3.9,3.9,0,0,1-1.108-.9h0a22.93,22.93,0,0,1-3.468,4.546h0c-.284.3-.582.607-.89.917h0l-.08.083h0q-.48.479-1,.979h0L1.3,29.424,0,35.937H30.829l1.664-8.54H15.7L28.3,15.312c.257-.245.519-.494.783-.748h0c.121-.115.242-.232.364-.349h0l.444-.43h0q.233-.227.467-.459h0c.119-.117.238-.234.358-.355h0c.172-.171.343-.345.515-.52h0c.1-.1.2-.2.3-.309h0c.186-.191.369-.385.554-.582h0c.084-.088.166-.178.249-.268h0q.3-.318.586-.645h0l.18-.2h0c.212-.243.424-.489.632-.737h0l.043-.053h0a25.587,25.587,0,0,0,3.17-4.724h0c.023-.045.047-.089.069-.135h0c.149-.3.289-.607.422-.915h0l.08-.189h0q.19-.457.354-.925h0c.023-.066.044-.132.067-.2h0c.106-.317.2-.636.289-.961h0c.016-.055.027-.109.041-.164h0c.119-.471.212-.952.288-1.44h0a12.089,12.089,0,0,1-2.093,1.859" transform="translate(0.543 0.412)" fill="none"/>
    </clipPath>
    <clipPath id="clip-path-3">
      <path id="Clip_12" data-name="Clip 12" d="M15.2,35.059a17.922,17.922,0,0,1-10.72-3.175A10.848,10.848,0,0,1,0,22.9,15.042,15.042,0,0,1,2.931,13.91,17.465,17.465,0,0,1,10.2,8.283,10.491,10.491,0,0,1,5.979,3.056a5.382,5.382,0,0,0,.512.216A9.583,9.583,0,0,0,9.663,3.8a10.467,10.467,0,0,0,4.515-1.033,7.015,7.015,0,0,0,1.537-1.005,4.928,4.928,0,0,0,4.693,3.045,6.59,6.59,0,0,0,.829-.055A7.9,7.9,0,0,0,26.3,1.9a3.931,3.931,0,0,0,.942,1.021,4.093,4.093,0,0,0,2.5.824,7.68,7.68,0,0,0,3.92-1.411c.9-.559,1.672-1,2.291-1.347S37.1.326,37.607,0a13.752,13.752,0,0,1-1.291,2.611c-.19.3-.4.6-.625.908-.025.033-.05.065-.076.1l-.065.083c-.207.27-.383.489-.556.689-.055.066-.115.132-.172.2l-.044.048c-.2.219-.374.411-.548.586-.078.081-.164.165-.27.266-.177.173-.365.348-.559.519-.1.093-.211.185-.312.27-.173.146-.358.295-.581.467l-.079.061c-.087.067-.174.134-.263.2-.184.132-.381.269-.622.429l-.128.085c-.074.049-.15.1-.227.149-.232.147-.476.286-.7.414l-.115.066c-.068.04-.137.079-.207.117-.353.19-.713.368-1.071.528a12.618,12.618,0,0,1,3.755,3.754,11.169,11.169,0,0,1,1.746,6.088,14.864,14.864,0,0,1-6.061,12.257,19.867,19.867,0,0,1-6.212,3.12A24.244,24.244,0,0,1,15.2,35.059Zm3.691-22.433c-4.054,0-8.4,3.257-8.4,8.1a5.508,5.508,0,0,0,5.645,5.863c4.431,0,8.467-3.9,8.467-8.178A5.632,5.632,0,0,0,18.888,12.625Z" transform="translate(0.433 0.941)" fill="none"/>
    </clipPath>
  </defs>
  <g id="Group_19" data-name="Group 19" transform="translate(0 -1)">
    <path id="Fill_1" data-name="Fill 1" d="M0,0V49.731H18.9V46.748H3.268V0Z" transform="translate(0 1.808)" fill="#38383a"/>
    <path id="Fill_2" data-name="Fill 2" d="M0,49.731H3.268V0H0Z" transform="translate(26.294 1.809)" fill="#38383a"/>
    <path id="Fill_3" data-name="Fill 3" d="M23.516,0,13.428,45.967,3.339,0H0L10.94,49.731h4.832L26.571,0Z" transform="translate(36.909 1.808)" fill="#38383a"/>
    <path id="Fill_4" data-name="Fill 4" d="M0,0V49.731H19.609V46.748H3.269V26H16.838V23.018H3.269V2.984h16.34V0Z" transform="translate(70.912 1.808)" fill="#38383a"/>
    <g id="Group_7" data-name="Group 7" transform="translate(144 1.237)">
      <path id="Clip_6-2" data-name="Clip 6" d="M11.29,0,2.027,5.5,0,15.921l8.106-4.7L.579,49.934H10.711L20.409,0Z" transform="translate(0.526 0.415)" fill="none"/>
      <g id="Group_7-2" data-name="Group 7" clip-path="url(#clip-path)">
        <path id="Fill_5" data-name="Fill 5" d="M11.29,0,2.027,5.5,0,15.921l8.106-4.7L.579,49.934H10.711L20.409,0Z" transform="translate(0.526 0.415)" fill="url(#linear-gradient)"/>
      </g>
    </g>
    <g id="Group_10" data-name="Group 10" transform="translate(165 15.237)">
      <path id="Clip_9-2" data-name="Clip 9" d="M36.458,1.859c-.125.088-.263.191-.414.3h0c-1.345.988-3.378,2.483-5.584,2.483h0a4.441,4.441,0,0,1-2.129-.526h0a3.9,3.9,0,0,1-1.108-.9h0a22.93,22.93,0,0,1-3.468,4.546h0c-.284.3-.582.607-.89.917h0l-.08.083h0q-.48.479-1,.979h0L1.3,29.424,0,35.937H30.829l1.664-8.54H15.7L28.3,15.312c.257-.245.519-.494.783-.748h0c.121-.115.242-.232.364-.349h0l.444-.43h0q.233-.227.467-.459h0c.119-.117.238-.234.358-.355h0c.172-.171.343-.345.515-.52h0c.1-.1.2-.2.3-.309h0c.186-.191.369-.385.554-.582h0c.084-.088.166-.178.249-.268h0q.3-.318.586-.645h0l.18-.2h0c.212-.243.424-.489.632-.737h0l.043-.053h0a25.587,25.587,0,0,0,3.17-4.724h0c.023-.045.047-.089.069-.135h0c.149-.3.289-.607.422-.915h0l.08-.189h0q.19-.457.354-.925h0c.023-.066.044-.132.067-.2h0c.106-.317.2-.636.289-.961h0c.016-.055.027-.109.041-.164h0c.119-.471.212-.952.288-1.44h0a12.089,12.089,0,0,1-2.093,1.859" transform="translate(0.543 0.412)" fill="none"/>
      <g id="Group_10-2" data-name="Group 10" clip-path="url(#clip-path-2)">
        <path id="Fill_8" data-name="Fill 8" d="M36.458,1.859c-.125.088-.263.191-.414.3h0c-1.345.988-3.378,2.483-5.584,2.483h0a4.441,4.441,0,0,1-2.129-.526h0a3.9,3.9,0,0,1-1.108-.9h0a22.93,22.93,0,0,1-3.468,4.546h0c-.284.3-.582.607-.89.917h0l-.08.083h0q-.48.479-1,.979h0L1.3,29.424,0,35.937H30.829l1.664-8.54H15.7L28.3,15.312c.257-.245.519-.494.783-.748h0c.121-.115.242-.232.364-.349h0l.444-.43h0q.233-.227.467-.459h0c.119-.117.238-.234.358-.355h0c.172-.171.343-.345.515-.52h0c.1-.1.2-.2.3-.309h0c.186-.191.369-.385.554-.582h0c.084-.088.166-.178.249-.268h0q.3-.318.586-.645h0l.18-.2h0c.212-.243.424-.489.632-.737h0l.043-.053h0a25.587,25.587,0,0,0,3.17-4.724h0c.023-.045.047-.089.069-.135h0c.149-.3.289-.607.422-.915h0l.08-.189h0q.19-.457.354-.925h0c.023-.066.044-.132.067-.2h0c.106-.317.2-.636.289-.961h0c.016-.055.027-.109.041-.164h0c.119-.471.212-.952.288-1.44h0a12.089,12.089,0,0,1-2.093,1.859" transform="translate(0.543 0.412)" fill="url(#linear-gradient)"/>
      </g>
    </g>
    <g id="Group_13" data-name="Group 13" transform="translate(99 16.237)">
      <path id="Clip_12-2" data-name="Clip 12" d="M15.2,35.059a17.922,17.922,0,0,1-10.72-3.175A10.848,10.848,0,0,1,0,22.9,15.042,15.042,0,0,1,2.931,13.91,17.465,17.465,0,0,1,10.2,8.283,10.491,10.491,0,0,1,5.979,3.056a5.382,5.382,0,0,0,.512.216A9.583,9.583,0,0,0,9.663,3.8a10.467,10.467,0,0,0,4.515-1.033,7.015,7.015,0,0,0,1.537-1.005,4.928,4.928,0,0,0,4.693,3.045,6.59,6.59,0,0,0,.829-.055A7.9,7.9,0,0,0,26.3,1.9a3.931,3.931,0,0,0,.942,1.021,4.093,4.093,0,0,0,2.5.824,7.68,7.68,0,0,0,3.92-1.411c.9-.559,1.672-1,2.291-1.347S37.1.326,37.607,0a13.752,13.752,0,0,1-1.291,2.611c-.19.3-.4.6-.625.908-.025.033-.05.065-.076.1l-.065.083c-.207.27-.383.489-.556.689-.055.066-.115.132-.172.2l-.044.048c-.2.219-.374.411-.548.586-.078.081-.164.165-.27.266-.177.173-.365.348-.559.519-.1.093-.211.185-.312.27-.173.146-.358.295-.581.467l-.079.061c-.087.067-.174.134-.263.2-.184.132-.381.269-.622.429l-.128.085c-.074.049-.15.1-.227.149-.232.147-.476.286-.7.414l-.115.066c-.068.04-.137.079-.207.117-.353.19-.713.368-1.071.528a12.618,12.618,0,0,1,3.755,3.754,11.169,11.169,0,0,1,1.746,6.088,14.864,14.864,0,0,1-6.061,12.257,19.867,19.867,0,0,1-6.212,3.12A24.244,24.244,0,0,1,15.2,35.059Zm3.691-22.433c-4.054,0-8.4,3.257-8.4,8.1a5.508,5.508,0,0,0,5.645,5.863c4.431,0,8.467-3.9,8.467-8.178A5.632,5.632,0,0,0,18.888,12.625Z" transform="translate(0.433 0.941)" fill="none"/>
      <g id="Group_13-2" data-name="Group 13" clip-path="url(#clip-path-3)">
        <path id="Fill_11" data-name="Fill 11" d="M15.2,35.059a17.922,17.922,0,0,1-10.72-3.175A10.848,10.848,0,0,1,0,22.9,15.042,15.042,0,0,1,2.931,13.91,17.465,17.465,0,0,1,10.2,8.283,10.491,10.491,0,0,1,5.979,3.056a5.382,5.382,0,0,0,.512.216A9.583,9.583,0,0,0,9.663,3.8a10.467,10.467,0,0,0,4.515-1.033,7.015,7.015,0,0,0,1.537-1.005,4.928,4.928,0,0,0,4.693,3.045,6.59,6.59,0,0,0,.829-.055A7.9,7.9,0,0,0,26.3,1.9a3.931,3.931,0,0,0,.942,1.021,4.093,4.093,0,0,0,2.5.824,7.68,7.68,0,0,0,3.92-1.411c.9-.559,1.672-1,2.291-1.347S37.1.326,37.607,0a13.752,13.752,0,0,1-1.291,2.611c-.19.3-.4.6-.625.908-.025.033-.05.065-.076.1l-.065.083c-.207.27-.383.489-.556.689-.055.066-.115.132-.172.2l-.044.048c-.2.219-.374.411-.548.586-.078.081-.164.165-.27.266-.177.173-.365.348-.559.519-.1.093-.211.185-.312.27-.173.146-.358.295-.581.467l-.079.061c-.087.067-.174.134-.263.2-.184.132-.381.269-.622.429l-.128.085c-.074.049-.15.1-.227.149-.232.147-.476.286-.7.414l-.115.066c-.068.04-.137.079-.207.117-.353.19-.713.368-1.071.528a12.618,12.618,0,0,1,3.755,3.754,11.169,11.169,0,0,1,1.746,6.088,14.864,14.864,0,0,1-6.061,12.257,19.867,19.867,0,0,1-6.212,3.12A24.244,24.244,0,0,1,15.2,35.059Zm3.691-22.433c-4.054,0-8.4,3.257-8.4,8.1a5.508,5.508,0,0,0,5.645,5.863c4.431,0,8.467-3.9,8.467-8.178A5.632,5.632,0,0,0,18.888,12.625Z" transform="translate(0.433 0.941)" fill="url(#linear-gradient)"/>
      </g>
    </g>
    <g id="Group_18" data-name="Group 18" transform="translate(105 0.237)">
      <path id="Fill_14" data-name="Fill 14" d="M12.452,10.212c.073-.06.142-.123.22-.179l.021-.014.009-.007c.007-.006.015-.009.022-.015A7.644,7.644,0,0,1,17.132,8.54h0a0,0,0,0,0,0,0,5.008,5.008,0,0,1,5.11,4.661c.046.183.087.366.123.552.185.962-.08,2.582.8,3.252a1.467,1.467,0,0,0,.908.289,5.543,5.543,0,0,0,2.557-1.028c4.513-2.783,5.831-2.686,5.884-6.077-.007-.047-.014-.094-.022-.14,0-.022-.006-.044-.01-.066-.065-.371-.148-.733-.245-1.087-.006-.022-.011-.042-.017-.063-.1-.346-.208-.682-.333-1.009-.01-.025-.02-.049-.029-.073-.128-.327-.268-.645-.424-.954l-.027-.051a11.244,11.244,0,0,0-3.455-4c-.033-.023-.063-.05-.1-.073-.22-.156-.453-.3-.686-.444-.112-.068-.221-.139-.335-.206-.207-.119-.424-.229-.64-.338-.153-.078-.306-.155-.463-.227-.2-.093-.411-.18-.621-.265q-.277-.111-.562-.214c-.2-.071-.4-.138-.608-.2S23.513.653,23.293.6C23.1.544,22.9.492,22.7.447c-.247-.055-.5-.1-.751-.146-.187-.034-.372-.07-.562-.1-.3-.043-.6-.073-.9-.1-.159-.015-.314-.036-.475-.048C19.542.02,19.066,0,18.58,0s-.974.017-1.456.043l-.108.006c-.182.011-.361.029-.541.044-.3.024-.6.047-.9.081-.241.027-.479.064-.718.1s-.493.07-.737.112-.5.095-.75.146c-.221.046-.442.093-.66.145-.279.065-.557.139-.836.216-.2.056-.4.112-.6.174-.269.082-.537.171-.8.264-.222.078-.443.157-.661.241s-.412.165-.617.251c-.31.131-.618.267-.918.412l-.22.109q-.552.278-1.078.587c-.029.016-.061.031-.09.049l-.018.012A15.239,15.239,0,0,0,1.885,7.7C.345,10.52-1.358,15.9,1.7,16.972a6.928,6.928,0,0,0,2.3.383,7.848,7.848,0,0,0,3.378-.775,5.758,5.758,0,0,0,2.456-2.548,7.366,7.366,0,0,1,2.619-3.82" transform="translate(0.096 0.763)" fill="#ef8337"/>
      <path id="Fill_16" data-name="Fill 16" d="M22.631,16.456a1.828,1.828,0,0,0,.881.211c1.553,0,3.465-1.581,4.481-2.3,2.114-1.5,3.113-3.19,3.042-5.051a6.59,6.59,0,0,0-.955-3c-.054-.092-.116-.18-.172-.272-.171-.278-.345-.558-.555-.843A13.122,13.122,0,0,0,20.169.1l-.1-.014A14.716,14.716,0,0,0,18.527,0C9.118,0,1.52,5.935,0,14.474H8.973a10.49,10.49,0,0,1,.49-1.4,8.532,8.532,0,0,1,1.23-2.008c.069-.083.125-.18.2-.26.016-.017.034-.03.05-.047a7.128,7.128,0,0,1,1.838-1.463,7.043,7.043,0,0,1,.8-.356c.117-.046.225-.11.344-.15.2-.069.419-.1.629-.155.186-.045.366-.107.557-.137.229-.037.468-.039.7-.056.182-.012.36-.043.546-.043.23,0,.454.015.676.036.036,0,.07.007.1.012a4.949,4.949,0,0,1,4.14,3.065c.541,1.426-.293,4.059,1.354,4.949" transform="translate(67.49 0.763)" fill="#ef8337"/>
    </g>
  </g>
</svg>
