<?xml version="1.0" encoding="UTF-8"?>
<svg width="47px" height="20px" viewBox="0 0 47 20" version="1.1" xmlns="http://www.w3.org/2000/svg" xmlns:xlink="http://www.w3.org/1999/xlink">
    <!-- Generator: Sketch 61.2 (89653) - https://sketch.com -->
    <title>menu04</title>
    <desc>Created with Sketch.</desc>
    <g id="Page-1" stroke="none" stroke-width="1" fill="none" fill-rule="evenodd">
        <g id="3-3-1_メニュー表示" transform="translate(-293.000000, -608.000000)">
            <g id="menu04" transform="translate(293.000000, 608.000000)">
                <path d="M3.65462069,0.833333333 L10.9456552,0.833333333 C11.798069,0.833333333 12.6173793,1.26783333 13.4035862,2.13866667 C14.1881379,3.0095 14.582069,3.917 14.582069,4.86116667 C14.582069,5.23883333 14.4662069,5.55966667 14.2361379,5.82183333 C14.0027586,6.08583333 13.7164138,6.21783333 13.3754483,6.21783333 L10.9456552,6.21783333 C10.4342069,6.21783333 10.0866207,5.98866667 9.90289655,5.5285 C9.78206897,5.083 9.66124138,4.64483333 9.53875862,4.214 C9.35503448,3.75383333 9.01406897,3.52466667 8.51586207,3.52466667 L6.08606897,3.52466667 C5.74510345,3.52466667 5.45544828,3.653 5.21710345,3.90966667 C4.98041379,4.16633333 4.86124138,4.4835 4.86124138,4.86116667 L4.86124138,7.5525 C4.86124138,7.93016667 4.98041379,8.251 5.21710345,8.51316667 C5.45544828,8.77716667 5.74510345,8.90916667 6.08606897,8.90916667 L11.7202759,8.90916667 C12.2565517,8.90916667 12.768,9.08333333 13.2562759,9.43533333 C14.6548966,10.4326667 15.3566897,11.6078333 15.3566897,12.9571667 L15.3566897,15.6283333 C15.3566897,16.5725 14.9644138,17.4836667 14.1782069,18.36 C13.3936552,19.2381667 12.5743448,19.6763333 11.7202759,19.6763333 L3.65462069,19.6763333 C2.79062069,19.6763333 1.96468966,19.2418333 1.17848276,18.371 C0.392275862,17.5001667 0,16.5871667 0,15.6283333 C0,15.2506667 0.119172414,14.9335 0.357517241,14.6768333 C0.594206897,14.4201667 0.883862069,14.2918333 1.22482759,14.2918333 L3.65462069,14.2918333 C4.15448276,14.2918333 4.49544828,14.521 4.67751724,14.9811667 C4.8,15.412 4.92248276,15.8501667 5.04331034,16.2956667 C5.22537931,16.7558333 5.57296552,16.985 6.08606897,16.985 L9.29048276,16.985 C9.63144828,16.985 9.9177931,16.853 10.1495172,16.589 C10.3795862,16.3268333 10.4971034,16.006 10.4971034,15.6283333 L10.4971034,12.9571667 C10.4971034,12.5795 10.3795862,12.2586667 10.1495172,11.9946667 C9.9177931,11.7325 9.63144828,11.6005 9.29048276,11.6005 L3.65462069,11.6005 C3.10675862,11.6005 2.58868966,11.4245 2.10206897,11.0743333 C0.701793103,10.077 0,8.90183333 0,7.5525 L0,4.86116667 C0,3.917 0.395586207,3.0095 1.18841379,2.13866667 C1.97958621,1.26783333 2.8022069,0.833333333 3.65462069,0.833333333" id="Fill-1" fill="#FF7A5E"></path>
                <path d="M26.8932414,8.9088 L26.8932414,2.16946667 C26.8932414,1.7918 27.0107586,1.47463333 27.2491034,1.21796667 C27.4857931,0.9613 27.7754483,0.832966667 28.1164138,0.832966667 L28.8926897,0.832966667 C29.2204138,0.832966667 29.5034483,0.964966667 29.7417931,1.22896667 C29.9784828,1.49113333 30.0993103,1.80463333 30.0993103,2.16946667 L30.0993103,18.3193 C30.0993103,18.6969667 29.9817931,19.0178 29.7517241,19.2818 C29.52,19.5439667 29.2336552,19.6759667 28.8926897,19.6759667 C28.0022069,19.6759667 29.0731034,19.6484667 28.7917241,19.5953 C28.1710345,19.4743 27.6546207,19.1828 27.2408276,18.7244667 L22.1164138,11.2151333 C21.9343448,11.0134667 21.7688276,10.9126333 21.6215172,10.9126333 C21.3798621,10.9126333 21.2573793,11.1418 21.2573793,11.6001333 L21.2573793,18.3193 C21.2573793,18.6969667 21.1415172,19.0178 20.9114483,19.2818 C20.678069,19.5439667 20.3917241,19.6759667 20.0507586,19.6759667 L17.6209655,19.6759667 C17.28,19.6759667 16.992,19.5439667 16.7536552,19.2818 C16.5153103,19.0178 16.3961379,18.6969667 16.3961379,18.3193 L16.3961379,2.16946667 C16.3961379,1.7918 16.5153103,1.47463333 16.7536552,1.21796667 C16.992,0.9613 17.28,0.832966667 17.6209655,0.832966667 C18.4982069,0.832966667 19.0758621,0.860466667 19.3572414,0.913633333 C19.977931,1.03646667 20.496,1.32613333 20.9114483,1.78446667 L26.0325517,9.2938 C26.217931,9.49546667 26.3801379,9.5963 26.5274483,9.5963 C26.7707586,9.5963 26.8932414,9.36713333 26.8932414,8.9088" id="Fill-4" fill="#92FFEF"></path>
                <path d="M34.7925517,0.833333333 L42.0835862,0.833333333 C42.936,0.833333333 43.7553103,1.26783333 44.5415172,2.13866667 C45.326069,3.0095 45.72,3.917 45.72,4.86116667 C45.72,5.23883333 45.6041379,5.55966667 45.374069,5.82183333 C45.1406897,6.08583333 44.8543448,6.21783333 44.5133793,6.21783333 L42.0835862,6.21783333 C41.5721379,6.21783333 41.2245517,5.98866667 41.0408276,5.5285 C40.92,5.083 40.7991724,4.64483333 40.6766897,4.214 C40.4929655,3.75383333 40.152,3.52466667 39.6537931,3.52466667 L37.224,3.52466667 C36.8830345,3.52466667 36.5933793,3.653 36.3550345,3.90966667 C36.1183448,4.16633333 35.9991724,4.4835 35.9991724,4.86116667 L35.9991724,7.5525 C35.9991724,7.93016667 36.1183448,8.251 36.3550345,8.51316667 C36.5933793,8.77716667 36.8830345,8.90916667 37.224,8.90916667 L42.8582069,8.90916667 C43.3944828,8.90916667 43.905931,9.08333333 44.3942069,9.43533333 C45.7928276,10.4326667 46.4946207,11.6078333 46.4946207,12.9571667 L46.4946207,15.6283333 C46.4946207,16.5725 46.1023448,17.4836667 45.3161379,18.36 C44.5315862,19.2381667 43.7122759,19.6763333 42.8582069,19.6763333 L34.7925517,19.6763333 C33.9285517,19.6763333 33.1026207,19.2418333 32.3164138,18.371 C31.5302069,17.5001667 31.137931,16.5871667 31.137931,15.6283333 C31.137931,15.2506667 31.2571034,14.9335 31.4954483,14.6768333 C31.7321379,14.4201667 32.0217931,14.2918333 32.3627586,14.2918333 L34.7925517,14.2918333 C35.2924138,14.2918333 35.6333793,14.521 35.8154483,14.9811667 C35.937931,15.412 36.0604138,15.8501667 36.1812414,16.2956667 C36.3633103,16.7558333 36.7108966,16.985 37.224,16.985 L40.4284138,16.985 C40.7693793,16.985 41.0557241,16.853 41.2874483,16.589 C41.5175172,16.3268333 41.6350345,16.006 41.6350345,15.6283333 L41.6350345,12.9571667 C41.6350345,12.5795 41.5175172,12.2586667 41.2874483,11.9946667 C41.0557241,11.7325 40.7693793,11.6005 40.4284138,11.6005 L34.7925517,11.6005 C34.2446897,11.6005 33.7266207,11.4245 33.24,11.0743333 C31.8397241,10.077 31.137931,8.90183333 31.137931,7.5525 L31.137931,4.86116667 C31.137931,3.917 31.5335172,3.0095 32.3263448,2.13866667 C33.1175172,1.26783333 33.9401379,0.833333333 34.7925517,0.833333333" id="Fill-6" fill="#FFFD4C"></path>
            </g>
        </g>
    </g>
</svg>