<svg xmlns="http://www.w3.org/2000/svg" width="20.2" height="17.905" viewBox="0 0 20.2 17.905">
  <g id="Group_13" data-name="Group 13" transform="translate(0.1 0.1)">
    <path id="Stroke_1" data-name="Stroke 1" d="M5.065,12.579H1.28A1.273,1.273,0,0,1,0,11.322V1.258A1.274,1.274,0,0,1,1.28,0H17.92A1.274,1.274,0,0,1,19.2,1.258V11.322a1.273,1.273,0,0,1-1.28,1.257H14.1" transform="translate(0.4 0.4)" fill="none" stroke="#fff" stroke-linecap="round" stroke-linejoin="round" stroke-miterlimit="10" stroke-width="1"/>
    <path id="Stroke_3" data-name="Stroke 3" d="M0,.4H18.8" transform="translate(0.6 3.782)" fill="none" stroke="#fff" stroke-linecap="round" stroke-linejoin="round" stroke-miterlimit="10" stroke-width="1"/>
    <path id="Stroke_5" data-name="Stroke 5" d="M.4,0V1.4" transform="translate(9.642 13.689)" fill="none" stroke="#fff" stroke-linecap="round" stroke-linejoin="round" stroke-miterlimit="10" stroke-width="1"/>
    <path id="Stroke_7" data-name="Stroke 7" d="M.969.485A.484.484,0,1,1,.485,0,.484.484,0,0,1,.969.485Z" transform="translate(9.558 12.463)" fill="none" stroke="#fff" stroke-linecap="round" stroke-linejoin="round" stroke-miterlimit="10" stroke-width="1"/>
    <path id="Stroke_9" data-name="Stroke 9" d="M0,4.44V2.88A2.913,2.913,0,0,1,2.945,0,2.913,2.913,0,0,1,5.89,2.88V4.44" transform="translate(7.057 5.674)" fill="none" stroke="#fff" stroke-linecap="round" stroke-linejoin="round" stroke-miterlimit="10" stroke-width="1"/>
    <path id="Stroke_11" data-name="Stroke 11" d="M8.879,2.95A4.288,4.288,0,0,1,4.543,7.19,4.469,4.469,0,0,1,0,2.95L0,.524A.523.523,0,0,1,.524,0h7.77a.523.523,0,0,1,.523.51Z" transform="translate(5.56 10.114)" fill="none" stroke="#fff" stroke-linecap="round" stroke-linejoin="round" stroke-miterlimit="10" stroke-width="1"/>
  </g>
</svg>
