<svg xmlns="http://www.w3.org/2000/svg" width="44.72" height="38.64" viewBox="0 0 44.72 38.64"><g id="レイヤー_2" data-name="レイヤー 2"><g id="レイヤー_1-2" data-name="レイヤー 1"><g id="グループ_860" data-name="グループ 860"><path id="パス_1582" data-name="パス 1582" d="M5.34,7.15A2.67,2.67,0,1,0,2.67,9.82,2.66,2.66,0,0,0,5.34,7.15Z" fill="#fedd51"/><circle id="楕円形_65" data-name="楕円形 65" cx="42.05" cy="7.15" r="2.67" fill="#fedd51"/><path id="パス_1583" data-name="パス 1583" d="M22.36,5.34a2.67,2.67,0,1,0-2.67-2.67,2.66,2.66,0,0,0,2.67,2.67Z" fill="#fedd51"/><path id="パス_1584" data-name="パス 1584" d="M22.36,7.73,13.88,18.94,4.36,12.21l2.33,18,.36,2.8.73,5.59H36.94l.73-5.59.36-2.8,2.33-18-9.52,6.73Z" fill="#fedd51"/></g><g id="_1" data-name=" 1" style="isolation:isolate"><text transform="translate(18.63 29.64)" font-size="14" fill="#2d3845" font-family="Roboto-Bold, Roboto" font-weight="700" style="isolation:isolate">1</text></g></g></g></svg>