<svg xmlns="http://www.w3.org/2000/svg" width="31.84" height="27.51" viewBox="0 0 31.84 27.51"><g id="レイヤー_2" data-name="レイヤー 2"><g id="レイヤー_1-2" data-name="レイヤー 1"><g id="グループ_862" data-name="グループ 862"><path id="パス_1582" data-name="パス 1582" d="M3.8,5.09A1.9,1.9,0,1,0,0,5.1a1.9,1.9,0,0,0,3.8,0Z" fill="#c0c5c8"/><circle id="楕円形_65" data-name="楕円形 65" cx="29.94" cy="5.09" r="1.9" fill="#c0c5c8"/><path id="パス_1583" data-name="パス 1583" d="M15.92,3.8A1.9,1.9,0,1,0,14,1.9h0A1.9,1.9,0,0,0,15.92,3.8Z" fill="#c0c5c8"/><path id="パス_1584" data-name="パス 1584" d="M15.92,5.5l-6,8L3.1,8.69,4.76,21.53l.26,2,.52,4H26.31l.51-4,.26-2L28.74,8.69,22,13.48Z" fill="#c0c5c8"/></g><g id="_2" data-name=" 2" style="isolation:isolate"><text transform="translate(12.89 21.49)" font-size="10" fill="#2d3845" font-family="Roboto-Bold, Roboto" font-weight="700" style="isolation:isolate">2</text></g></g></g></svg>