<svg xmlns="http://www.w3.org/2000/svg" width="19.316" height="22.12" viewBox="0 0 19.316 22.12">
  <g id="Group_11" data-name="Group 11" transform="translate(0.06 0.06)">
    <path id="Stroke_1" data-name="Stroke 1" d="M13.965,0,12.947,15.524a1.62,1.62,0,0,1-1.6,1.628H2.615a1.618,1.618,0,0,1-1.6-1.628L0,0" transform="translate(2.616 4.408)" fill="none" stroke="#fff" stroke-linecap="round" stroke-linejoin="round" stroke-miterlimit="10" stroke-width="1"/>
    <path id="Stroke_3" data-name="Stroke 3" d="M0,3.85.087,1.331A1.233,1.233,0,0,1,1.175,0H7.108A1.232,1.232,0,0,1,8.195,1.331L8.281,3.85" transform="translate(5.458 0.44)" fill="none" stroke="#fff" stroke-linecap="round" stroke-linejoin="round" stroke-miterlimit="10" stroke-width="1"/>
    <path id="Stroke_5" data-name="Stroke 5" d="M0,.44H18.316" transform="translate(0.44 3.85)" fill="none" stroke="#fff" stroke-linecap="round" stroke-linejoin="round" stroke-miterlimit="10" stroke-width="1"/>
    <path id="Stroke_7" data-name="Stroke 7" d="M.126,0,.754,10.666" transform="translate(5.915 7.862)" fill="none" stroke="#fff" stroke-linecap="round" stroke-linejoin="round" stroke-miterlimit="10" stroke-width="1"/>
    <path id="Stroke_9" data-name="Stroke 9" d="M.265,0l.35,7.108" transform="translate(8.825 11.421)" fill="none" stroke="#fff" stroke-linecap="round" stroke-linejoin="round" stroke-miterlimit="10" stroke-width="1"/>
  </g>
</svg>
