<svg xmlns="http://www.w3.org/2000/svg" width="18.286" height="15.409" viewBox="0 0 18.286 15.409">
  <g id="Group_9" data-name="Group 9" transform="translate(-0.381 -0.381)">
    <path id="Stroke_1" data-name="Stroke 1" d="M17.067,0a1.212,1.212,0,0,1,1.218,1.2v9.585a1.212,1.212,0,0,1-1.218,1.2H14.13l-.277,3.429-2.91-3.429H1.219A1.212,1.212,0,0,1,0,10.782V1.2A1.212,1.212,0,0,1,1.219,0Z" transform="translate(0.381 0.381)" fill="#f5f5f5"/>
    <path id="Stroke_3" data-name="Stroke 3" d="M.791.4A.4.4,0,1,1,.4,0,.4.4,0,0,1,.791.4Z" transform="translate(6.387 5.975)" fill="none" stroke="#2d3845" stroke-linecap="round" stroke-linejoin="round" stroke-miterlimit="10" stroke-width="1"/>
    <path id="Stroke_5" data-name="Stroke 5" d="M.791.4A.4.4,0,1,1,.4,0,.4.4,0,0,1,.791.4Z" transform="translate(9.224 5.975)" fill="none" stroke="#2d3845" stroke-linecap="round" stroke-linejoin="round" stroke-miterlimit="10" stroke-width="1"/>
    <path id="Stroke_7" data-name="Stroke 7" d="M.791.4A.4.4,0,1,1,.4,0,.4.4,0,0,1,.791.4Z" transform="translate(11.869 5.975)" fill="none" stroke="#2d3845" stroke-linecap="round" stroke-linejoin="round" stroke-miterlimit="10" stroke-width="1"/>
  </g>
</svg>
