<svg xmlns="http://www.w3.org/2000/svg" width="58" height="58" viewBox="0 0 58 58"><g id="レイヤー_2" data-name="レイヤー 2"><g id="レイヤー_1-2" data-name="レイヤー 1"><path id="パス_1777" data-name="パス 1777" d="M45.89,19.79a11,11,0,0,1-.57,1.76,9.38,9.38,0,0,0-.69,4c0,1,0,2.3-.61,3a1.72,1.72,0,0,1-1.54.47L41.92,29l-.21.62a32,32,0,0,1-1.41,3.5,26.71,26.71,0,0,1-1.74,3.08A17.54,17.54,0,0,1,34,41.14a8.5,8.5,0,0,1-9.93,0,17.83,17.83,0,0,1-4.6-4.92,25.23,25.23,0,0,1-1.73-3.08,28.43,28.43,0,0,1-1.41-3.5L16.08,29l-.56.06A1.75,1.75,0,0,1,14,28.6c-.64-.73-.62-2.05-.61-3a9.26,9.26,0,0,0-.7-4,13.38,13.38,0,0,1-.57-1.76,7.41,7.41,0,0,1-.13-2.3l-1.54.24a9.54,9.54,0,0,0,.21,2.5,12.66,12.66,0,0,0,.66,2.06,7.68,7.68,0,0,1,.56,3.28c0,1.53.05,3.14,1.06,4.3a2.89,2.89,0,0,0,2.16,1A30.54,30.54,0,0,0,16.38,34a28.18,28.18,0,0,0,1.86,3.3,19.21,19.21,0,0,0,5,5.36,9.81,9.81,0,0,0,11.44,0,19.21,19.21,0,0,0,5-5.36A28.18,28.18,0,0,0,41.62,34a30.54,30.54,0,0,0,1.3-3.14,2.89,2.89,0,0,0,2.16-1c1-1.16,1.07-2.77,1.06-4.3a7.53,7.53,0,0,1,.56-3.28,12.66,12.66,0,0,0,.66-2.06,9.3,9.3,0,0,0,.22-2.17l-1.53-.37A7.07,7.07,0,0,1,45.89,19.79Z" fill="#fff"/><path d="M29.31,39.56c-.35,0-.7,0-1-.05l.08-1c.32,0,.64,0,1,.05Zm1,0-.08-1c.31,0,.63-.06.95-.11l.16,1Zm-3.11-.14c-.34-.05-.68-.12-1-.2l.23-1c.31.07.63.13.95.18Zm5.16-.19-.24-1c.31-.08.61-.17.92-.27l.32.95C33.06,39,32.73,39.11,32.4,39.19Zm-7.17-.28-1-.34.36-.94c.3.12.6.22.91.32Zm9.14-.38L34,37.61c.29-.12.58-.26.88-.41l.45.9C35,38.26,34.68,38.4,34.37,38.53ZM23.3,38.17c-.32-.14-.63-.29-.92-.45l.46-.89c.28.15.57.29.87.43Zm12.91-.58-.51-.85c.27-.17.54-.34.81-.53l.57.83C36.79,37.24,36.5,37.42,36.21,37.59Zm-14.73-.37q-.46-.27-.87-.54l.55-.84c.26.17.54.35.83.52Zm16.43-.79-.61-.79c.25-.2.5-.4.75-.62l.65.76C38.44,36,38.17,36.22,37.91,36.43Zm-18.14-.34c-.3-.21-.57-.42-.82-.62l.63-.78.78.6Zm19.69-1-.69-.72.69-.69.72.69ZM18.17,34.8c-.49-.44-.76-.72-.76-.72l.73-.68s.25.26.7.66Z" fill="#fff"/><rect width="58" height="58" fill="none"/></g></g></svg>