<svg xmlns="http://www.w3.org/2000/svg" width="58" height="58" viewBox="0 0 58 58"><g id="レイヤー_2" data-name="レイヤー 2"><g id="レイヤー_1-2" data-name="レイヤー 1"><path id="パス_1789" data-name="パス 1789" d="M45.89,19.79a11,11,0,0,1-.57,1.76,9.38,9.38,0,0,0-.69,4c0,1,0,2.3-.61,3a1.72,1.72,0,0,1-1.54.47L41.92,29l-.21.62a32,32,0,0,1-1.41,3.5,26.71,26.71,0,0,1-1.74,3.08A17.54,17.54,0,0,1,34,41.14a8.5,8.5,0,0,1-9.93,0,17.83,17.83,0,0,1-4.6-4.92,25.23,25.23,0,0,1-1.73-3.08,28.43,28.43,0,0,1-1.41-3.5L16.08,29l-.56.06A1.75,1.75,0,0,1,14,28.6c-.64-.73-.62-2.05-.61-3a9.26,9.26,0,0,0-.7-4,13.38,13.38,0,0,1-.57-1.76,7.41,7.41,0,0,1-.13-2.3l-1.54.24a9.54,9.54,0,0,0,.21,2.5,12.66,12.66,0,0,0,.66,2.06,7.68,7.68,0,0,1,.56,3.28c0,1.53.05,3.14,1.06,4.3a2.89,2.89,0,0,0,2.16,1A30.54,30.54,0,0,0,16.38,34a28.18,28.18,0,0,0,1.86,3.3,19.21,19.21,0,0,0,5,5.36,9.81,9.81,0,0,0,11.44,0,19.21,19.21,0,0,0,5-5.36A28.18,28.18,0,0,0,41.62,34a30.54,30.54,0,0,0,1.3-3.14,2.89,2.89,0,0,0,2.16-1c1-1.16,1.07-2.77,1.06-4.3a7.53,7.53,0,0,1,.56-3.28,12.66,12.66,0,0,0,.66-2.06,9.3,9.3,0,0,0,.22-2.17l-1.53-.37A7.07,7.07,0,0,1,45.89,19.79Z" fill="#fff"/><g id="グループ_1352" data-name="グループ 1352"><path id="パス_1793" data-name="パス 1793" d="M30.62,40.45a.56.56,0,0,1-.49-.61.54.54,0,0,1,.36-.46,10.47,10.47,0,0,0,5-4.26.55.55,0,0,1,.75-.22.56.56,0,0,1,.22.75,11.4,11.4,0,0,1-5.63,4.76A.67.67,0,0,1,30.62,40.45Z" fill="#fff"/><circle id="楕円形_99" data-name="楕円形 99" cx="37.52" cy="33.06" r="0.85" fill="#fff"/></g><rect width="58" height="58" fill="none"/></g></g></svg>