<svg xmlns="http://www.w3.org/2000/svg" width="58" height="58" viewBox="0 0 58 58"><g id="レイヤー_2" data-name="レイヤー 2"><g id="レイヤー_1-2" data-name="レイヤー 1"><path id="パス_1787" data-name="パス 1787" d="M9.88,26.24a26.42,26.42,0,0,0,5.63-3.39C19,20.35,22.2,18,25.81,20A6.8,6.8,0,0,0,29,21.13,6.8,6.8,0,0,0,32.19,20c3.61-2,6.82.34,10.3,2.84a26.42,26.42,0,0,0,5.63,3.39l.88.35-.72.61c-1.7,1.43-3.13,2.89-4.46,4.24-4,4.07-7.15,7.29-14.82,7.29s-10.83-3.22-14.82-7.29c-1.33-1.35-2.75-2.81-4.46-4.24L9,26.59l.88-.35Zm2.09.27c.53.11,1.07.2,1.61.26a20.93,20.93,0,0,0,3.36.08,32.33,32.33,0,0,1,4.72,0,15.87,15.87,0,0,1,2.9.51,18.13,18.13,0,0,0,4.44.83,18.13,18.13,0,0,0,4.44-.83,15.87,15.87,0,0,1,2.9-.51,32.33,32.33,0,0,1,4.72,0,21.06,21.06,0,0,0,3.37-.08c.54-.06,1.07-.15,1.6-.26a38.36,38.36,0,0,1-4.2-2.75c-3.18-2.29-6.11-4.4-9.1-2.76A7.91,7.91,0,0,1,29,22.26,7.83,7.83,0,0,1,25.28,21c-3-1.64-5.93.47-9.11,2.76A37.43,37.43,0,0,1,12,26.51Zm34.1,1.14q-.76.15-1.53.24A22,22,0,0,1,41,28a30.18,30.18,0,0,0-4.56,0,15.54,15.54,0,0,0-2.71.48,18.52,18.52,0,0,1-4.73.86,18.6,18.6,0,0,1-4.73-.86A15.38,15.38,0,0,0,21.56,28,30.18,30.18,0,0,0,17,28a22,22,0,0,1-3.54-.08q-.77-.09-1.53-.24c1.12,1,2.11,2,3.06,3,3.8,3.87,6.81,6.94,14,6.94s10.22-3.07,14-6.94c.94-1,1.93-2,3-3Z" fill="#fff" fill-rule="evenodd"/><rect width="58" height="58" fill="none"/></g></g></svg>