<svg xmlns="http://www.w3.org/2000/svg" width="58" height="58" viewBox="0 0 58 58"><g id="レイヤー_2" data-name="レイヤー 2"><g id="レイヤー_1-2" data-name="レイヤー 1"><g id="グループ_1325" data-name="グループ 1325"><path id="パス_1773" data-name="パス 1773" d="M27.57,26.23c0-1.93-2.08-3.5-4.64-3.5s-4.65,1.57-4.65,3.5,2.08,3.5,4.65,3.5S27.57,28.17,27.57,26.23Zm-8.22,0c0-1.34,1.6-2.43,3.57-2.43s3.58,1.09,3.58,2.43-1.6,2.43-3.58,2.43S19.35,27.57,19.35,26.23Z" fill="#fff"/><path id="パス_1774" data-name="パス 1774" d="M35.08,22.73c-2.57,0-4.65,1.57-4.65,3.5s2.08,3.5,4.65,3.5,4.64-1.57,4.64-3.5S37.64,22.73,35.08,22.73Zm0,5.93c-2,0-3.58-1.09-3.58-2.43s1.6-2.43,3.58-2.43,3.57,1.09,3.57,2.43S37,28.66,35.08,28.66Z" fill="#fff"/><path id="パス_1775" data-name="パス 1775" d="M29,33.81c-3,0-6.14.66-6.14,2.51,0,1.69,2.87,3.18,6.14,3.18s6.14-1.48,6.14-3.18S32,33.81,29,33.81Zm0,4.62c-2.89,0-5.07-1.28-5.07-2.1s1.94-1.45,5.07-1.45,5.07.75,5.07,1.45S31.89,38.43,29,38.43Z" fill="#fff"/><path id="パス_1776" data-name="パス 1776" d="M42.7,16.27a.55.55,0,0,0-.67-.1l-1.92,1.15,1.12-1.87a.52.52,0,0,0-.11-.68,18.69,18.69,0,0,0-24.24,0,.54.54,0,0,0-.12.68l1.13,1.88L16,16.18a.53.53,0,0,0-.67.1A18.68,18.68,0,0,0,10.3,29c0,.17,0,.33,0,.49a.54.54,0,0,0,.41.51l2.54.64-2.34.59a.53.53,0,0,0-.4.6A18.47,18.47,0,0,0,15.1,41.5a.53.53,0,0,0,.67.1l2.12-1.26-1.26,2.1a.54.54,0,0,0,.11.68,18.71,18.71,0,0,0,24.52,0,.54.54,0,0,0,.11-.68l-1.26-2.1,2.12,1.26a.53.53,0,0,0,.67-.1,18.47,18.47,0,0,0,4.58-9.67.53.53,0,0,0-.4-.6l-2.34-.59L47.28,30a.54.54,0,0,0,.41-.51c0-.16,0-.32,0-.49A18.68,18.68,0,0,0,42.7,16.27Zm3.92,12.78-4.21,1.06a.53.53,0,0,0-.39.65.55.55,0,0,0,.39.39l3.93,1a17.53,17.53,0,0,1-3.94,8.31l-3.57-2.13a.53.53,0,0,0-.74.73l2.13,3.55a17.63,17.63,0,0,1-22.43,0l2.12-3.55a.54.54,0,0,0-.74-.73L15.6,40.45a17.64,17.64,0,0,1-3.95-8.31l3.94-1A.53.53,0,0,0,16,30.5a.55.55,0,0,0-.39-.39l-4.21-1.06V29A17.58,17.58,0,0,1,15.8,17.32l3.37,2a.54.54,0,0,0,.74-.18.54.54,0,0,0,0-.55l-2-3.32a17.64,17.64,0,0,1,22.16,0l-2,3.32a.54.54,0,0,0,.74.73l3.37-2A17.53,17.53,0,0,1,46.62,29Z" fill="#fff"/></g><rect width="58" height="58" fill="none"/></g></g></svg>