<svg xmlns="http://www.w3.org/2000/svg" width="58" height="58" viewBox="0 0 58 58"><g id="レイヤー_2" data-name="レイヤー 2"><g id="レイヤー_1-2" data-name="レイヤー 1"><path id="パス_1789" data-name="パス 1789" d="M45.89,18.23A11.28,11.28,0,0,1,45.32,20a9.38,9.38,0,0,0-.69,4c0,1,0,2.3-.61,3a1.72,1.72,0,0,1-1.54.47l-.56-.05-.21.62a32,32,0,0,1-1.41,3.5,26.71,26.71,0,0,1-1.74,3.08A17.54,17.54,0,0,1,34,39.58a8.5,8.5,0,0,1-9.93,0,17.83,17.83,0,0,1-4.6-4.92,25.23,25.23,0,0,1-1.73-3.08,28.43,28.43,0,0,1-1.41-3.5l-.21-.62-.56.06A1.75,1.75,0,0,1,14,27c-.64-.73-.62-2.05-.61-3a9.26,9.26,0,0,0-.7-4,13.38,13.38,0,0,1-.57-1.76,7.41,7.41,0,0,1-.13-2.3l-1.54.24a9.54,9.54,0,0,0,.21,2.5,12.66,12.66,0,0,0,.66,2.06A7.68,7.68,0,0,1,11.86,24c0,1.53.05,3.14,1.06,4.3a2.89,2.89,0,0,0,2.16,1,30.54,30.54,0,0,0,1.3,3.14,28.18,28.18,0,0,0,1.86,3.3,19.21,19.21,0,0,0,5,5.36,9.81,9.81,0,0,0,11.44,0,19.21,19.21,0,0,0,5-5.36,28.18,28.18,0,0,0,1.86-3.3,30.54,30.54,0,0,0,1.3-3.14,2.92,2.92,0,0,0,2.16-1c1-1.16,1.07-2.77,1.06-4.3a7.53,7.53,0,0,1,.56-3.28,12.66,12.66,0,0,0,.66-2.06,9.3,9.3,0,0,0,.22-2.17l-1.53-.37A7.07,7.07,0,0,1,45.89,18.23Z" fill="#fff"/><g id="グループ_1346" data-name="グループ 1346"><path d="M22,46.07c-.2-.13-5.09-3.34-7.1-7.16l.89-.47c1.88,3.59,6.71,6.76,6.76,6.79Z" fill="#fff"/><path id="多角形_13-2" data-name="多角形 13-2" d="M14.47,37.43l3.34,1.37L14.49,41Z" fill="#fff"/></g><g id="グループ_1346-2" data-name="グループ 1346"><path d="M35.74,46.07c.21-.13,5.1-3.34,7.11-7.16L42,38.44C40.08,42,35.25,45.2,35.2,45.23Z" fill="#fff"/><path id="多角形_13-2-2" data-name="多角形 13-2" d="M43.23,41,39.91,38.8l3.33-1.37Z" fill="#fff"/></g><rect width="58" height="58" fill="none"/></g></g></svg>