<svg xmlns="http://www.w3.org/2000/svg" width="58" height="58" viewBox="0 0 58 58"><g id="レイヤー_2" data-name="レイヤー 2"><g id="レイヤー_1-2" data-name="レイヤー 1"><g id="グループ_1372" data-name="グループ 1372"><path id="パス_1796" data-name="パス 1796" d="M39.28,24.83,37,24.22a.16.16,0,0,1-.12-.12l-.6-2.28a.15.15,0,0,0-.18-.11.14.14,0,0,0-.11.11l-.61,2.28a.15.15,0,0,1-.12.12L33,24.83a.14.14,0,0,0-.11.17.13.13,0,0,0,.11.11l2.28.61a.15.15,0,0,1,.12.12L36,28.12a.15.15,0,0,0,.18.11.14.14,0,0,0,.11-.11l.6-2.28a.16.16,0,0,1,.12-.12l2.29-.61a.14.14,0,0,0,0-.28Z" fill="#fff"/><path id="パス_1789" data-name="パス 1789" d="M41.86,30.85a9.09,9.09,0,0,1-.43,1.34,6.83,6.83,0,0,0-.53,3.06,3.68,3.68,0,0,1-.46,2.3,1.33,1.33,0,0,1-1.18.37l-.42,0-.16.46A21.93,21.93,0,0,1,37.6,41a18,18,0,0,1-1.32,2.34,13.27,13.27,0,0,1-3.5,3.74,6.44,6.44,0,0,1-7.55,0,13.27,13.27,0,0,1-3.5-3.74A18,18,0,0,1,20.41,41a25.53,25.53,0,0,1-1.08-2.66l-.15-.47-.43,0a1.3,1.3,0,0,1-1.17-.37,3.62,3.62,0,0,1-.47-2.3,7,7,0,0,0-.52-3.06,8.75,8.75,0,0,1-.44-1.34,5.7,5.7,0,0,1-.1-1.75l-1.17.18A7.23,7.23,0,0,0,15,31.19a10.5,10.5,0,0,0,.5,1.56,5.77,5.77,0,0,1,.43,2.5,4.76,4.76,0,0,0,.81,3.27,2.2,2.2,0,0,0,1.64.76,21.5,21.5,0,0,0,1,2.39,20.71,20.71,0,0,0,1.42,2.51,14.6,14.6,0,0,0,3.83,4.08,7.45,7.45,0,0,0,8.7,0,14.6,14.6,0,0,0,3.83-4.08,20.71,20.71,0,0,0,1.42-2.51,21.5,21.5,0,0,0,1-2.39,2.2,2.2,0,0,0,1.64-.76,4.76,4.76,0,0,0,.81-3.27,5.77,5.77,0,0,1,.43-2.5,10.5,10.5,0,0,0,.5-1.56,7.64,7.64,0,0,0,.17-1.65L42,29.26A5.32,5.32,0,0,1,41.86,30.85Z" fill="#fff"/><g id="グループ_1371" data-name="グループ 1371"><path id="パス_1797" data-name="パス 1797" d="M43.19,29.5l-1.1-.08c0-.06.38-6.27-3.35-10.36-2.11-2.32-5.14-3.54-9-3.64-4.18-.11-7.5,1-9.84,3.4C15.83,22.92,16,29.38,16,29.44l-1.1,0c0-.28-.2-7,4.2-11.43,2.56-2.59,6.16-3.85,10.65-3.73,4.19.11,7.48,1.45,9.8,4C43.61,22.77,43.21,29.23,43.19,29.5Z" fill="#fff"/><path id="パス_1798" data-name="パス 1798" d="M36.25,16H35.19A6.13,6.13,0,1,0,23,15.09a6.76,6.76,0,0,0,0,.9H21.9a7.19,7.19,0,1,1,14.35-.91,6.91,6.91,0,0,1,0,.91Z" fill="#fff"/></g><path id="パス_1799" data-name="パス 1799" d="M42.5,30.84c-.31,0-1.32-.34-3.85-3.07l.85-.8c2.29,2.47,3.08,2.7,3.11,2.71h-.07Z" fill="#fff"/><path id="パス_1800" data-name="パス 1800" d="M15,29.82l-.18-1.08a32,32,0,0,0,12.88-5.08,19.53,19.53,0,0,0,4-3.57l.4-.53,2.38,2.64-.81.73-1.52-1.68C30.67,22.9,25.34,28.05,15,29.82Z" fill="#fff"/></g><rect width="58" height="58" fill="none"/></g></g></svg>