<svg xmlns="http://www.w3.org/2000/svg" width="58" height="58" viewBox="0 0 58 58"><g id="レイヤー_2" data-name="レイヤー 2"><g id="レイヤー_1-2" data-name="レイヤー 1"><g id="グループ_1348" data-name="グループ 1348"><path id="パス_1790" data-name="パス 1790" d="M31.5,48.49a2.83,2.83,0,0,1-1.82-.7,3.73,3.73,0,0,1-1.12-2,10.6,10.6,0,0,1-.16-1.11l0-.43c0-.31-.07-.64-.11-1a11.75,11.75,0,0,0-.61-2.81,2,2,0,0,0-.69-1,.78.78,0,0,0-.41-.12.81.81,0,0,0-.56.21,2.21,2.21,0,0,0-.52.8,11.11,11.11,0,0,0-.64,2.78c0,.37-.09.74-.13,1.08s-.05.53-.08.76a7.37,7.37,0,0,1-.13.82,3.7,3.7,0,0,1-1.12,2,2.73,2.73,0,0,1-1.82.7,2.59,2.59,0,0,1-1.74-.67,3.28,3.28,0,0,1-1-1.86,8.29,8.29,0,0,0-.36-1.2c-.16-.44-.37-1-.62-1.63l-.15-.4c-.73-1.9-1.54-4.07-2.49-7a27.51,27.51,0,0,1-1.51-8.23,12.2,12.2,0,0,1,.76-4.44,7.8,7.8,0,0,1,2.48-3.33,7,7,0,0,1,4.39-1.6h0a13.07,13.07,0,0,1,2.85.41,7.43,7.43,0,0,0,4.66,0,13.16,13.16,0,0,1,2.86-.41h0a7.1,7.1,0,0,1,4.39,1.59,7.83,7.83,0,0,1,2.48,3.34,12,12,0,0,1,.75,4.43,26.84,26.84,0,0,1-1.51,8.23c-1.08,3.36-2,5.71-2.65,7.43-.24.63-.44,1.15-.6,1.59a9.15,9.15,0,0,0-.37,1.19,3.21,3.21,0,0,1-1,1.86,2.57,2.57,0,0,1-1.73.67ZM26.54,38a2.25,2.25,0,0,1,1.47.57,3.7,3.7,0,0,1,.86,1.28A11.92,11.92,0,0,1,29.61,43c.06.41.1.8.14,1.15s.05.49.07.7.08.53.11.66a2.28,2.28,0,0,0,.68,1.24,1.33,1.33,0,0,0,.89.35,1.2,1.2,0,0,0,.81-.31,1.88,1.88,0,0,0,.55-1.08,9.92,9.92,0,0,1,.42-1.41c.17-.48.39-1,.64-1.67l.14-.38c.73-1.89,1.53-4,2.46-6.92A25.61,25.61,0,0,0,38,27.51a10.45,10.45,0,0,0-.66-3.91,6.27,6.27,0,0,0-2-2.74,5.54,5.54,0,0,0-3.57-1.3,11.63,11.63,0,0,0-2.55.37l-.21.05a8.35,8.35,0,0,1-4.85,0l-.22-.05a11.45,11.45,0,0,0-2.53-.37,5.57,5.57,0,0,0-3.58,1.3,6.27,6.27,0,0,0-2,2.74,10.45,10.45,0,0,0-.66,3.91,25.61,25.61,0,0,0,1.44,7.8c1.07,3.32,2,5.64,2.62,7.34.24.63.45,1.17.62,1.63a10.05,10.05,0,0,1,.42,1.42,1.88,1.88,0,0,0,.55,1.07,1.21,1.21,0,0,0,.81.32,1.34,1.34,0,0,0,.89-.36,2.29,2.29,0,0,0,.68-1.23c.06-.32.11-.63.14-1l.05-.44c0-.3.06-.63.11-1A12.85,12.85,0,0,1,24.1,40a3.32,3.32,0,0,1,1.22-1.64A2.15,2.15,0,0,1,26.5,38Z" fill="#fff"/><path id="パス_1791" data-name="パス 1791" d="M46.14,14.81l-3.87-1a.26.26,0,0,1-.2-.2l-1-3.87a.25.25,0,0,0-.3-.19.25.25,0,0,0-.19.19l-1,3.87a.26.26,0,0,1-.2.2l-3.87,1a.23.23,0,0,0-.19.28.22.22,0,0,0,.19.19l3.87,1a.26.26,0,0,1,.2.21l1,3.86a.25.25,0,0,0,.3.19.25.25,0,0,0,.19-.19l1-3.86a.26.26,0,0,1,.2-.21l3.87-1a.23.23,0,0,0,.19-.28A.23.23,0,0,0,46.14,14.81Z" fill="#fff"/></g><rect width="58" height="58" fill="none"/></g></g></svg>