<svg xmlns="http://www.w3.org/2000/svg" width="58" height="58" viewBox="0 0 58 58"><g id="レイヤー_2" data-name="レイヤー 2"><g id="レイヤー_1-2" data-name="レイヤー 1"><rect width="58" height="58" fill="none"/><path id="パス_1795" data-name="パス 1795" d="M28.1,46.11a2.53,2.53,0,0,1-2.5-2.46l-.94-17-.14-.11a11,11,0,0,1-3.8-8.46A5.68,5.68,0,0,1,22.27,14c1.38-1.38,3.64-2.08,6.73-2.08s8.29.8,8.29,6.17a11.91,11.91,0,0,1-2.07,6.61,8.68,8.68,0,0,1-1.73,1.85l-.14.11-.94,17a2.54,2.54,0,0,1-2.5,2.47ZM27,43.62a1.16,1.16,0,0,0,1.13,1.13h1.81A1.16,1.16,0,0,0,31,43.61L32,27H26Zm-3.36-29a4.15,4.15,0,0,0-1.52,3.41,10.43,10.43,0,0,0,1.82,5.82,7.2,7.2,0,0,0,1.59,1.67l.1.08h6.81l.11-.08a6.85,6.85,0,0,0,.71-.62,7.35,7.35,0,0,0,.87-1.05,10.51,10.51,0,0,0,1.82-5.82,4.15,4.15,0,0,0-1.52-3.41l-.47-.37L32.8,18.2a.43.43,0,0,1-.85-.13V18l.74-4.25-.35-.1a11.05,11.05,0,0,0-2.28-.36l-.4,0-.31,4.44A.36.36,0,0,1,29,18a.34.34,0,0,1-.34-.32l-.31-4.44-.4,0a10.94,10.94,0,0,0-2.28.36l-.35.1L26.05,18a.43.43,0,0,1-.35.5h-.08a.45.45,0,0,1-.42-.32l-1.13-3.92Z" fill="#fff"/></g></g></svg>