<svg xmlns="http://www.w3.org/2000/svg" width="58" height="58" viewBox="0 0 58 58"><g id="レイヤー_2" data-name="レイヤー 2"><g id="レイヤー_1-2" data-name="レイヤー 1"><path id="パス_1794" data-name="パス 1794" d="M40.06,33.77a12.13,12.13,0,0,0-2.73-3.28,7.41,7.41,0,0,1-.68-1.31C35.86,27.28,35,17.88,35,13.34a.74.74,0,0,0-1.48,0h0c0,3.15.38,11.8.89,13.83a17.9,17.9,0,0,0,.83,2.57,8.11,8.11,0,0,0,.89,1.67l0,.07.06.05a10.8,10.8,0,0,1,2.48,2.95A5.36,5.36,0,0,1,39.48,37a3.76,3.76,0,0,1-1.31,2.89,4.81,4.81,0,0,1-2.84,1.15A4.29,4.29,0,0,0,35.79,40c.11-.39-.18-.54-.57-.64a.74.74,0,0,0-.91.51h0a4.83,4.83,0,0,1-2.16,2.81A5.37,5.37,0,0,1,29,43.92a5.37,5.37,0,0,1-3.15-1.25,5.49,5.49,0,0,1-2.21-3.07.75.75,0,0,0-.91-.52h0a.74.74,0,0,0-.52.91,4.14,4.14,0,0,0,.46,1.08,4.86,4.86,0,0,1-2.84-1.14A3.8,3.8,0,0,1,18.52,37a5.36,5.36,0,0,1,.72-2.55,10.61,10.61,0,0,1,2.48-2.94l.06-.06,0-.07a8.11,8.11,0,0,0,.89-1.67c.87-2.11,1.72-11.68,1.72-16.4a.74.74,0,0,0-1.48,0h0c0,3-.36,11.57-.84,13.46a17.85,17.85,0,0,1-.77,2.38,7.41,7.41,0,0,1-.68,1.31,12.13,12.13,0,0,0-2.73,3.28A6.83,6.83,0,0,0,17,37a5.3,5.3,0,0,0,1.81,4,6.44,6.44,0,0,0,4.28,1.54h.36l.13,0a8.41,8.41,0,0,0,1.31,1.29A6.9,6.9,0,0,0,29,45.4a6.9,6.9,0,0,0,4.07-1.57,8.41,8.41,0,0,0,1.31-1.29l.13,0h.36A6.44,6.44,0,0,0,39.15,41,5.3,5.3,0,0,0,41,37,6.83,6.83,0,0,0,40.06,33.77Z" fill="#fff"/><rect width="58" height="58" fill="none"/></g></g></svg>