<svg xmlns="http://www.w3.org/2000/svg" width="58" height="58" viewBox="0 0 58 58"><g id="レイヤー_2" data-name="レイヤー 2"><g id="レイヤー_1-2" data-name="レイヤー 1"><path id="パス_1788" data-name="パス 1788" d="M13.3,37A26.68,26.68,0,0,0,31.89,39.7a26,26,0,0,0,11.53-5.61,32.72,32.72,0,0,0-9.79-8.54c.09.21.17.42.25.63A8.93,8.93,0,0,1,34.36,29a8.72,8.72,0,1,1-16.84-3.14,8.79,8.79,0,0,1,.5-1.08A41.29,41.29,0,0,0,8.37,30l-.71-1c1.37-1,2.7-1.82,4-2.56a23.07,23.07,0,0,1,4.11-4.15,18.78,18.78,0,0,1,13.47-3.93,23,23,0,0,0,6.19-.26,30.77,30.77,0,0,0,6-1.65l.45,1.17a32.41,32.41,0,0,1-6.26,1.71c-.37.07-.73.12-1.1.17q1.15.39,2.28.9a23.59,23.59,0,0,0,4.28-.24A31.1,31.1,0,0,0,46,19.05l.37,1.19a31.16,31.16,0,0,1-5.06,1.15c-.7.1-1.39.18-2.08.22.74.42,1.46.88,2.16,1.37a21.59,21.59,0,0,0,4-.06A32,32,0,0,0,50,22.07l.31,1.21a33.23,33.23,0,0,1-4.86.88c-.81.08-1.61.13-2.39.13a33.39,33.39,0,0,1,5.39,5.5l.29.38-.29.38A27.39,27.39,0,0,1,32.14,40.92,27.94,27.94,0,0,1,12.66,38L13.3,37ZM31.7,24.66a17.46,17.46,0,0,0-3.55-1A18.89,18.89,0,0,0,20,24.2,7.46,7.46,0,1,0,32.7,26.59a7.38,7.38,0,0,0-1-1.93Zm-6.05-.09a4.44,4.44,0,1,0,3.15,1.3A4.47,4.47,0,0,0,25.65,24.57Zm2.26,2.19A3.21,3.21,0,1,0,28.85,29,3.19,3.19,0,0,0,27.91,26.76Zm1.22-7.16a17.57,17.57,0,0,0-12.59,3.67,18.48,18.48,0,0,0-1.76,1.54c5-2.33,9.43-3,13.57-2.36,5.87,1,11,4.75,16,10.81a28.57,28.57,0,0,0,2.85-3.08,31.37,31.37,0,0,0-5.38-5.3A24.59,24.59,0,0,0,29.13,19.6Z" fill="#fff" fill-rule="evenodd"/><rect width="58" height="58" fill="none"/></g></g></svg>